<?xml version="1.0" encoding="UTF-8" standalone="no"?>
<svg
   version="1.1"
   id="svg1287"
   width="280"
   height="280"
   viewBox="0 0 1000 1000"
   inkscape:version="1.2.1 (9c6d41e410, 2022-07-14)"
   xmlns:inkscape="http://www.inkscape.org/namespaces/inkscape"
   xmlns:sodipodi="http://sodipodi.sourceforge.net/DTD/sodipodi-0.dtd"
   xmlns="http://www.w3.org/2000/svg"
   xmlns:svg="http://www.w3.org/2000/svg">
  <defs
     id="defs1291" />
  <sodipodi:namedview
     id="namedview1289"
     pagecolor="#ffffff"
     bordercolor="#000000"
     borderopacity="0.25"
     inkscape:showpageshadow="2"
     inkscape:pageopacity="0.0"
     inkscape:pagecheckerboard="0"
     inkscape:deskcolor="#d1d1d1"
     showgrid="false"
     inkscape:zoom="1"
     inkscape:cx="275.5"
     inkscape:cy="679"
     inkscape:window-width="1920"
     inkscape:window-height="1017"
     inkscape:window-x="-8"
     inkscape:window-y="-8"
     inkscape:window-maximized="1"
     inkscape:current-layer="g1293" />
  <g
     inkscape:groupmode="layer"
     inkscape:label="Image"
     id="g1293">
    <path
       style="fill:#e1e1e1;fill-opacity:1"
       d="m 61.67639,381.78554 c 0,0 10.854242,-37.12229 18.240012,-55.33872 7.385769,-18.21642 26.062748,-53.68081 26.062748,-53.68081 0,0 68.14939,30.94148 132.90828,-19.97968 68.40702,-53.78975 33.87858,-147.67586 33.87858,-147.67586 0,0 34.65233,-17.59112 52.77989,-24.847289 18.12756,-7.256168 55.8053,-18.586791 55.8053,-18.586791 0,0 36.34422,83.64278 121.61542,79.9187 85.2712,-3.72408 113.79728,-79.9187 113.79728,-79.9187 0,0 36.84638,10.938494 54.99557,18.465252 18.14919,7.526758 53.58963,26.706188 53.58963,26.706188 0,0 -35.59609,80.61049 30.30674,141.70171 66.07206,61.2481 136.84511,24.47483 136.84511,24.47483 0,0 18.15499,33.15781 25.41137,50.57239 7.81106,18.74576 19.39507,57.75444 19.39507,57.75444 0,0 -91.4174,38.75901 -79.05238,129.64296 12.36502,90.88395 78.81206,105.5428 78.81206,105.5428 0,0 -11.88239,37.90102 -19.39358,56.22059 -7.51118,18.31958 -25.59286,53.52191 -25.59286,53.52191 0,0 -92.59345,-35.81421 -145.64288,32.80252 -53.04943,68.61673 -20.94832,132.79674 -20.94832,132.79674 0,0 -30.97251,17.63102 -48.96912,25.45845 -17.99661,7.82743 -58.95542,20.92684 -58.95542,20.92684 0,0 -28.89256,-79.06943 -116.07808,-82.00188 -87.18552,-2.93245 -119.92538,81.81812 -119.92538,81.81812 0,0 -43.47326,-13.99436 -61.52554,-21.88451 -18.05228,-7.89016 -46.8693,-24.5415 -46.8693,-24.5415 0,0 34.76122,-94.68101 -36.02952,-147.65111 -70.79074,-52.97011 -130.51243,-17.63535 -130.51243,-17.63535 0,0 -18.550456,-33.62968 -26.172589,-51.87774 -7.622133,-18.24806 -19.281836,-57.39762 -19.281836,-57.39762 0,0 71.901885,-31.75427 78.718775,-101.5423 9.89663,-101.31687 -78.2126,-133.76458 -78.2126,-133.76458 z"
       id="path1382"
       sodipodi:nodetypes="czcsczczczcscsczczczczczczczczcsc" />
    <path
       sodipodi:type="spiral"
       style="fill:none;fill-rule:evenodd;stroke:#e7e7e7;stroke-width:28.83395006;stroke-dasharray:none;stroke-opacity:1;paint-order:fill markers stroke;marker-end:;stroke-miterlimit:4"
       id="path6341"
       sodipodi:cx="359.63416"
       sodipodi:cy="393.51276"
       sodipodi:expansion="1"
       sodipodi:revolution="4"
       sodipodi:radius="232.28746"
       sodipodi:argument="-24.528143"
       sodipodi:t0="0"
       d="m 359.63416,393.51276 c 7.18646,4.96519 -3.14743,12.13685 -8.25248,11.94437 -13.83435,-0.52162 -19.08438,-17.15988 -15.63627,-28.44932 6.16786,-20.19415 30.54733,-26.88428 48.64616,-19.32817 26.56076,11.08888 34.87325,44.10118 23.02008,68.843 -15.79841,32.97696 -57.7121,42.94024 -89.03985,26.71198 -39.42278,-20.4216 -51.04708,-71.34973 -30.40389,-109.23669 25.00168,-45.88619 85.00232,-59.1769 129.43354,-34.09579 52.36066,29.55722 67.32114,98.66421 37.78769,149.63039 -34.09753,58.84247 -112.3323,75.47498 -169.82723,41.47959 -65.32939,-38.62773 -83.63556,-126.00477 -45.17149,-190.02408 43.15087,-71.81998 139.68042,-91.80103 210.22092,-48.86339 78.31332,47.66891 99.97017,153.35848 52.5553,230.41776 -52.18314,84.80875 -167.0384,108.14212 -250.61461,56.2472 -91.3058,-56.69443 -116.31627,-180.71977 -59.93911,-270.81145 61.20344,-97.80415 194.40234,-124.49219 291.0083,-63.63101 104.30356,65.71061 132.66954,208.08585 67.32291,311.20515"
       transform="matrix(-1.2354969,0,0,1.213108,956.58595,36.056856)"
       inkscape:label="path6341" />
    <path
       style="fill:#e7e7e7;fill-opacity:1;fill-rule:nonzero;stroke:#e7e7e7;stroke-width:1;stroke-dasharray:none;paint-order:fill markers stroke"
       d="m 290.34954,663.66559 -28.83409,19.01686 c 63.91864,76.93695 161.24612,93.35612 163.7845,91.08587 -19.51802,-3.48266 -104.10731,-60.9356 -134.95041,-110.10273 z"
       id="path1027"
       sodipodi:nodetypes="cccc" />
  </g>
</svg>
