<svg version="1.1" id="Layer_1" xmlns="http://www.w3.org/2000/svg" xmlns:xlink="http://www.w3.org/1999/xlink" x="0px" y="0px" width="32px" height="32px" viewBox="0 0 32 32" enable-background="new 0 0 32 32" xml:space="preserve">
  <g id="icon">
    <path d="M29.8752,7.921l-2.4495,-2.4495c-0.2868,-0.2869,-0.749,-0.2902,-1.0367,-0.0042L13.3234,18.4496l-6.8055,-6.8821c-0.1377,-0.1395,-0.2875,-0.1809,-0.4835,-0.1815c-0.1966,-0.0007,-0.3462,0.1143,-0.4848,0.2529l-2.3373,2.3373c-0.2863,0.2863,-0.3252,0.7123,-0.0406,1.0003l6.5068,6.5465c0.0326,0.0579,0.0731,0.0741,0.121,0.1219l3.123,3.123c0.1437,0.1437,0.3133,0.2344,0.5017,0.2344c0.1876,0,0.3659,-0.0619,0.5095,-0.2046l15.9501,-15.844c0.1387,-0.1379,0.2119,-0.3203,0.2122,-0.5159C30.0961,8.242,30.0135,8.0593,29.8752,7.921z" fill="#4EA17E"/>
  </g>
</svg>
