<svg version="1.1" id="Layer_1" xmlns="http://www.w3.org/2000/svg" xmlns:xlink="http://www.w3.org/1999/xlink" x="0px" y="0px" width="32px" height="32px" viewBox="0 0 32 32" enable-background="new 0 0 32 32" xml:space="preserve">
  <g id="main">
    <g id="icon">
      <path d="M14,27L2,27L2,29L17.96,29L17.54,28.16L17.19,27.16L17.16,27L16,27L16,23.5L14,23.5zz" fill="#4EA17E"/>
      <path d="M12.36,26.04L12.17,26.16L12.05,26.34L12,26.55L12,29.5L12.05,29.71L12.17,29.86L12.36,29.96L12.58,30L17.48,30L17.69,29.96L17.86,29.86L17.98,29.71L18.03,29.5L18.03,29.12L18.01,29.1L17.54,28.16L17.19,27.16L16.97,26.1L16.97,26L12.58,26zz" fill="#797979"/>
      <path d="M13.2,0.04375L11.52,0.174L9.997,0.3893L8.674,0.6873L7.583,1.067L7.137,1.286L6.761,1.526L6.462,1.784L6.242,2.063L6.107,2.36L6.062,2.676L6.107,2.994L6.24,3.298L6.457,3.586L6.754,3.859L7.126,4.114L7.569,4.352L8.651,4.771L9.966,5.108L11.48,5.358L13.16,5.512L14.97,5.565L16.79,5.512L18.49,5.358L20.02,5.108L21.36,4.771L22.47,4.352L22.93,4.114L23.31,3.859L23.62,3.586L23.84,3.298L23.98,2.994L24.03,2.676L23.98,2.36L23.84,2.063L23.62,1.784L23.32,1.526L22.94,1.286L22.49,1.067L21.39,0.6873L20.05,0.3893L18.52,0.174L16.83,0.04375L15.02,0zz" fill-rule="evenodd" fill="#EAB765"/>
      <path d="M23.88,4.485L23.66,4.739L23.37,4.977L23.01,5.198L22.12,5.59L21,5.914L19.71,6.167L18.25,6.35L16.68,6.46L15.02,6.497L13.32,6.459L11.74,6.345L10.31,6.16L9.038,5.906L7.953,5.589L7.075,5.211L6.426,4.776L6.194,4.538L6.026,4.287L6,11.16L6.008,18.04L6.055,18.6L6.191,19.13L6.413,19.63L6.716,20.11L7.096,20.55L7.547,20.96L8.065,21.34L8.647,21.69L9.287,22L9.98,22.27L10.72,22.51L11.51,22.7L13.2,22.96L15.02,23.06L16.83,22.97L17.18,22.92L17.26,22.59L17.54,21.85L17.88,21.14L18.28,20.47L18.75,19.85L19.27,19.27L19.85,18.75L20.47,18.28L21.14,17.88L21.85,17.54L22.59,17.26L23.37,17.06L24.03,16.96L24.03,4.214zz" fill-rule="evenodd" fill="#EAB765"/>
    </g>
    <g id="overlay">
      <path d="M25,18c-3.866,0,-7,3.134,-7,7c0,3.866,3.134,7,7,7s7,-3.134,7,-7C32,21.134,28.866,18,25,18zM26,29.5c0,0.2761,-0.2239,0.5,-0.5,0.5h-1c-0.2761,0,-0.5,-0.2239,-0.5,-0.5v-1c0,-0.2761,0.2239,-0.5,0.5,-0.5h1c0.2761,0,0.5,0.2239,0.5,0.5V29.5zM25.7717,26c0,0.2761,-0.2239,0.5,-0.5,0.5h-0.5833c-0.2761,0,-0.5,-0.2239,-0.5,-0.5l-0.2083,-5.5c0,-0.2761,0.2239,-0.5,0.5,-0.5h1c0.2761,0,0.5,0.2239,0.5,0.5L25.7717,26z" fill-rule="evenodd" fill="#CD4C32"/>
      <path d="M24.48,20h1c0.2761,0,0.5,0.2239,0.5,0.5l-0.2083,5.5c0,0.2761,-0.2239,0.5,-0.5,0.5h-0.5833c-0.2761,0,-0.5,-0.2239,-0.5,-0.5l-0.2083,-5.5C23.98,20.2239,24.2038,20,24.48,20z" fill-rule="evenodd" fill="#FFFFFF"/>
      <path d="M24.48,28h1c0.2761,0,0.5,0.2239,0.5,0.5v1c0,0.2761,-0.2239,0.5,-0.5,0.5h-1c-0.2762,0,-0.5,-0.2239,-0.5,-0.5v-1C23.98,28.2239,24.2038,28,24.48,28z" fill-rule="evenodd" fill="#FFFFFF"/>
    </g>
  </g>
</svg>