<svg version="1.1" id="Layer_1" xmlns="http://www.w3.org/2000/svg" xmlns:xlink="http://www.w3.org/1999/xlink" x="0px" y="0px" width="32px" height="32px" viewBox="0 0 32 32" enable-background="new 0 0 32 32" xml:space="preserve">
  <g id="main">
    <g id="icon">
      <g>
        <path d="M1.309,12.03L1.002,12.13L0.7238,12.28L0.4811,12.48L0.2807,12.72L0.1293,13L0.0334,13.31L0,13.64L0,23.36L0.0334,23.69L0.1293,24L0.2807,24.28L0.4811,24.52L0.7238,24.72L1.002,24.87L1.309,24.97L1.638,25L15.36,25L15.69,24.97L16,24.87L16.28,24.72L16.52,24.52L16.72,24.28L16.87,24L16.97,23.69L17,23.36L17,13.64L16.97,13.31L16.87,13L16.72,12.72L16.52,12.48L16.28,12.28L16,12.13L15.69,12.03L15.36,12L1.638,12zM15,14L15,23L2,23L2,14zz" fill="#3E79B4"/>
        <path d="M6,26.6L11,26.6L11,23.6L6,23.6zz" fill="#3E79B4"/>
        <path d="M2,23L15,23L15,14L2,14zz" fill="#FFFFFF"/>
        <path d="M1.596,27.08L1.286,27.29L1.077,27.6L1,27.98L1,29.03L1.077,29.4L1.286,29.71L1.596,29.92L1.975,30L15.03,30L15.4,29.92L15.71,29.71L15.92,29.4L16,29.03L16,27.98L15.92,27.6L15.71,27.29L15.4,27.08L15.03,27L1.975,27zM13.56,27.95L13.89,28.09L14.12,28.3L14.2,28.55L14.12,28.87L13.89,29.07L13.56,29.17L13.15,29.2L12.74,29.15L12.41,29.01L12.18,28.8L12.1,28.55L12.18,28.3L12.41,28.09L12.74,27.95L13.15,27.9zM9.9,28L10.09,28.04L10.25,28.15L10.36,28.31L10.4,28.5L10.36,28.69L10.25,28.85L10.09,28.96L9.9,29L3.2,29L3.006,28.96L2.847,28.85L2.739,28.69L2.7,28.5L2.739,28.31L2.847,28.15L3.006,28.04L3.2,28zz" fill="#3E79B4"/>
        <path d="M3.006,28.04L2.847,28.15L2.739,28.31L2.7,28.5L2.739,28.69L2.847,28.85L3.006,28.96L3.2,29L9.9,29L10.09,28.96L10.25,28.85L10.36,28.69L10.4,28.5L10.36,28.31L10.25,28.15L10.09,28.04L9.9,28L3.2,28zz" fill="#FFFFFF"/>
        <path d="M12.74,27.95L12.41,28.09L12.18,28.3L12.1,28.55L12.18,28.8L12.41,29.01L12.74,29.15L13.15,29.2L13.56,29.17L13.89,29.07L14.12,28.87L14.2,28.55L14.12,28.3L13.89,28.09L13.56,27.95L13.15,27.9zz" fill="#FFFFFF"/>
      </g>
      <g>
        <path d="M14.31,0.0334L14,0.1293L13.72,0.2807L13.48,0.4811L13.28,0.7238L13.13,1.002L13.03,1.309L13,1.638L13,11L15,11L15,2L28,2L28,11L15.95,11L16.36,11.04L16.74,11.16L17.08,11.34L17.38,11.58L17.63,11.88L17.82,12.22L17.95,12.6L18,13L28.36,13L28.69,12.97L29,12.87L29.28,12.72L29.52,12.52L29.72,12.28L29.87,12L29.97,11.69L30,11.36L30,1.638L29.97,1.309L29.87,1.002L29.72,0.7238L29.52,0.4811L29.28,0.2807L29,0.1293L28.69,0.0334L28.36,0L14.64,0zz" fill="#3E79B4"/>
        <path d="M19,14.6L24,14.6L24,11.6L19,11.6zz" fill="#3E79B4"/>
        <path d="M15,11L15.95,11L28,11L28,2L15,2zz" fill="#FFFFFF"/>
        <path d="M18,16L22.9,16L23.09,16.04L23.25,16.15L23.36,16.31L23.4,16.5L23.36,16.69L23.25,16.85L23.09,16.96L22.9,17L18,17L18,18L19.08,18L19.6,17.48L19.83,17.29L20.09,17.16L20.37,17.07L20.66,17.04L20.96,17.07L21.24,17.16L21.5,17.29L21.73,17.48L22.24,18L27.76,18L28.27,17.48L28.5,17.29L28.76,17.16L28.99,17.09L29,17.03L29,15.98L28.92,15.6L28.71,15.29L28.4,15.08L28.03,15L18,15zM26.56,15.95L26.89,16.09L27.12,16.3L27.2,16.55L27.12,16.87L26.89,17.07L26.56,17.17L26.15,17.2L25.74,17.15L25.41,17.01L25.18,16.8L25.1,16.55L25.18,16.3L25.41,16.09L25.74,15.95L26.15,15.9zz" fill="#3E79B4"/>
        <path d="M18,17L22.9,17L23.09,16.96L23.25,16.85L23.36,16.69L23.4,16.5L23.36,16.31L23.25,16.15L23.09,16.04L22.9,16L18,16zz" fill="#FFFFFF"/>
        <path d="M25.74,15.95L25.41,16.09L25.18,16.3L25.1,16.55L25.18,16.8L25.41,17.01L25.74,17.15L26.15,17.2L26.56,17.17L26.89,17.07L27.12,16.87L27.2,16.55L27.12,16.3L26.89,16.09L26.56,15.95L26.15,15.9zz" fill="#FFFFFF"/>
      </g>
      <path d="M1,3L3,3L3,1L1,1zM5,3L7,3L7,1L5,1zM9,3L11,3L11,1L9,1zM1,7L3,7L3,5L1,5zM1,11L3,11L3,9L1,9zz" fill="#4EA17E"/>
    </g>
    <g id="overlay">
      <path d="M31.91,29.789l-2.121,2.121c-0.195,0.195,-0.512,0.195,-0.707,0L25,27.828l-3.982,3.982c-0.195,0.195,-0.512,0.195,-0.707,0l-2.121,-2.121c-0.195,-0.195,-0.195,-0.512,0,-0.707L22.172,25l-3.982,-3.982c-0.195,-0.195,-0.195,-0.512,0,-0.707l2.121,-2.121c0.195,-0.195,0.512,-0.195,0.707,0L25,22.172l3.982,-3.982c0.195,-0.195,0.512,-0.195,0.707,0l2.121,2.121c0.195,0.195,0.195,0.512,0,0.707L27.828,25l4.082,4.082C32.106,29.277,32.106,29.594,31.91,29.789z" fill-rule="evenodd" fill="#CD4C32"/>
    </g>
  </g>
</svg>
