<svg version="1.1" id="Layer_1" xmlns="http://www.w3.org/2000/svg" xmlns:xlink="http://www.w3.org/1999/xlink" x="0px" y="0px" width="32px" height="32px" viewBox="0 0 32 32" enable-background="new 0 0 32 32" xml:space="preserve">
  <g id="main">
    <g id="icon">
      <path d="M5.991,0.5506L5.712,0.7098L5.551,0.9891L5.5,1.4L5.5,6L6.422,6L7.5,5.983L7.657,6L14.8,6L15.4,6.048L15.94,6.186L16.42,6.399L16.85,6.675L17.24,7.003L17.57,7.369L18.12,8.165L18.5,8.963L18.76,9.662L18.94,10.36L18.93,10.84L18.78,11.28L18.49,11.64L18.08,11.9L17.83,11.97L17.56,12L15.24,12L15.27,12.09L15.51,12.85L15.85,13.65L16.7,15.36L17.03,15.99L17.7,17.33L18.27,18.61L18.68,19.8L18.7,19.91L18.75,19.85L19.27,19.27L19.85,18.75L20.47,18.28L21.14,17.88L21.85,17.54L22.59,17.26L23.37,17.06L24.17,16.94L25,16.9L26.1,16.97L27.16,17.19L28.16,17.54L28.5,17.71L28.5,8.8L28.47,8.489L28.39,8.226L28.27,8L28.1,7.8L21.2,0.8998L20.94,0.6896L20.71,0.5686L20.3,0.5L6.4,0.5zM16.47,25.49L15.83,25.79L15.27,25.95L14.88,26L5.5,26L5.5,28.6L5.551,29.01L5.712,29.29L5.991,29.45L6.4,29.5L18.28,29.5L18.01,29.1L17.54,28.16L17.19,27.16L16.97,26.1L16.91,25.18zz" fill-rule="evenodd" fill="#FFFFFF"/>
      <path d="M4.385,7.029L4.248,7.07L4.188,7.133L4.2,7.222L4.28,7.339L4.622,7.673L5.038,8.104L5.4,8.585L5.962,9.562L6.303,10.35L6.419,10.67L6.555,10.91L6.8,11L17.56,11L17.7,10.98L17.82,10.9L17.9,10.79L17.95,10.52L17.79,9.909L17.58,9.342L17.27,8.705L16.85,8.075L16.31,7.529L15.99,7.312L15.63,7.145L15.23,7.038L14.8,7L4.909,7zM2.759,7.427L2.191,7.715L1.889,7.948L1.6,8.259L1.343,8.661L1.137,9.17L0.9994,9.797L0.9494,10.56L0.9957,11.12L1.127,11.7L1.333,12.32L1.601,12.95L2.279,14.27L3.07,15.65L3.922,17.09L4.691,18.5L4.995,19.17L5.22,19.81L5.345,20.41L5.35,20.97L5.2,21.63L4.99,22.22L4.741,22.74L4.471,23.18L3.95,23.86L3.583,24.23L3.58,24.23L3.195,24.56L3.087,24.68L3.08,24.75L3.353,24.87L3.791,24.95L4.621,25L14.88,25L15.39,24.88L15.87,24.68L16.4,24.33L16.93,23.82L17.01,23.71L17.06,23.37L17.26,22.59L17.54,21.85L17.82,21.27L17.83,20.88L17.8,20.44L17.69,19.96L17.31,18.89L16.77,17.7L16.14,16.45L15.06,14.33L14.62,13.32L14.3,12.33L14.15,12.1L14.03,12.03L13.9,12L6.238,12L6.053,11.93L5.896,11.77L5.684,11.35L5.291,10.33L4.788,9.329L4.471,8.844L4.097,8.373L3.658,7.916L3.143,7.476L2.958,7.401zM0.2568,20.03L0.1301,20.11L0.04453,20.22L0.00918,20.5L0.1348,20.96L0.5014,21.94L0.7863,22.52L1.145,23.09L1.581,23.61L2.1,24.04L2.36,24.15L2.467,24.11L2.588,24.01L3.211,23.37L3.684,22.75L4.026,22.15L4.26,21.61L4.484,20.77L4.522,20.42L4.522,20.21L4.487,20.08L4.369,20.02L4.117,20L0.4082,20zz" fill="#EAB765"/>
      <path d="M20,7.567L20.03,7.819L20.11,8.054L20.38,8.461L20.76,8.768L21.18,8.953L21.39,9L28.2,9L28.2,8L21.49,8L21.2,7.855L21.06,7.718L21,7.567L21,0.8L20,0.8zz" fill="#6D6E71"/>
      <path d="M6.077,0.02266L5.795,0.09004L5.554,0.2016L5.356,0.3564L5.202,0.5545L5.09,0.7949L5.023,1.077L5,1.4L5,6L6,6L6,1.4L6.012,1.185L6.064,1.064L6.185,1.012L6.4,1L20.3,1L20.54,1.039L20.85,1.253L27.75,8.154L27.93,8.412L28,8.8L28,17.48L28.16,17.54L29,17.96L29,8.8L28.97,8.409L28.87,8.056L28.7,7.738L28.45,7.446L21.55,0.5463L21.27,0.3059L20.97,0.1354L20.64,0.03359L20.3,0L6.4,0zM5,28.6L5.023,28.92L5.09,29.21L5.202,29.45L5.356,29.64L5.554,29.8L5.795,29.91L6.077,29.98L6.4,30L18.63,30L18.59,29.96L18.01,29.1L17.96,29L6.4,29L6.185,28.99L6.064,28.94L6.012,28.82L6,28.6L6,26L5,26zz" fill="#6D6E71"/>
    </g>
    <g id="overlay">
      <path d="M25,18c-3.866,0,-7,3.134,-7,7c0,3.866,3.134,7,7,7s7,-3.134,7,-7C32,21.134,28.866,18,25,18zM26,29.5c0,0.2761,-0.2239,0.5,-0.5,0.5h-1c-0.2761,0,-0.5,-0.2239,-0.5,-0.5v-1c0,-0.2761,0.2239,-0.5,0.5,-0.5h1c0.2761,0,0.5,0.2239,0.5,0.5V29.5zM25.7717,26c0,0.2761,-0.2239,0.5,-0.5,0.5h-0.5833c-0.2761,0,-0.5,-0.2239,-0.5,-0.5l-0.2083,-5.5c0,-0.2761,0.2239,-0.5,0.5,-0.5h1c0.2761,0,0.5,0.2239,0.5,0.5L25.7717,26z" fill-rule="evenodd" fill="#CD4C32"/>
      <path d="M24.48,20h1c0.2761,0,0.5,0.2239,0.5,0.5l-0.2083,5.5c0,0.2761,-0.2239,0.5,-0.5,0.5h-0.5833c-0.2761,0,-0.5,-0.2239,-0.5,-0.5l-0.2083,-5.5C23.98,20.2239,24.2038,20,24.48,20z" fill-rule="evenodd" fill="#FFFFFF"/>
      <path d="M24.48,28h1c0.2761,0,0.5,0.2239,0.5,0.5v1c0,0.2761,-0.2239,0.5,-0.5,0.5h-1c-0.2762,0,-0.5,-0.2239,-0.5,-0.5v-1C23.98,28.2239,24.2038,28,24.48,28z" fill-rule="evenodd" fill="#FFFFFF"/>
    </g>
  </g>
</svg>