<svg version="1.1" id="Layer_1" xmlns="http://www.w3.org/2000/svg" xmlns:xlink="http://www.w3.org/1999/xlink" x="0px" y="0px" width="32px" height="32px" viewBox="0 0 32 32" enable-background="new 0 0 32 32" xml:space="preserve">
  <g id="icon">
    <path d="M15.5,30c8.0081,0,14.5,-6.4919,14.5,-14.5c0,-8.0081,-6.4919,-14.5,-14.5,-14.5S1,7.4919,1,15.5C1,23.5081,7.4919,30,15.5,30zM17,18.6c0,0.2209,-0.1791,0.4,-0.4,0.4h-2.2c-0.2209,0,-0.4,-0.1791,-0.4,-0.4V6.4c0,-0.2209,0.1791,-0.4,0.4,-0.4h2.2c0.2209,0,0.4,0.1791,0.4,0.4V18.6zM17,24.6c0,0.2209,-0.1791,0.4,-0.4,0.4h-2.2c-0.2209,0,-0.4,-0.1791,-0.4,-0.4v-2.2c0,-0.2209,0.1791,-0.4,0.4,-0.4h2.2c0.2209,0,0.4,0.1791,0.4,0.4V24.6z" fill-rule="evenodd" fill="#CD4C32"/>
    <path d="M14.4,6h2.2c0.2209,0,0.4,0.1791,0.4,0.4v12.2c0,0.2209,-0.1791,0.4,-0.4,0.4h-2.2c-0.2209,0,-0.4,-0.1791,-0.4,-0.4V6.4C14,6.1791,14.1791,6,14.4,6zM14.4,25h2.2c0.2209,0,0.4,-0.1791,0.4,-0.4v-2.2c0,-0.2209,-0.1791,-0.4,-0.4,-0.4h-2.2c-0.2209,0,-0.4,0.1791,-0.4,0.4v2.2C14,24.8209,14.1791,25,14.4,25z" fill-rule="evenodd" fill="#FFFFFF"/>
  </g>
</svg>
