<svg version="1.1" id="Layer_1" xmlns="http://www.w3.org/2000/svg" xmlns:xlink="http://www.w3.org/1999/xlink" x="0px" y="0px" width="32px" height="32px" viewBox="0 0 32 32" enable-background="new 0 0 32 32" xml:space="preserve">
  <g id="main">
    <g id="icon">
      <path d="M6.938,0.05664L6.707,0.134L6.606,0.2492L6.627,0.4068L6.76,0.6109L7.336,1.176L8.035,1.905L8.645,2.736L9.163,3.609L9.589,4.462L10.16,5.865L10.36,6.456L10.44,6.674L10.59,6.846L10.78,6.959L11,7L29.54,7L29.77,6.957L29.98,6.828L30.12,6.647L30.19,6.431L30.19,6.201L29.92,5.128L29.57,4.131L29.05,3.008L28.73,2.443L28.35,1.897L27.92,1.389L27.43,0.9344L26.89,0.5512L26.29,0.2564L25.63,0.06699L24.9,0L7.818,0zM4.642,0.5596L4.184,0.7662L3.685,1.071L3.178,1.491L2.692,2.046L2.26,2.754L1.913,3.632L1.681,4.7L1.597,5.976L1.675,6.907L1.896,7.882L2.242,8.897L2.693,9.949L3.229,11.03L3.833,12.14L5.164,14.44L6.597,16.84L7.278,18.02L7.891,19.18L8.403,20.3L8.78,21.37L8.99,22.37L9.022,22.85L9,23.3L8.747,24.39L8.395,25.37L7.975,26.23L7.522,26.98L7.067,27.6L6.645,28.11L6.027,28.72L6.022,28.73L5.376,29.27L5.195,29.46L5.182,29.59L5.362,29.7L5.64,29.79L6.378,29.92L7.773,30L18.63,30L18.59,29.96L18.01,29.1L17.54,28.16L17.19,27.16L16.97,26.1L16.97,26L12.2,26L12.01,25.96L11.85,25.85L11.74,25.69L11.7,25.5L11.74,25.31L11.85,25.15L12.01,25.04L12.2,25L16.9,25L16.94,24.17L17.06,23.37L17.16,23L13.1,23L12.91,22.96L12.75,22.85L12.64,22.69L12.6,22.5L12.64,22.31L12.75,22.15L12.91,22.04L13.1,22L17.48,22L17.54,21.85L17.88,21.14L18.28,20.47L18.64,20L12.3,20L12.11,19.96L11.95,19.85L11.84,19.69L11.8,19.5L11.84,19.31L11.95,19.15L12.11,19.04L12.3,19L19.57,19L19.85,18.75L20.47,18.28L21.14,17.88L21.85,17.54L22.59,17.26L23.37,17.06L23.79,17L11.1,17L10.91,16.96L10.75,16.85L10.64,16.69L10.6,16.5L10.64,16.31L10.75,16.15L10.91,16.04L11.1,16L24,16L24.19,16.04L24.35,16.15L24.46,16.31L24.5,16.5L24.46,16.69L24.35,16.85L24.23,16.94L25,16.9L26.1,16.97L27.16,17.19L28.02,17.49L27.14,15.77L26.21,13.92L25.34,12.06L24.6,10.25L24.05,8.554L23.96,8.337L23.81,8.161L23.61,8.043L23.38,8L10.49,8L10.18,7.951L9.902,7.81L9.691,7.59L9.562,7.3L9.331,6.452L9.047,5.587L8.693,4.716L8.252,3.849L7.709,2.998L7.044,2.172L6.243,1.382L5.287,0.64L4.974,0.5199zM21.1,10L21.29,10.04L21.45,10.15L21.56,10.31L21.6,10.5L21.56,10.69L21.45,10.85L21.29,10.96L21.1,11L8.3,11L8.105,10.96L7.946,10.85L7.839,10.69L7.8,10.5L7.839,10.31L7.946,10.15L8.105,10.04L8.3,10zM22.5,13L22.69,13.04L22.85,13.15L22.96,13.31L23,13.5L22.96,13.69L22.85,13.85L22.69,13.96L22.5,14L9.7,14L9.505,13.96L9.346,13.85L9.239,13.69L9.2,13.5L9.239,13.31L9.346,13.15L9.505,13.04L9.7,13zM0.4322,22.04L0.2189,22.18L0.0752,22.37L0.005859,22.59L0.01563,22.83L0.3,23.59L0.6287,24.34L1.077,25.23L1.642,26.19L2.32,27.14L3.107,28.01L3.541,28.39L4,28.73L4.245,28.86L4.438,28.9L4.617,28.84L4.821,28.67L5.379,28.14L5.869,27.61L6.664,26.57L7.241,25.58L7.634,24.68L7.879,23.9L8.011,23.29L8.074,22.69L8.074,22.35L8.016,22.14L7.817,22.03L7.393,22L0.6867,22zz" fill="#EAB765"/>
      <path d="M7.983,10.11L7.81,10.4L7.859,10.73L8.108,10.96L8.3,11L21.1,11L21.42,10.89L21.59,10.6L21.54,10.27L21.29,10.04L21.1,10L8.3,10zM9.383,13.11L9.21,13.4L9.259,13.73L9.508,13.96L9.7,14L22.5,14L22.82,13.89L22.99,13.6L22.94,13.27L22.69,13.04L22.5,13L9.7,13zM10.78,16.11L10.61,16.4L10.66,16.73L10.91,16.96L11.1,17L23.79,17L24.16,16.94L24.32,16.89L24.49,16.6L24.44,16.27L24.19,16.04L24,16L11.1,16zM11.98,19.11L11.81,19.4L11.86,19.73L12.11,19.96L12.3,20L18.64,20L18.75,19.85L19.27,19.27L19.57,19L12.3,19zM12.78,22.11L12.61,22.4L12.66,22.73L12.91,22.96L13.1,23L17.16,23L17.26,22.59L17.48,22L13.1,22zM11.88,25.11L11.71,25.4L11.76,25.73L12.01,25.96L12.2,26L16.97,26L16.9,25L12.2,25zz" fill="#6D6E71"/>
    </g>
    <g id="overlay">
      <path d="M25,18c-3.866,0,-7,3.134,-7,7c0,3.866,3.134,7,7,7s7,-3.134,7,-7C32,21.134,28.866,18,25,18zM26,29.5c0,0.2761,-0.2239,0.5,-0.5,0.5h-1c-0.2761,0,-0.5,-0.2239,-0.5,-0.5v-1c0,-0.2761,0.2239,-0.5,0.5,-0.5h1c0.2761,0,0.5,0.2239,0.5,0.5V29.5zM25.7717,26c0,0.2761,-0.2239,0.5,-0.5,0.5h-0.5833c-0.2761,0,-0.5,-0.2239,-0.5,-0.5l-0.2083,-5.5c0,-0.2761,0.2239,-0.5,0.5,-0.5h1c0.2761,0,0.5,0.2239,0.5,0.5L25.7717,26z" fill-rule="evenodd" fill="#CD4C32"/>
      <path d="M24.48,20h1c0.2761,0,0.5,0.2239,0.5,0.5l-0.2083,5.5c0,0.2761,-0.2239,0.5,-0.5,0.5h-0.5833c-0.2761,0,-0.5,-0.2239,-0.5,-0.5l-0.2083,-5.5C23.98,20.2239,24.2038,20,24.48,20z" fill-rule="evenodd" fill="#FFFFFF"/>
      <path d="M24.48,28h1c0.2761,0,0.5,0.2239,0.5,0.5v1c0,0.2761,-0.2239,0.5,-0.5,0.5h-1c-0.2762,0,-0.5,-0.2239,-0.5,-0.5v-1C23.98,28.2239,24.2038,28,24.48,28z" fill-rule="evenodd" fill="#FFFFFF"/>
    </g>
  </g>
</svg>