<svg version="1.1" id="Layer_1" xmlns="http://www.w3.org/2000/svg" xmlns:xlink="http://www.w3.org/1999/xlink" x="0px" y="0px" width="32px" height="32px" viewBox="0 0 32 32" enable-background="new 0 0 32 32" xml:space="preserve">
  <g id="icon">
    <path d="M19.5,31h-6.925c-0.316,0,-0.575,-0.259,-0.575,-0.575V27.55c0,-0.304,0.246,-0.55,0.55,-0.55h6.9c0.304,0,0.55,0.246,0.55,0.55V30.5C20,30.776,19.776,31,19.5,31z" fill="#6D6E71"/>
    <path d="M11.5,30H3v-2h8.5V30zM17,26.5v-2h-2v2H17zM20.5,28v2h8.5v-2H20.5z" fill="#CD4C32"/>
    <path d="M22.088,1H9.913C9.409,1,9,1.409,9,1.913V4h14V1.913C23,1.409,22.591,1,22.088,1zM21,3h-2V2h2V3zM9,8h14V5H9V8zM19,6h2v1h-2V6zM9,23.088c0,0.504,0.409,0.913,0.913,0.913h12.175c0.504,0,0.913,-0.409,0.913,-0.913V9H9V23.088zM16,17.2c0.994,0,1.8,0.806,1.8,1.8c0,0.994,-0.806,1.8,-1.8,1.8s-1.8,-0.806,-1.8,-1.8C14.2,18.006,15.006,17.2,16,17.2z" fill="#797979"/>
    <path d="M21,3h-2V2h2V3zM21,6h-2v1h2V6zM16,17.2c-0.994,0,-1.8,0.806,-1.8,1.8s0.806,1.8,1.8,1.8s1.8,-0.806,1.8,-1.8S16.994,17.2,16,17.2z" fill="#FFFFFF"/>
  </g>
</svg>