<svg version="1.1" id="Layer_1" xmlns="http://www.w3.org/2000/svg" xmlns:xlink="http://www.w3.org/1999/xlink" x="0px" y="0px" width="16px" height="16px" viewBox="0 0 16 16" enable-background="new 0 0 16 16" xml:space="preserve">
  <g id="icon">
    <path d="M16,16h-4.5v-1.5h4.5V16zM4.5,14.5H0v1.5h4.5V14.5z" fill="#CD4C32"/>
    <polygon points="9,14 9,12.5 7,12.5 7,14 5,14 5,16 11,16 11,14" fill="#797979" stroke-linejoin="miter"/>
    <path d="M11.283,0h-6.55C4.338,0,4,0.321,4,0.717V3h8V0.717C12,0.321,11.679,0,11.283,0zM11,2H9V1h2V2zM4,11.283c0,0.396,0.338,0.717,0.733,0.717h6.55c0.396,0,0.717,-0.321,0.717,-0.717V4H4V11.283zM8,7.8c0.663,0,1.2,0.537,1.2,1.2c0,0.663,-0.537,1.2,-1.2,1.2s-1.2,-0.537,-1.2,-1.2C6.8,8.337,7.337,7.8,8,7.8z" fill="#797979"/>
    <path d="M9,1h2v1H9V1zM8,7.8c-0.663,0,-1.2,0.537,-1.2,1.2s0.537,1.2,1.2,1.2s1.2,-0.537,1.2,-1.2S8.663,7.8,8,7.8z" fill-rule="evenodd" fill="#FFFFFF"/>
  </g>
</svg>
