<svg version="1.1" id="Layer_1" xmlns="http://www.w3.org/2000/svg" xmlns:xlink="http://www.w3.org/1999/xlink" x="0px" y="0px" width="16px" height="16px" viewBox="0 0 16 16" enable-background="new 0 0 16 16" xml:space="preserve">
  <g id="icon">
    <rect x="6" y="14" width="4" height="2" fill="#797979"/>
    <path d="M15,16h-5v-1.5h5V16zM6,14.5H1v1.5h5V14.5zM9,12.5H7v1.5h2V12.5z" fill="#4EA17E"/>
    <path d="M7.9621,0c2.9036,0,5.0054,0.5847,5.0054,1.5365s-2.1283,1.6974,-5.0319,1.6974c-2.9036,0,-4.8995,-0.7455,-4.8995,-1.6974S5.0585,0,7.9621,0z" fill-rule="evenodd" fill="#EAB765"/>
    <path d="M7.964,4.2c2.6384,0,4.6998,-0.5616,5.036,-1.3719c0,0.898,-0.0009,6.3565,-0.0009,6.4416c0,1.7471,-2.1334,2.7303,-5.037,2.7303c-2.9036,0,-4.9574,-1.0726,-4.9574,-2.7303c0,-0.0706,-0.0157,-6.3764,0.0105,-6.4416C3.4326,3.5745,5.2344,4.2,7.964,4.2z" fill-rule="evenodd" fill="#EAB765"/>
  </g>
</svg>
