<svg version="1.1" id="Layer_1" xmlns="http://www.w3.org/2000/svg" xmlns:xlink="http://www.w3.org/1999/xlink" x="0px" y="0px" width="32px" height="32px" viewBox="0 0 32 32" enable-background="new 0 0 32 32" xml:space="preserve">
  <g id="icon">
    <polygon points="17,28 17,24.5 15,24.5 15,28 3,28 3,30 29,30 29,28" fill="#4EA17E" stroke-linejoin="miter"/>
    <path d="M18.475,31h-4.9c-0.3038,0,-0.575,-0.1962,-0.575,-0.5v-2.95c0,-0.3038,0.2712,-0.55,0.575,-0.55h4.9c0.3038,0,0.55,0.2462,0.55,0.55V30.5C19.025,30.8038,18.7788,31,18.475,31z" fill="#797979"/>
    <path d="M16.0172,1c4.9757,0,9.0092,0.9409,9.0092,2.6755s-4.0791,2.8896,-9.0548,2.8896c-4.9757,0,-8.91,-1.155,-8.91,-2.8896S11.0416,1,16.0172,1z" fill-rule="evenodd" fill="#EAB765"/>
    <path d="M16.0205,7.4974c4.5213,0,8.4313,-0.7951,9.0075,-2.2838c0,1.6501,-0.0015,13.6687,-0.0015,13.825c0,3.2101,-4.0336,5.0167,-9.0092,5.0167c-4.9757,0,-9.0092,-1.9708,-9.0092,-5.0167c0,-0.1297,-0.0269,-13.6319,0.0181,-13.7516C7.7413,6.6584,11.343,7.4974,16.0205,7.4974z" fill-rule="evenodd" fill="#EAB765"/>
  </g>
</svg>
