<svg version="1.1" id="Layer_1" xmlns="http://www.w3.org/2000/svg" xmlns:xlink="http://www.w3.org/1999/xlink" x="0px" y="0px" width="32px" height="32px" viewBox="0 0 32 32" enable-background="new 0 0 32 32" xml:space="preserve">
  <g id="icon">
    <path d="M29.756,6.065c-0.161,-0.654,-0.747,-1.11,-1.425,-1.11c-0.051,0,-0.102,0.003,-0.152,0.008c-0.494,0.051,-0.993,0.076,-1.485,0.076c-5.224,0,-8.755,-2.794,-9.713,-3.65c-0.267,-0.239,-0.613,-0.371,-0.972,-0.371c-0.321,0,-0.639,0.108,-0.894,0.303C13.663,2.43,9.772,5.008,4.977,5.008c-0.385,0,-0.772,-0.017,-1.152,-0.05c-0.044,-0.004,-0.087,-0.006,-0.131,-0.006c-0.681,0,-1.268,0.461,-1.428,1.122C1.554,9.017,2.071,18.751,6.31,24.25c2.838,3.683,5.915,5.878,9.408,6.711c0.11,0.026,0.224,0.039,0.339,0.039c0.114,0,0.228,-0.013,0.34,-0.04c4.365,-1.043,7.203,-4.134,9.189,-6.71C29.845,18.722,30.449,8.873,29.756,6.065zM22.301,19.63c0.18,0.18,0.18,0.471,0,0.651l-1.471,1.471c-0.18,0.18,-0.471,0.18,-0.651,0l-4.13,-4.13l-4.13,4.13c-0.18,0.18,-0.471,0.18,-0.651,0L9.799,20.28c-0.18,-0.18,-0.18,-0.471,0,-0.651l4.13,-4.13l-4.13,-4.13c-0.18,-0.18,-0.18,-0.471,0,-0.651l1.471,-1.471c0.18,-0.18,0.471,-0.18,0.651,0l4.13,4.13l4.13,-4.13c0.18,-0.18,0.471,-0.18,0.651,0l1.471,1.471c0.18,0.18,0.18,0.471,0,0.651l-4.13,4.13L22.301,19.63z" fill="#CD4C32"/>
    <path d="M18.171,15.5l4.13,-4.13c0.18,-0.18,0.18,-0.471,0,-0.651L20.83,9.249c-0.18,-0.18,-0.471,-0.18,-0.651,0l-4.13,4.13l-4.13,-4.13c-0.18,-0.18,-0.471,-0.18,-0.651,0L9.799,10.72c-0.18,0.18,-0.18,0.471,0,0.651l4.13,4.13l-4.13,4.13c-0.18,0.18,-0.18,0.471,0,0.651l1.471,1.471c0.18,0.18,0.471,0.18,0.651,0l4.13,-4.13l4.13,4.13c0.18,0.18,0.471,0.18,0.651,0l1.471,-1.471c0.18,-0.18,0.18,-0.471,0,-0.651L18.171,15.5z" fill="#FFFFFF"/>
  </g>
</svg>
