<svg version="1.1" id="Layer_1" xmlns="http://www.w3.org/2000/svg" xmlns:xlink="http://www.w3.org/1999/xlink" x="0px" y="0px" width="16px" height="16px" viewBox="0 0 16 16" enable-background="new 0 0 16 16" xml:space="preserve">
  <g id="icon">
    <path d="M7.025,0h6.511c1.862,0,2.406,2.117,2.424,2.231c0.023,0.143,-0.049,0.291,-0.191,0.35c-0.034,0.014,-0.071,0.019,-0.108,0.019H8.363c-0.142,0,-0.264,-0.105,-0.293,-0.251c-0.003,-0.015,-0.358,-1.018,-1.266,-1.83C6.336,0.101,6.306,0,7.025,0zM14.563,6.843c-0.57,-1.118,-1.16,-2.124,-1.414,-3.118c-0.037,-0.143,-0.163,-0.258,-0.309,-0.258H7.805c-0.202,0,-0.359,-0.303,-0.426,-0.495c-0.373,-1.063,-0.816,-1.72,-1.958,-2.606c-0.084,-0.065,-0.197,-0.075,-0.296,-0.037c-0.522,0.202,-1.394,0.702,-1.394,2.413c0,0.097,0.008,0.191,0.019,0.285c0.102,-0.006,0.204,-0.01,0.307,-0.01c2.789,0,5.058,2.269,5.058,5.058c0,1.479,-0.638,2.812,-1.653,3.737L8.128,13c2.279,0,5.433,0,5.467,0c0.099,0,2.405,-0.311,2.405,-3.172C15.994,8.967,15.234,8.158,14.563,6.843z" fill="#EAB765"/>
    <path d="M4.058,4.017c2.241,0,4.058,1.817,4.058,4.058s-1.817,4.058,-4.058,4.058S0,10.315,0,8.074S1.817,4.017,4.058,4.017zM1.752,11.893L0.196,14.669c-0.088,0.157,0.024,0.35,0.204,0.353l1.243,0.015l0.89,0.868c0.129,0.125,0.345,0.068,0.393,-0.106l0.921,-3.28C3.084,12.486,2.37,12.262,1.752,11.893zM6.355,11.882l1.562,2.787c0.088,0.157,-0.024,0.35,-0.204,0.353l-1.243,0.015l-0.89,0.868c-0.129,0.125,-0.345,0.068,-0.393,-0.106l-0.921,-3.281C5.027,12.481,5.739,12.253,6.355,11.882z" fill="#CD4C32"/>
  </g>
</svg>