<svg version="1.1" id="Layer_1" xmlns="http://www.w3.org/2000/svg" xmlns:xlink="http://www.w3.org/1999/xlink" x="0px" y="0px" width="32px" height="32px" viewBox="0 0 32 32" enable-background="new 0 0 32 32" xml:space="preserve">
  <g id="icon">
    <g>
      <path d="M12.073,1.981c1.642,1.464,2.498,4.38,2.503,4.407c0.053,0.263,0.274,0.454,0.53,0.454h15.346c0.067,0,0.134,-0.01,0.196,-0.036c0.257,-0.106,0.386,-0.374,0.345,-0.631C30.959,5.969,29.975,1,26.61,1H12.472C11.174,1,11.228,1.228,12.073,1.981z" fill="#EAB765"/>
      <path d="M25.912,8.138c-0.066,-0.258,-0.294,-0.463,-0.558,-0.463H14.686c-0.365,0,-0.682,-0.227,-0.771,-0.584c-0.464,-1.86,-1.247,-3.966,-3.538,-5.557c-0.157,-0.109,-0.357,-0.136,-0.535,-0.067c-0.943,0.365,-2.52,1.437,-2.52,4.519c0,1.217,0.521,2.589,1.266,4.054c3.931,0.4,7.008,3.718,7.008,7.738c0,2.465,-1.157,4.665,-2.957,6.092l1.217,2.163c4.337,0,12.791,0,12.861,0c0.179,0,4.117,-0.561,4.117,-5.715c-0.01,-1.552,-1.155,-3.79,-2.366,-6.16C27.437,12.143,26.372,9.93,25.912,8.138zM26.279,18c0.276,0,0.5,0.224,0.5,0.5s-0.224,0.5,-0.5,0.5H18.49c-0.276,0,-0.5,-0.224,-0.5,-0.5s0.224,-0.5,0.5,-0.5H26.279zM15.5,12.5c0,-0.276,0.224,-0.5,0.5,-0.5h8.011c0.276,0,0.5,0.224,0.5,0.5s-0.224,0.5,-0.5,0.5H16C15.724,13,15.5,12.776,15.5,12.5zM16.595,15.5c0,-0.276,0.224,-0.5,0.5,-0.5h8.011c0.276,0,0.5,0.224,0.5,0.5s-0.224,0.5,-0.5,0.5h-8.011C16.819,16,16.595,15.776,16.595,15.5zM26.874,22h-8.446c-0.276,0,-0.5,-0.224,-0.5,-0.5s0.224,-0.5,0.5,-0.5h8.446c0.276,0,0.5,0.224,0.5,0.5S27.15,22,26.874,22z" fill="#EAB765"/>
    </g>
    <path d="M18.49,18h7.789c0.276,0,0.5,0.224,0.5,0.5s-0.224,0.5,-0.5,0.5H18.49c-0.276,0,-0.5,-0.224,-0.5,-0.5S18.214,18,18.49,18zM24.511,12.5c0,-0.276,-0.224,-0.5,-0.5,-0.5H16c-0.276,0,-0.5,0.224,-0.5,0.5s0.224,0.5,0.5,0.5h8.011C24.287,13,24.511,12.776,24.511,12.5zM25.606,15.5c0,-0.276,-0.224,-0.5,-0.5,-0.5h-8.011c-0.276,0,-0.5,0.224,-0.5,0.5s0.224,0.5,0.5,0.5h8.011C25.382,16,25.606,15.776,25.606,15.5zM26.874,21h-8.446c-0.276,0,-0.5,0.224,-0.5,0.5s0.224,0.5,0.5,0.5h8.446c0.276,0,0.5,-0.224,0.5,-0.5S27.15,21,26.874,21z" fill="#FFFFFF"/>
    <path d="M7.789,11c3.76,0,6.807,3.035,6.807,6.778s-3.048,6.778,-6.807,6.778S0.982,21.522,0.982,17.778S4.029,11,7.789,11zM3.921,24.157l-2.61,4.638c-0.147,0.262,0.04,0.585,0.342,0.589l2.086,0.025l1.494,1.45c0.216,0.21,0.578,0.113,0.66,-0.176l1.546,-5.479C6.156,25.149,4.958,24.774,3.921,24.157zM11.643,24.139l2.62,4.656c0.147,0.262,-0.04,0.585,-0.342,0.589l-2.086,0.025l-1.494,1.45c-0.216,0.21,-0.578,0.113,-0.66,-0.176l-1.546,-5.481C9.415,25.14,10.61,24.76,11.643,24.139z" fill="#CD4C32"/>
  </g>
</svg>