<svg version="1.1" id="Layer_1" xmlns="http://www.w3.org/2000/svg" xmlns:xlink="http://www.w3.org/1999/xlink" x="0px" y="0px" width="32px" height="32px" viewBox="0 0 32 32" enable-background="new 0 0 32 32" xml:space="preserve">
  <g id="icon">
    <path d="M5.2469,5.247c-5.6626,5.6626,-5.6626,14.8435,0,20.5061c5.6626,5.6626,14.8435,5.6626,20.5061,0s5.6626,-14.8435,0,-20.5061C20.0904,-0.4156,10.9096,-0.4156,5.2469,5.247zM17.4778,8c0.0798,0,0.1563,0.0318,0.2126,0.0883l7.1365,7.1681c0.1166,0.1171,0.1165,0.3064,-0.0001,0.4234l-7.2047,7.2319c-0.0563,0.0565,-0.1328,0.0883,-0.2125,0.0883l-3.326,0c-0.2673,0,-0.4011,-0.3231,-0.2121,-0.5121L19.3593,17L7.3,17c-0.1657,0,-0.3,-0.1343,-0.3,-0.3v-2.4c0,-0.1657,0.1343,-0.3,0.3,-0.3l12.1296,0l-5.4879,-5.4879c-0.189,-0.189,-0.0551,-0.5121,0.2121,-0.5121H17.4778z" fill-rule="evenodd" fill="#797979"/>
    <path d="M19.4296,14L7.3,14c-0.1657,0,-0.3,0.1343,-0.3,0.3v2.4c0,0.1657,0.1343,0.3,0.3,0.3l12.0593,0l-5.4879,5.4879c-0.189,0.189,-0.0551,0.5121,0.2121,0.5121l3.326,0c0.0798,0,0.1562,-0.0318,0.2125,-0.0883l7.2047,-7.2319c0.1166,-0.117,0.1166,-0.3063,0.0001,-0.4234l-7.1365,-7.1681c-0.0563,-0.0565,-0.1328,-0.0883,-0.2126,-0.0883h-3.3239c-0.2673,0,-0.4011,0.3231,-0.2121,0.5121L19.4296,14z" fill-rule="evenodd" fill="#FFFFFF"/>
  </g>
</svg>
