<svg version="1.1" id="Layer_1" xmlns="http://www.w3.org/2000/svg" xmlns:xlink="http://www.w3.org/1999/xlink" x="0px" y="0px" width="32px" height="32px" viewBox="0 0 32 32" enable-background="new 0 0 32 32" xml:space="preserve">
  <g id="icon">
    <circle cx="16" cy="16" r="13.733" fill="#FFFFFF"/>
    <path d="M16.017,1C7.723,1,1,7.723,1,16.017s6.723,15.017,15.017,15.017s15.017,-6.723,15.017,-15.017S24.31,1,16.017,1zM16,2.267c7.585,0,13.733,6.149,13.733,13.733c0,2.983,-0.952,5.744,-2.567,7.996c-0.742,-1.648,-2.308,-2,-6.9,-3.647c-0.832,-0.317,-1.066,-0.774,-1.004,-1.425c1.607,-1.95,2.575,-5.106,2.575,-7.312c0,-3.416,-1.148,-5.58,-5.849,-5.58c-4.701,0,-5.754,2.164,-5.754,5.58c0,2.206,0.964,5.355,2.571,7.305c0.062,0.651,-0.174,1.111,-1.006,1.428c-4.642,1.665,-6.193,2.008,-6.925,3.702C3.234,21.787,2.267,19.007,2.267,16C2.267,8.415,8.415,2.267,16,2.267z" fill="#797979"/>
  </g>
</svg>
