<svg version="1.1" id="Layer_1" xmlns="http://www.w3.org/2000/svg" xmlns:xlink="http://www.w3.org/1999/xlink" x="0px" y="0px" width="32px" height="32px" viewBox="0 0 32 32" enable-background="new 0 0 32 32" xml:space="preserve">
  <g id="icon">
    <path d="M16,1C7.716,1,1,7.716,1,16s6.716,15,15,15s15,-6.716,15,-15S24.284,1,16,1zM14.8,5.675c0,-0.152,0.123,-0.275,0.275,-0.275h1.85c0.152,0,0.275,0.123,0.275,0.275v11.05c0,0.152,-0.123,0.275,-0.275,0.275h-1.85c-0.152,0,-0.275,-0.123,-0.275,-0.275V5.675zM16,26C16,26,16,26,16,26c-0.046,0,-0.091,0,-0.137,-0.001c-5.271,-0.074,-9.516,-4.424,-9.462,-9.698c0.02,-1.96,0.627,-3.84,1.755,-5.436c1.104,-1.561,2.627,-2.748,4.405,-3.43c0.021,-0.008,0.043,-0.012,0.065,-0.012c0.084,0,0.174,0.066,0.174,0.172v2.09c0,0.066,-0.036,0.127,-0.092,0.155C10.211,11.095,8.66,13.609,8.66,16.4c0,4.047,3.293,7.34,7.34,7.34c0,0,0,0,0,0c0.059,0,0.118,-0.001,0.177,-0.002c3.886,-0.092,7.099,-3.329,7.161,-7.217c0.046,-2.841,-1.504,-5.401,-4.044,-6.679c-0.059,-0.03,-0.095,-0.087,-0.095,-0.149V7.595c0,-0.106,0.09,-0.172,0.174,-0.172c0.022,0,0.044,0.004,0.065,0.012c1.794,0.688,3.326,1.887,4.432,3.468C25.002,12.519,25.6,14.42,25.6,16.4C25.6,21.693,21.293,26,16,26z" fill="#797979"/>
    <path d="M15.999,26c-0.046,0,-0.091,0,-0.136,-0.001c-5.271,-0.074,-9.516,-4.424,-9.462,-9.698c0.02,-1.96,0.627,-3.84,1.755,-5.436c1.104,-1.561,2.627,-2.748,4.405,-3.43c0.021,-0.008,0.043,-0.012,0.065,-0.012c0.084,0,0.174,0.066,0.174,0.172v2.09c0,0.066,-0.036,0.127,-0.092,0.155C10.211,11.095,8.66,13.609,8.66,16.4c0,4.047,3.293,7.34,7.34,7.34c0,0,0,0,0,0c0.059,0,0.118,-0.001,0.177,-0.002c3.886,-0.092,7.099,-3.329,7.161,-7.217c0.046,-2.841,-1.504,-5.401,-4.044,-6.679c-0.059,-0.03,-0.095,-0.087,-0.095,-0.149V7.595c0,-0.106,0.09,-0.172,0.174,-0.172c0.022,0,0.044,0.004,0.065,0.012c1.794,0.688,3.326,1.887,4.432,3.468C25.002,12.519,25.6,14.42,25.6,16.4C25.6,21.693,21.293,26,15.999,26C16,26,16,26,15.999,26zM15.075,17c-0.152,0,-0.275,-0.123,-0.275,-0.275V5.675c0,-0.152,0.123,-0.275,0.275,-0.275h1.85c0.152,0,0.275,0.123,0.275,0.275v11.05c0,0.152,-0.123,0.275,-0.275,0.275H15.075z" fill="#FFFFFF"/>
  </g>
</svg>
