<!DOCTYPE svg PUBLIC "-//W3C//DTD SVG 1.1//EN" "http://www.w3.org/Graphics/SVG/1.1/DTD/svg11.dtd">
<svg version="1.1" id="Layer_1" xmlns="http://www.w3.org/2000/svg" xmlns:xlink="http://www.w3.org/1999/xlink" x="0px" y="0px" width="32px" height="32px" viewBox="0 0 32 32" enable-background="new 0 0 32 32" xml:space="preserve">
  <g id="icon">
    <path d="M9.1231,13.3407c-2.3474,3.2995,-3.9305,6.2669,-7.579,7.8688s13.7156,11.8643,17.5414,9.2467c1.6918,-1.1575,3.3534,-3.348,5.3361,-6.1349c0.0153,-0.0215,0.0295,-0.0435,0.0428,-0.066L9.1231,13.3407z" fill="#EAB765"/>
    <path d="M26.1102,21.8384c0.5635,-1.1854,-0.4557,-1.9249,-1.3268,-2.5693c-1.0538,-0.7795,-3.2421,-2.0853,-2.0464,-3.5842c1.5584,-1.9535,3.8599,-3.2312,5.6713,-4.9149c1.8506,-1.7201,3.3849,-4.3372,1.8871,-6.782c-0.4756,-0.7763,-1.0153,-1.3479,-1.6677,-1.7871c-0.6062,-0.4562,-1.3434,-0.7947,-2.2328,-0.9895c-2.8007,-0.6133,-4.7681,1.6932,-5.7863,4.0055c-0.9967,2.2633,-1.4466,4.8539,-2.7811,6.9666c-1.0239,1.6211,-2.9737,-0.0258,-4.0556,-0.7657c-0.8945,-0.6117,-1.9353,-1.3205,-2.8704,-0.3995c-0.2327,0.2292,-0.5202,0.5846,-0.8925,1.0917l7.6812,5.4647l7.6814,5.4648C25.7286,22.5216,25.97,22.1333,26.1102,21.8384zM25.1979,7.0219c-0.8492,-0.6042,-1.0479,-1.7823,-0.4437,-2.6315c0.6042,-0.8492,1.7823,-1.0479,2.6315,-0.4437c0.8492,0.6042,1.0479,1.7823,0.4437,2.6315C27.2253,7.4274,26.0471,7.626,25.1979,7.0219z" fill="#797979"/>
    <rect x="7.8318" y="17.3833" width="18.8704" height="1.5725" fill="#E6E7E8" transform="matrix(0.8148 0.5797 -0.5797 0.8148 13.7303 -6.64522)"/>
  </g>
</svg>