<svg version="1.1" id="Layer_1" xmlns="http://www.w3.org/2000/svg" xmlns:xlink="http://www.w3.org/1999/xlink" x="0px" y="0px" width="32px" height="32px" viewBox="0 0 32 32" enable-background="new 0 0 32 32" xml:space="preserve">
  <g id="icon">
    <path d="M28.8075,2c-3.7967,0,-23.0951,0,-26.8116,0c-1.2344,0,-0.745,1.5241,-0.745,1.5241L13,16v14h5l-0.0235,-13.9918L29.5881,3.5241C29.5881,3.5241,30.1359,2,28.8075,2zM17,15.2648V29h-1V15.2648L21.5,3.6c0,0,4.1212,0,4.2044,0C25.8912,3.6,17,15.2648,17,15.2648z" fill-rule="evenodd" fill="#797979"/>
    <path d="M16,15.2648L21.5,3.6c0,0,4.1212,0,4.2044,0C25.8913,3.6,17,15.2648,17,15.2648v13.7701h-1V15.2648z" fill-rule="evenodd" fill="#FFFFFF"/>
  </g>
</svg>