<svg version="1.1" id="Layer_1" xmlns="http://www.w3.org/2000/svg" xmlns:xlink="http://www.w3.org/1999/xlink" x="0px" y="0px" width="32px" height="32px" viewBox="0 0 32 32" enable-background="new 0 0 32 32" xml:space="preserve">
  <g id="main">
    <g id="icon">
      <path d="M0.6096,1.065L0.3588,1.238L0.2178,1.482L0.1605,1.762L0.1938,2.286L0.251,2.524L12,15L12,29L17,29L17,27.32L16,26.3L16,28L15,28L15,14.26L20.5,2.6L24.7,2.6L24.38,3.101L23.42,4.423L20.42,8.432L16,14.26L16,23.02L16.99,22.01L16.98,15.01L28.59,2.524L28.65,2.286L28.7,1.762L28.64,1.482L28.49,1.238L28.22,1.065L27.81,1L0.9959,1zz" fill-rule="evenodd" fill="#797979"/>
      <path d="M15,14.26L15,28.03L16,28.03L16,26.3L15.43,25.72L15.24,25.48L15.11,25.22L15.03,24.94L15,24.66L15.03,24.37L15.11,24.09L15.24,23.83L15.43,23.6L16,23.02L16,14.26L20.42,8.432L23.42,4.423L24.38,3.101L24.7,2.6L20.5,2.6zz" fill-rule="evenodd" fill="#FFFFFF"/>
    </g>
    <g id="overlay">
      <path d="M31.853,20.721l-1.855,-1.895c-0.202,-0.206,-0.534,-0.207,-0.736,-0.001l-7.057,7.152l-3.477,-3.56c-0.202,-0.207,-0.535,-0.207,-0.738,0l-1.842,1.881c-0.196,0.201,-0.196,0.521,0,0.722l5.692,5.824c0.202,0.207,0.534,0.207,0.737,0.002l9.276,-9.401C32.049,21.245,32.05,20.923,31.853,20.721z" fill-rule="evenodd" fill="#4EA17E"/>
    </g>
  </g>
</svg>