<svg version="1.1" id="Layer_1" xmlns="http://www.w3.org/2000/svg" xmlns:xlink="http://www.w3.org/1999/xlink" x="0px" y="0px" width="16px" height="16px" viewBox="0 0 16 16" enable-background="new 0 0 16 16" xml:space="preserve">
  <g id="main">
    <g id="icon">
      <path d="M0.3518,0.02539L0.2127,0.09238L0.1346,0.1873L0.1029,0.2959L0.1213,0.4992L0.1529,0.5918L5,7.392L5,15L7.721,15L5.864,13.05L5.704,12.85L5.59,12.62L5.499,12.14L5.591,11.66L5.705,11.44L5.865,11.23L6.959,10.09L7,10.05L7,7.306L9.5,1L12.16,1.018L11.56,2L10.12,4.162L8,7.306L8,9.694L8.163,9.711L8.413,9.79L8.643,9.917L8.844,10.09L9,10.25L9,7.374L13.97,0.5918L14,0.4992L14.03,0.2959L14,0.1873L13.91,0.09238L13.77,0.02539L13.54,0L0.5658,0zz" fill-rule="evenodd" fill="#797979"/>
      <path d="M7,7.306L7,10.05L7.16,9.916L7.389,9.789L7.639,9.711L7.901,9.684L8,9.694L8,7.306L10.12,4.162L11.56,2L12.16,1.018L9.5,1zz" fill-rule="evenodd" fill="#FFFFFF"/>
    </g>
    <g id="overlay">
      <path d="M15.913,9.747l-1.101,-1.153c-0.12,-0.125,-0.317,-0.126,-0.437,-0.001l-4.19,4.351l-2.065,-2.166c-0.12,-0.126,-0.318,-0.126,-0.438,0l-1.094,1.144c-0.117,0.122,-0.117,0.317,0,0.439l3.38,3.543c0.12,0.126,0.317,0.126,0.437,0.001l5.508,-5.719C16.029,10.065,16.029,9.869,15.913,9.747z" fill-rule="evenodd" fill="#4EA17E"/>
    </g>
  </g>
</svg>