<svg version="1.1" id="Layer_1" xmlns="http://www.w3.org/2000/svg" xmlns:xlink="http://www.w3.org/1999/xlink" x="0px" y="0px" width="16px" height="16px" viewBox="0 0 16 16" enable-background="new 0 0 16 16" xml:space="preserve">
  <g id="icon">
    <path d="M8,16c4.4183,0,8,-3.5817,8,-8c0,-4.4183,-3.5817,-8,-8,-8S0,3.5817,0,8C0,12.4183,3.5817,16,8,16zM9,4.5c0,0.2761,-0.2239,0.5,-0.5,0.5H7.5c-0.2761,0,-0.5,-0.2239,-0.5,-0.5V3.5c0,-0.2761,0.2239,-0.5,0.5,-0.5h1c0.2761,0,0.5,0.2239,0.5,0.5V4.5zM9,12.5c0,0.2761,-0.2239,0.5,-0.5,0.5H7.5c-0.2761,0,-0.5,-0.2239,-0.5,-0.5V6.5c0,-0.2761,0.2239,-0.5,0.5,-0.5h1c0.2761,0,0.5,0.2239,0.5,0.5V12.5z" fill-rule="evenodd" fill="#3E79B4"/>
    <path d="M7.5,6h1c0.2761,0,0.5,0.2239,0.5,0.5v6c0,0.2761,-0.2239,0.5,-0.5,0.5H7.5c-0.2761,0,-0.5,-0.2239,-0.5,-0.5V6.5C7,6.2239,7.2239,6,7.5,6zM7,3.5v1c0,0.2761,0.2239,0.5,0.5,0.5h1c0.2761,0,0.5,-0.2239,0.5,-0.5V3.5c0,-0.2761,-0.2239,-0.5,-0.5,-0.5H7.5C7.2239,3,7,3.2239,7,3.5z" fill-rule="evenodd" fill="#FFFFFF"/>
  </g>
</svg>