<svg version="1.1" id="Layer_1" xmlns="http://www.w3.org/2000/svg" xmlns:xlink="http://www.w3.org/1999/xlink" x="0px" y="0px" width="32px" height="32px" viewBox="0 0 32 32" enable-background="new 0 0 32 32" xml:space="preserve">
  <g id="icon">
    <g>
      <path d="M3.61,14h23.357c1.195,0,2.167,0.972,2.167,2.167v0.667c0,1.195,-0.972,2.167,-2.167,2.167H3.61c0.647,-1.01,0.824,-1.111,0.824,-2.4S4.257,15.01,3.61,14z" fill="#FFFFFF"/>
      <path d="M3,21h23.867c2.298,0,4.167,-1.869,4.167,-4.167v-0.667c0,-2.298,-1.869,-4.167,-4.167,-4.167H3v2h23.867c1.195,0,2.167,0.972,2.167,2.167v0.667c0,1.195,-0.972,2.167,-2.167,2.167H3V21z" fill="#6D6E71"/>
      <path d="M4.134,15H27.36c0.302,0.128,0.545,0.371,0.673,0.673V16H4.457C4.376,15.655,4.268,15.321,4.134,15zM4.134,18H27.36c0.302,-0.128,0.545,-0.371,0.673,-0.673V17H4.457C4.376,17.345,4.268,17.679,4.134,18z" fill="#B4B4B5"/>
    </g>
    <g>
      <path d="M29.424,25H6.067C4.872,25,3.9,25.972,3.9,27.167v0.667C3.9,29.028,4.872,30,6.067,30h23.357c-0.647,-1.01,-0.824,-1.111,-0.824,-2.4S28.776,26.01,29.424,25z" fill="#FFFFFF"/>
      <path d="M30.033,32H6.167C3.869,32,2,30.131,2,27.833v-0.667C2,24.869,3.869,23,6.167,23h23.867v2H6.167C4.972,25,4,25.972,4,27.167v0.667C4,29.028,4.972,30,6.167,30h23.867V32z" fill="#6D6E71"/>
      <path d="M28.576,27H5v-0.327c0.128,-0.302,0.371,-0.545,0.673,-0.673h23.225C28.765,26.321,28.657,26.655,28.576,27zM28.576,28H5v0.327c0.128,0.302,0.371,0.545,0.673,0.673h23.225C28.765,28.679,28.657,28.345,28.576,28z" fill="#B4B4B5"/>
    </g>
    <g>
      <path d="M28.424,3H6.067C4.872,3,3.9,3.972,3.9,5.167v0.667C3.9,7.028,4.872,8,6.067,8h22.357C27.776,6.99,27.6,6.889,27.6,5.6S27.776,4.01,28.424,3z" fill="#FFFFFF"/>
      <path d="M29.033,10H6.167C3.869,10,2,8.131,2,5.833v-0.667C2,2.869,3.869,1,6.167,1h22.867v2H6.167C4.972,3,4,3.972,4,5.167v0.667C4,7.028,4.972,8,6.167,8h22.867V10z" fill="#6D6E71"/>
      <path d="M27.576,5H5v-0.327c0.128,-0.302,0.371,-0.545,0.673,-0.673h22.225C27.765,4.321,27.657,4.655,27.576,5zM27.576,6H5v0.327c0.128,0.302,0.371,0.545,0.673,0.673h22.225C27.765,6.679,27.657,6.345,27.576,6z" fill="#B4B4B5"/>
    </g>
  </g>
</svg>