<svg version="1.1" id="Layer_1" xmlns="http://www.w3.org/2000/svg" xmlns:xlink="http://www.w3.org/1999/xlink" x="0px" y="0px" width="16px" height="16px" viewBox="0 0 16 16" enable-background="new 0 0 16 16" xml:space="preserve">
  <g id="icon">
    <g>
      <path d="M14.4,13c0,-0.563,0.086,-0.582,0.4,-1H2.65c-0.359,0,-0.65,0.291,-0.65,0.65v0.7c0,0.359,0.291,0.65,0.65,0.65H14.8C14.486,13.582,14.4,13.563,14.4,13z" fill="#FFFFFF"/>
      <path d="M15,15H2.65c-0.911,0,-1.65,-0.739,-1.65,-1.65v-0.7c0,-0.911,0.739,-1.65,1.65,-1.65H15v1H2.65c-0.359,0,-0.65,0.291,-0.65,0.65v0.7c0,0.359,0.291,0.65,0.65,0.65H15V15z" fill="#6D6E71"/>
      <path d="M14.3,13c0,-0.171,0.017,-0.338,0.05,-0.5H2.921c-0.013,0.025,-0.021,0.053,-0.021,0.083v0.833c0,0.03,0.008,0.058,0.021,0.083H14.35C14.317,13.338,14.3,13.171,14.3,13z" fill="#B4B4B5"/>
    </g>
    <g>
      <path d="M1.6,8c0,-0.563,-0.086,-0.582,-0.4,-1h12.15c0.359,0,0.65,0.291,0.65,0.65v0.7c0,0.359,-0.291,0.65,-0.65,0.65H1.2C1.514,8.582,1.6,8.563,1.6,8z" fill="#FFFFFF"/>
      <path d="M1,10h12.35c0.911,0,1.65,-0.739,1.65,-1.65v-0.7c0,-0.911,-0.739,-1.65,-1.65,-1.65H1v1h12.35c0.359,0,0.65,0.291,0.65,0.65v0.7c0,0.359,-0.291,0.65,-0.65,0.65H1V10z" fill="#6D6E71"/>
      <path d="M1.7,8c0,-0.171,-0.017,-0.338,-0.05,-0.5h11.429c0.013,0.025,0.021,0.053,0.021,0.083v0.833c0,0.03,-0.008,0.058,-0.021,0.083H1.65C1.683,8.338,1.7,8.171,1.7,8z" fill="#B4B4B5"/>
    </g>
    <g>
      <path d="M14.4,3c0,-0.563,0.086,-0.582,0.4,-1H3.65c-0.359,0,-0.65,0.291,-0.65,0.65v0.7c0,0.359,0.291,0.65,0.65,0.65H14.8C14.486,3.582,14.4,3.563,14.4,3z" fill="#FFFFFF"/>
      <path d="M15,5H3.65C2.739,5,2,4.261,2,3.35v-0.7C2,1.739,2.739,1,3.65,1H15v1H3.65c-0.359,0,-0.65,0.291,-0.65,0.65v0.7c0,0.359,0.291,0.65,0.65,0.65H15V5z" fill="#6D6E71"/>
      <path d="M14.3,3c0,-0.171,0.017,-0.338,0.05,-0.5H3.921C3.908,2.525,3.9,2.553,3.9,2.583v0.833c0,0.03,0.008,0.058,0.021,0.083H14.35C14.317,3.338,14.3,3.171,14.3,3z" fill="#B4B4B5"/>
    </g>
  </g>
</svg>