<svg version="1.1" id="Layer_1" xmlns="http://www.w3.org/2000/svg" xmlns:xlink="http://www.w3.org/1999/xlink" x="0px" y="0px" width="16px" height="16px" viewBox="0 0 16 16" enable-background="new 0 0 16 16" xml:space="preserve">
  <g id="icon">
    <path d="M7.6093,16c-2.0228,0,-3.9156,-0.8007,-5.3297,-2.2547C-0.498,10.8892,-0.4925,6.2365,2.2919,3.3736C3.706,1.9195,5.6096,1.1188,7.652,1.1188c1.6303,0,3.4359,0.7296,4.944,1.9215l0.404,0.3566V0.2424c0,-0.1478,0.2278,-0.2259,0.3379,-0.1272l1.6054,1.4137c0.0361,0.0324,0.0568,0.0787,0.0568,0.1272V6.8c0,0.1025,-0.0831,0.1856,-0.1856,0.1856L9.8054,7c-0.0373,0,-0.0734,-0.076,-0.1019,-0.1L7.8022,5.2792C7.6893,5.1842,7.7566,5,7.9042,5L11.5,5.0011l-1.255,-0.8731l-0.0034,-0.002c-0.796,-0.4711,-1.709,-0.7201,-2.6403,-0.7201c-1.4181,0,-2.7456,0.5729,-3.7381,1.613c-1.9148,2.0071,-1.9147,5.1516,0,7.1587c1.0193,1.0683,2.3473,1.6567,3.7395,1.6567c1.345,0,2.6425,-0.5567,3.6534,-1.5676c0.6979,-0.698,1.1802,-1.5967,1.3948,-2.599c0.0292,-0.1365,0.1525,-0.2355,0.2932,-0.2355c0.0136,0,0.0274,0.0009,0.0409,0.0028l0.2545,0.0344c0.4445,0.0602,1.0217,0.1383,1.4082,0.1919c0.0524,0.0073,0.1031,0.0265,0.1439,0.0601c0.0927,0.0766,0.1317,0.1891,0.1095,0.3011c-0.2854,1.4399,-0.9886,2.7533,-2.0336,3.7983C11.4623,15.2261,9.5949,16,7.6093,16z" fill="#3e79b4"/>
  </g>
</svg>