<svg xmlns="http://www.w3.org/2000/svg" xmlns:xlink="http://www.w3.org/1999/xlink"  viewBox="0 0 198 198">
  <defs>
    <linearGradient id="a" x1="46.945%" x2="46.945%" y1="-7.3%" y2="100%">
      <stop offset="0%" stop-color="#59CF32"/>
      <stop offset="100%" stop-color="#19A260"/>
    </linearGradient>
    <linearGradient id="b" x1="-5.943%" x2="104.924%" y1="66.833%" y2="25.642%">
      <stop offset="0%" stop-color="#D32C3E"/>
      <stop offset="100%" stop-color="#DF5549"/>
    </linearGradient>
    <linearGradient id="e" x1="50%" x2="50%" y1="0%" y2="100%">
      <stop offset="0%" stop-color="#F5FD38"/>
      <stop offset="100%" stop-color="#FFD900"/>
    </linearGradient>
    <path id="d" d="M71.632449,109.020591 C77.753929,122.579951 93.864823,128.684615 107.625267,122.653255 C121.383648,116.623932 127.57523,100.743253 121.459935,87.1818566 C116.940473,77.1716731 106.973738,71.2237996 96.5307285,71.2237996 C92.8277383,71.2237996 89.0649559,71.9711018 85.4691792,73.5471559 C71.704612,79.5764792 65.5150927,95.4612313 71.632449,109.020591"/>
    <filter id="c" width="156.8%" height="157.7%" x="-28.4%" y="-21.4%" filterUnits="objectBoundingBox">
      <feOffset dy="4" in="SourceAlpha" result="shadowOffsetOuter1"/>
      <feGaussianBlur in="shadowOffsetOuter1" result="shadowBlurOuter1" stdDeviation="4.5"/>
      <feColorMatrix in="shadowBlurOuter1" values="0 0 0 0 0.247058824 0 0 0 0 0.22745098 0 0 0 0 0.0117647059 0 0 0 0.08 0"/>
    </filter>
  </defs>
  <g fill="none" fill-rule="evenodd" transform="translate(2)">
    <path fill="url(#a)" d="M113.398921,85.9835261 C119.035878,80.9987968 141.46,62.3549318 149.480396,57.4760873 C188.396844,33.8047318 206.736542,89.522521 166.319105,95.8247012 C146.732019,98.8790696 127.144932,100.237245 116.835939,100.915315 C113.487578,101.137266 111.042285,88.1989613 113.398921,85.9835261 Z M80.0668546,80.4693729 C77.2545614,77.9729358 55.89639,58.2457881 47.4223979,46.6167893 C37.2659782,32.6827605 40.4638278,15.9509301 53.8655184,9.5408289 C70.359907,1.65037708 85.5656714,10.8134824 88.8294985,26.0853246 C90.9778926,36.1321606 94.8581975,70.0152878 95.3592146,75.4642811 C96.7406196,90.4978826 85.1656825,84.9939107 80.0668546,80.4693729 Z M151.11334,40.3380259 C145.358861,52.4760861 125.88105,71.1403135 113.056663,82.9301757 C107.197031,88.3160454 98.7828311,82.4231506 98.6240726,80.2138241 C97.1622574,60.0224124 94.5004755,31.343929 97.248853,20.8246841 C101.731203,3.66931462 121.474986,-3.95031652 136.862189,2.16045661 C151.315397,7.8985968 158.19768,25.391983 151.11334,40.3380259 Z M46.6310796,57.3229616 C62.1110633,68.7605533 71.4633816,76.3822207 78.8631766,83.2688034 C84.3784878,88.4001424 80.0631434,94.9507446 75.2550291,95.4862772 C57.7297413,97.4370005 39.8621949,98.8806986 29.5532021,98.8806986 C4.2487483,98.8806986 -3.63350761,81.4789435 1.54573038,66.7243077 C8.24657572,47.6345049 29.6934044,44.8081959 46.6310796,57.3229616 Z M96.5612431,165.821663 C97.2869962,188.741644 80.7142594,201.234011 64.1435843,197.173737 C46.3049031,192.801917 39.2597374,173.457584 48.7955558,156.913088 C55.2572325,145.703556 83.1595525,114.406461 87.0254248,110.079439 C88.6872344,108.21831 93.1139159,116.353112 93.4458655,120.539633 C93.8623488,125.817581 96.0457935,149.531698 96.5612431,165.821663 Z M124.051203,102.952579 C137.108574,103.292632 147.759825,102.681758 164.600596,103.630649 C188.653538,104.988825 198.962531,123.315035 190.028758,140.28307 C183.070187,153.504413 162.881056,159.289387 144.669189,143.677492 C126.090322,127.752015 118.036937,119.242544 111.336092,112.455737 C108.200096,109.277158 114.418481,102.702121 124.051203,102.952579 Z M109.790774,114.831018 C115.718445,121.194285 128.51809,134.515404 139.171403,147.410948 C149.121643,159.455341 152.109189,177.7225 136.423026,185.081492 C122.677015,191.530282 107.250638,185.971331 102.745608,163.36086 C98.6220108,142.660387 96.5437178,125.299357 96.2179537,121.617825 C95.9251783,118.329288 107.997009,112.90473 109.790774,114.831018 Z"/>
    <path fill="url(#b)" d="M79.0359553,97.8619649 C70.3640306,98.7008981 40.3648614,102.038305 28.5218905,107.02507 C-4.72461141,121.024259 25.1054902,163.938136 49.1398761,144.017545 C68.3826421,128.065596 83.7430414,110.240302 87.2831496,105.328878 C87.2831496,105.328878 87.4151047,97.8619649 79.0359553,97.8619649"/>
    <use fill="black" filter="url(#c)" xlink:href="#d"/>
    <use fill="url(#e)" xlink:href="#d"/>
  </g>
</svg>