<svg version="1.1" id="Layer_1" xmlns="http://www.w3.org/2000/svg" xmlns:xlink="http://www.w3.org/1999/xlink" x="0px" y="0px" width="32px" height="32px" viewBox="0 0 32 32" enable-background="new 0 0 32 32" xml:space="preserve">
  <g id="main">
    <g id="icon">
      <path d="M0.734,0.09473L0.3525,0.3525L0.09473,0.734L0,1.2L0,12.8L0.09473,13.27L0.3525,13.65L0.734,13.91L1.2,14L12.8,14L13.27,13.91L13.65,13.65L13.91,13.27L14,12.8L14,1.2L13.91,0.734L13.65,0.3525L13.27,0.09473L12.8,0L1.2,0zM11.32,2L11.58,2.054L11.8,2.2L11.95,2.417L12,2.683L12,11.32L12,11.32L11.95,11.58L11.8,11.8L11.58,11.95L11.32,12L2.683,12L2.417,11.95L2.2,11.8L2.054,11.58L2,11.32L2,2.683L2.054,2.417L2.2,2.2L2.417,2.054L2.683,2zz" fill="#3E79B4"/>
      <path d="M2.5,11.5L11.5,11.5L11.5,2.5L2.5,2.5zz" fill="#C2D3E6"/>
      <path d="M2.183,2.113L2.01,2.402L2,2.5L2,11.5L2.113,11.82L2.402,11.99L2.5,12L11.5,12L11.82,11.89L11.99,11.6L12,11.5L12,2.5L11.89,2.183L11.6,2.01L11.5,2L2.5,2zM11,3L11,11L3,11L3,3zz" fill="#FFFFFF"/>
      <path d="M17.31,0.0334L17,0.1289L16.72,0.2799L16.48,0.4799L16.28,0.7217L16.13,0.9992L16.03,1.305L16,1.633L16,12.37L16.03,12.69L16.13,13L16.28,13.28L16.48,13.52L16.72,13.72L17,13.87L17.31,13.97L17.63,14L28.37,14L28.69,13.97L29,13.87L29.28,13.72L29.52,13.52L29.72,13.28L29.87,13L29.97,12.69L30,12.37L30,1.633L29.97,1.305L29.87,0.9992L29.72,0.7217L29.52,0.4799L29.28,0.2799L29,0.1289L28.69,0.0334L28.37,0L17.63,0zM28.57,1L28.74,1.034L28.87,1.127L28.97,1.265L29,1.433L29,12.57L28.97,12.74L28.87,12.87L28.74,12.97L28.57,13L17.43,13L17.26,12.97L17.13,12.87L17.03,12.74L17,12.57L17,1.433L17.03,1.265L17.13,1.127L17.26,1.034L17.43,1zz" fill="#B4B4B5"/>
      <path d="M1.305,16.03L0.9992,16.13L0.7217,16.28L0.4799,16.48L0.2799,16.72L0.1289,17L0.0334,17.31L0,17.63L0,28.37L0.0334,28.69L0.1289,29L0.2799,29.28L0.4799,29.52L0.7217,29.72L0.9992,29.87L1.305,29.97L1.633,30L12.37,30L12.69,29.97L13,29.87L13.28,29.72L13.52,29.52L13.72,29.28L13.87,29L13.97,28.69L14,28.37L14,17.63L13.97,17.31L13.87,17L13.72,16.72L13.52,16.48L13.28,16.28L13,16.13L12.69,16.03L12.37,16L1.633,16zM12.57,17L12.74,17.03L12.87,17.13L12.97,17.26L13,17.43L13,28.57L12.97,28.74L12.87,28.87L12.74,28.97L12.57,29L1.433,29L1.265,28.97L1.127,28.87L1.034,28.74L1,28.57L1,17.43L1.034,17.26L1.127,17.13L1.265,17.03L1.433,17zz" fill="#B4B4B5"/>
      <path d="M16.73,16.09L16.35,16.35L16.09,16.73L16,17.2L16,28.8L16.09,29.27L16.35,29.65L16.73,29.91L17.2,30L21.62,30L20.92,28L18.68,28L18.42,27.95L18.2,27.8L18.05,27.58L18,27.32L18,19.4L17.99,19.36L18,19.21L18,18.68L18.05,18.42L18.2,18.2L18.42,18.05L18.68,18L27.32,18L27.58,18.05L27.8,18.2L27.95,18.42L28,18.68L28,20.94L30,21.63L30,17.2L29.91,16.73L29.65,16.35L29.27,16.09L28.8,16L17.2,16zz" fill="#3E79B4"/>
      <path d="M27.5,20.77L27.5,18.5L20.89,18.5zM18.5,27.5L20.75,27.5L18.5,21.02zz" fill="#C2D3E6"/>
      <path d="M18.18,18.11L18.01,18.4L18,18.5L18,19.21L18.01,18.93L18.08,18.71L18.2,18.5L18.39,18.29L18.62,18.14L18.89,18.04L19.18,18.01L19.57,18.06L20.08,18.22L22.34,19L27,19L27,20.6L28,20.94L28,18.5L27.89,18.18L27.6,18.01L27.5,18L18.5,18zM18,27.5L18.11,27.82L18.4,27.99L18.5,28L20.92,28L20.57,27L19,27L19,22.46L18.18,20.1L18.07,19.77L18,19.4zz" fill="#FFFFFF"/>
      <path d="M17.36,1.046L17.17,1.171L17.05,1.356L17,1.583L17,12.42L17.05,12.64L17.17,12.83L17.36,12.95L17.58,13L28.42,13L28.64,12.95L28.83,12.83L28.95,12.64L29,12.42L29,1.583L28.95,1.356L28.83,1.171L28.64,1.046L28.42,1L17.58,1zz" fill="#FFFFFF"/>
      <path d="M1.356,17.05L1.171,17.17L1.046,17.36L1,17.58L1,28.42L1.046,28.64L1.171,28.83L1.356,28.95L1.583,29L12.42,29L12.64,28.95L12.83,28.83L12.95,28.64L13,28.42L13,17.58L12.95,17.36L12.83,17.17L12.64,17.05L12.42,17L1.583,17zz" fill="#FFFFFF"/>
    </g>
    <g id="overlay">
      <path d="M31.1164,23.0652L19.7393,19.164c-0.7781,-0.302,-0.8981,-0.192,-0.6131,0.6123l3.9343,11.3364c0.324,0.8383,0.7476,0.8402,1.2737,-0.0174l1.9822,-3.2436l4.1129,4.0748c0.4253,0.4248,1.9208,-1.113,1.4955,-1.5378l-4.0726,-4.071l3.247,-1.98C32.0318,23.7335,32.0318,23.3892,31.1164,23.0652z" fill="#797979"/>
    </g>
  </g>
</svg>