<svg version="1.1" id="Layer_1" xmlns="http://www.w3.org/2000/svg" xmlns:xlink="http://www.w3.org/1999/xlink" x="0px" y="0px" width="16px" height="16px" viewBox="0 0 16 16" enable-background="new 0 0 16 16" xml:space="preserve">
  <g id="main">
    <g id="icon">
      <path d="M1.305,0.0334L0.9992,0.1289L0.7217,0.2799L0.4799,0.4799L0.2799,0.7217L0.1289,0.9992L0.0334,1.305L0,1.633L0,5.367L0.0334,5.695L0.1289,6.001L0.2799,6.278L0.4799,6.52L0.7217,6.72L0.9992,6.871L1.305,6.967L1.633,7L5.367,7L5.695,6.967L6.001,6.871L6.278,6.72L6.52,6.52L6.72,6.278L6.871,6.001L6.967,5.695L7,5.367L7,1.633L6.967,1.305L6.871,0.9992L6.72,0.7217L6.52,0.4799L6.278,0.2799L6.001,0.1289L5.695,0.0334L5.367,0L1.633,0zM4.6,2L4.756,2.031L4.883,2.117L4.969,2.244L5,2.4L5,4.6L4.969,4.756L4.883,4.883L4.756,4.969L4.6,5L2.4,5L2.244,4.969L2.117,4.883L2.031,4.756L2,4.6L2,2.4L2.031,2.244L2.117,2.117L2.244,2.031L2.4,2zz" fill="#3E79B4"/>
      <path d="M2.244,2.031L2.117,2.117L2.031,2.244L2,2.4L2,4.6L2.031,4.756L2.117,4.883L2.244,4.969L2.4,5L4.6,5L4.756,4.969L4.883,4.883L4.969,4.756L5,4.6L5,2.4L4.969,2.244L4.883,2.117L4.756,2.031L4.6,2L2.4,2zz" fill="#FFFFFF"/>
      <path d="M9.305,0.0334L8.999,0.1289L8.722,0.2799L8.48,0.4799L8.28,0.7217L8.129,0.9992L8.033,1.305L8,1.633L8,5.367L8.033,5.695L8.129,6.001L8.28,6.278L8.48,6.52L8.722,6.72L8.999,6.871L9.305,6.967L9.633,7L13.37,7L13.69,6.967L14,6.871L14.28,6.72L14.52,6.52L14.72,6.278L14.87,6.001L14.97,5.695L15,5.367L15,1.633L14.97,1.305L14.87,0.9992L14.72,0.7217L14.52,0.4799L14.28,0.2799L14,0.1289L13.69,0.0334L13.37,0L9.633,0zM13.6,1L13.76,1.031L13.88,1.117L13.97,1.244L14,1.4L14,5.6L13.97,5.756L13.88,5.883L13.76,5.969L13.6,6L9.4,6L9.244,5.969L9.117,5.883L9.031,5.756L9,5.6L9,1.4L9.031,1.244L9.117,1.117L9.244,1.031L9.4,1zz" fill="#B4B4B5"/>
      <path d="M9.244,1.031L9.117,1.117L9.031,1.244L9,1.4L9,5.6L9.031,5.756L9.117,5.883L9.244,5.969L9.4,6L13.6,6L13.76,5.969L13.88,5.883L13.97,5.756L14,5.6L14,1.4L13.97,1.244L13.88,1.117L13.76,1.031L13.6,1L9.4,1zz" fill="#FFFFFF"/>
      <path d="M15,9.623L14.97,9.305L14.87,8.999L14.72,8.722L14.52,8.48L14.28,8.28L14,8.129L13.69,8.033L13.37,8L10.27,8zM8,13.37L8.033,13.69L8.129,14L8.28,14.28L8.48,14.52L8.722,14.72L8.999,14.87L9.305,14.97L9.618,15L8,10.34zz" fill="#3E79B4"/>
      <path d="M1.305,8.033L0.9992,8.129L0.7217,8.28L0.4799,8.48L0.2799,8.722L0.1289,8.999L0.0334,9.305L0,9.633L0,13.37L0.0334,13.69L0.1289,14L0.2799,14.28L0.4799,14.52L0.7217,14.72L0.9992,14.87L1.305,14.97L1.633,15L5.367,15L5.695,14.97L6.001,14.87L6.278,14.72L6.52,14.52L6.72,14.28L6.871,14L6.967,13.69L7,13.37L7,9.633L6.967,9.305L6.871,8.999L6.72,8.722L6.52,8.48L6.278,8.28L6.001,8.129L5.695,8.033L5.367,8L1.633,8zM5.6,9L5.756,9.031L5.883,9.117L5.969,9.244L6,9.4L6,13.6L5.969,13.76L5.883,13.88L5.756,13.97L5.6,14L1.4,14L1.244,13.97L1.117,13.88L1.031,13.76L1,13.6L1,9.4L1.031,9.244L1.117,9.117L1.244,9.031L1.4,9zz" fill="#B4B4B5"/>
      <path d="M1.244,9.031L1.117,9.117L1.031,9.244L1,9.4L1,13.6L1.031,13.76L1.117,13.88L1.244,13.97L1.4,14L5.6,14L5.756,13.97L5.883,13.88L5.969,13.76L6,13.6L6,9.4L5.969,9.244L5.883,9.117L5.756,9.031L5.6,9L1.4,9zz" fill="#FFFFFF"/>
    </g>
    <g id="overlay">
      <path d="M15.4906,10.8488L8.9313,8.5997c-0.4486,-0.1741,-0.5178,-0.1107,-0.3535,0.353l2.2682,6.5358c0.1868,0.4833,0.431,0.4844,0.7343,-0.01l1.1428,-1.87l2.3712,2.3492c0.2452,0.2449,1.1074,-0.6417,0.8622,-0.8866l-2.348,-2.347l1.872,-1.1416C16.0183,11.2341,16.0183,11.0356,15.4906,10.8488z" fill-rule="evenodd" fill="#797979"/>
    </g>
  </g>
</svg>