<!DOCTYPE svg PUBLIC "-//W3C//DTD SVG 1.1//EN" "http://www.w3.org/Graphics/SVG/1.1/DTD/svg11.dtd">
<svg version="1.1" id="Layer_1" xmlns="http://www.w3.org/2000/svg" xmlns:xlink="http://www.w3.org/1999/xlink" x="0px" y="0px" width="32px" height="32px" viewBox="0 0 32 32" enable-background="new 0 0 32 32" xml:space="preserve">
  <g id="main">
    <g id="icon">
      <path d="M0.8055,3.539L0.6465,3.646L0.5393,3.805L0.5,4L0.5,27L0.5393,27.19L0.6465,27.35L0.8055,27.46L1,27.5L18.26,27.5L20.76,25L17.48,21.72L17.29,21.49L17.15,21.23L17.07,20.95L17.04,20.66L17.07,20.38L17.15,20.1L17.29,19.84L17.48,19.6L19.6,17.48L19.83,17.29L20.09,17.16L20.37,17.07L20.66,17.04L20.96,17.07L21.24,17.16L21.5,17.29L21.73,17.48L25,20.76L28.27,17.48L28.5,17.3L28.5,4.033L28.46,3.826L28.34,3.656L28.17,3.542L27.97,3.5L1,3.5zz" fill="#FFFFFF"/>
      <path d="M0.5,15.5L28.5,15.5L28.5,9.5L0.5,9.5zz" fill="#C2D3E6"/>
      <path d="M0,16L29,16L29,9L0,9zM28,10L28,15L1,15L1,10zz" fill="#529FBF"/>
      <path d="M7,9L8,9L8,8L7,8zM14,9L15,9L15,8L14,8zM21,9L22,9L22,8L21,8zM7,17L8,17L8,16L7,16zM14,17L15,17L15,16L14,16zM21,17L22,17L22,16L21,16zz" fill="#B4B4B5" opacity="0.4"/>
      <path d="M0,9L1,9L1,8L0,8zM28,9L29,9L29,8L28,8zM0,17L1,17L1,16L0,16zM28,17L29,17L29,16L28,16zz" fill="#B4B4B5"/>
      <path d="M7,8L8,8L8,4L7,4zM14,8L15,8L15,4L14,4zM21,8L22,8L22,4L21,4zM7,21L1,21L1,22L7,22L7,27L8,27L8,22L14,22L14,27L15,27L15,22L17.76,22L17.48,21.72L17.29,21.49L17.15,21.23L17.09,21L15,21L15,17L14,17L14,21L8,21L8,17L7,17zM21,17.08L21.24,17.16L21.5,17.29L21.73,17.48L22,17.76L22,17L21,17zz" fill="#B4B4B5"/>
      <path d="M0.6113,3.079L0.2934,3.293L0.07871,3.611L0,4L0,8L1,8L1,4L27.97,4L28,4.033L28,8L29,8L29,4.033L28.92,3.631L28.7,3.303L28.37,3.081L27.97,3L1,3zM0,27L0.07871,27.39L0.2934,27.71L0.6113,27.92L1,28L17.76,28L18.76,27L1,27L1,17L0,17zM28,17.76L28.27,17.48L28.5,17.29L28.76,17.16L29,17.08L29,17L28,17zz" fill="#6D6E71"/>
    </g>
    <g id="overlay">
      <path d="M31.91,29.789l-2.121,2.121c-0.195,0.195,-0.512,0.195,-0.707,0L25,27.828l-3.982,3.982c-0.195,0.195,-0.512,0.195,-0.707,0l-2.121,-2.121c-0.195,-0.195,-0.195,-0.512,0,-0.707L22.172,25l-3.982,-3.982c-0.195,-0.195,-0.195,-0.512,0,-0.707l2.121,-2.121c0.195,-0.195,0.512,-0.195,0.707,0L25,22.172l3.982,-3.982c0.195,-0.195,0.512,-0.195,0.707,0l2.121,2.121c0.195,0.195,0.195,0.512,0,0.707L27.828,25l4.082,4.082C32.106,29.277,32.106,29.594,31.91,29.789z" fill-rule="evenodd" fill="#CD4C32"/>
    </g>
  </g>
</svg>