<svg version="1.1" id="Layer_1" xmlns="http://www.w3.org/2000/svg" xmlns:xlink="http://www.w3.org/1999/xlink" x="0px" y="0px" width="16px" height="16px" viewBox="0 0 16 16" enable-background="new 0 0 16 16" xml:space="preserve">
  <g id="icon">
    <path d="M7.984,4.026C4.679,4.026,2,6.703,2,10.005s2.679,5.979,5.984,5.979s5.984,-2.677,5.984,-5.979S11.288,4.026,7.984,4.026zM7.984,13.669c-2.05,0,-3.713,-1.621,-3.713,-3.621c0,-2,1.662,-3.621,3.713,-3.621c2.05,0,3.713,1.621,3.713,3.621C11.697,12.048,10.034,13.669,7.984,13.669z" fill-rule="evenodd" fill="#a4a5a6"/>
    <path d="M7.984,6.427c2.05,0,3.713,1.621,3.713,3.621c0,2,-1.662,3.621,-3.713,3.621c-2.05,0,-3.713,-1.621,-3.713,-3.621C4.271,8.048,5.934,6.427,7.984,6.427z" fill-rule="evenodd" fill="#FFFFFF"/>
    <path d="M7.984,8.44c0.911,0,1.649,0.72,1.649,1.608c0,0.888,-0.738,1.608,-1.649,1.608c-0.911,0,-1.649,-0.72,-1.649,-1.608C6.335,9.16,7.073,8.44,7.984,8.44z" fill-rule="evenodd" fill="#a4a5a6"/>
    <path d="M7.984,7.131c0.233,0,0.422,0.184,0.422,0.412c0,0.227,-0.189,0.412,-0.422,0.412c-0.233,0,-0.422,-0.184,-0.422,-0.412C7.562,7.316,7.751,7.131,7.984,7.131zM10.074,7.976c0.165,0.161,0.165,0.422,0,0.582c-0.165,0.161,-0.432,0.161,-0.597,0c-0.165,-0.161,-0.165,-0.422,0,-0.582C9.642,7.815,9.909,7.815,10.074,7.976zM10.924,10.033c0,0.227,-0.189,0.412,-0.422,0.412c-0.233,0,-0.422,-0.184,-0.422,-0.412s0.189,-0.412,0.422,-0.412C10.735,9.621,10.924,9.806,10.924,10.033zM10.058,12.072c-0.165,0.161,-0.432,0.161,-0.597,0c-0.165,-0.161,-0.165,-0.422,0,-0.582c0.165,-0.161,0.432,-0.161,0.597,0C10.223,11.65,10.223,11.911,10.058,12.072zM8.003,12.948c-0.233,0,-0.422,-0.184,-0.422,-0.412c0,-0.227,0.189,-0.412,0.422,-0.412c0.233,0,0.422,0.184,0.422,0.412C8.425,12.763,8.236,12.948,8.003,12.948zM5.913,12.103c-0.165,-0.161,-0.165,-0.422,0,-0.582c0.165,-0.161,0.432,-0.161,0.597,0c0.165,0.161,0.165,0.422,0,0.582C6.345,12.264,6.077,12.264,5.913,12.103zM5.063,10.046c0,-0.227,0.189,-0.412,0.422,-0.412c0.233,0,0.422,0.184,0.422,0.412c0,0.227,-0.189,0.412,-0.422,0.412C5.252,10.458,5.063,10.273,5.063,10.046zM5.928,8.007c0.165,-0.161,0.432,-0.161,0.597,0c0.165,0.161,0.165,0.422,0,0.582c-0.165,0.161,-0.432,0.161,-0.597,0S5.764,8.168,5.928,8.007z" fill-rule="evenodd" fill="#a4a5a6"/>
    <path d="M4.044,8.223c0.467,-0.747,1.123,-1.352,1.896,-1.74c-0.01,-1.118,-0.011,-2.337,0.034,-2.817c0.102,-1.072,0.78,-1.662,1.809,-1.718c1.213,-0.066,1.924,0.348,2.139,1.485c0.102,0.537,0.108,1.89,0.11,3.096c0.748,0.395,1.38,0.995,1.83,1.729c0.051,-0.022,0.095,-0.044,0.132,-0.067c0,-0.676,0.012,-3.298,-0.002,-3.954c-0.048,-2.16,-1.166,-3.712,-2.934,-4.087c-2.924,-0.621,-5.032,0.969,-5.056,3.999c-0.005,0.65,-0.001,3.396,-0.001,4.053C4.015,8.209,4.03,8.216,4.044,8.223z" fill="#a4a5a6"/>
  </g>
</svg>
