<svg version="1.1" id="Layer_1" xmlns="http://www.w3.org/2000/svg" xmlns:xlink="http://www.w3.org/1999/xlink" x="0px" y="0px" width="16px" height="16px" viewBox="0 0 16 16" enable-background="new 0 0 16 16" xml:space="preserve">
  <g id="icon">
    <g>
      <path d="M4,7.5H1.025C0.7351,7.5,0.5,7.735,0.5,8.025V15c0,0.2761,0.2239,0.5,0.5,0.5h3V7.5z" fill="#FFFFFF"/>
      <path d="M14.975,7.5H12v8h3c0.2761,0,0.5,-0.2239,0.5,-0.5V8.025C15.5,7.735,15.2649,7.5,14.975,7.5z" fill="#FFFFFF"/>
    </g>
    <path d="M4,11H1v1h3V11zM12,12h3v-1h-3V12z" fill="#B4B4B5"/>
    <rect x="5.5" y="0.5" width="5" height="8" fill="#C2D3E6"/>
    <path d="M11,9H5V0h6V9zM6,8h4V1H6V8z" fill="#529FBF"/>
    <path d="M16,8.025V15c0,0.5514,-0.4486,1,-1,1h-3v-1h3.0006L15,8.025c0,-0.0138,-0.0112,-0.025,-0.025,-0.025H12V7h2.975C15.5402,7,16,7.4598,16,8.025zM4,15H1V8.025c0,-0.0138,0.0112,-0.025,0.025,-0.025H4V7H1.025C0.4598,7,0,7.4598,0,8.025V15c0,0.5514,0.4486,1,1,1h3V15z" fill="#6D6E71"/>
    <path d="M10.5,12.0954c0,-0.1432,-0.0565,-0.2807,-0.1572,-0.3825L8.3654,9.6424c-0.1944,-0.1936,-0.5022,-0.1891,-0.7016,0.0094l-2.0041,2.0529C5.5575,11.8066,5.5,11.945,5.5,12.0894v1.6045c0,0.1831,0.2212,0.2749,0.3509,0.1456L7,12.5375v3.2977c0,0.0912,0.0741,0.165,0.1653,0.1648l1.6704,-0.004c0.0908,-0.0002,0.1644,-0.074,0.1644,-0.1648v-3.2895l1.1387,1.2962c0.1336,0.133,0.3613,0.0383,0.3613,-0.1502V12.0954z" fill="#3e79b4"/>
  </g>
</svg>