<!DOCTYPE svg PUBLIC "-//W3C//DTD SVG 1.1//EN" "http://www.w3.org/Graphics/SVG/1.1/DTD/svg11.dtd">
<svg version="1.1" id="Layer_1" xmlns="http://www.w3.org/2000/svg" xmlns:xlink="http://www.w3.org/1999/xlink" x="0px" y="0px" width="32px" height="32px" viewBox="0 0 32 32" enable-background="new 0 0 32 32" xml:space="preserve">
  <g id="main">
    <g id="icon">
      <path d="M0.8869,3.55L0.6855,3.685L0.5498,3.887L0.5,4.133L0.5,27L0.5393,27.19L0.6465,27.35L0.8055,27.46L1,27.5L17.77,27.5L17.83,27.38L17.8,27.35L17.91,27.24L18.47,26.17L18.72,26.43L27.31,17.84L27.3,17.83L28.91,16.24L29.25,15.96L29.5,15.83L29.5,4.133L29.45,3.887L29.31,3.686L29.11,3.55L28.87,3.5L1.133,3.5zz" fill="#FFFFFF"/>
      <path d="M1.034,3.01L0.7879,3.06L0.6902,3.079L0.6074,3.135L0.4063,3.271L0.3256,3.325L0.2713,3.405L0.1354,3.607L0.07949,3.689L0.05977,3.787L0.009961,4.034L0,4.083L0,4.133L0,27L0,27.05L0.009961,27.1L0.04922,27.29L0.06895,27.39L0.1248,27.47L0.232,27.63L0.2863,27.71L0.367,27.77L0.5258,27.88L0.6086,27.93L0.7064,27.95L0.901,27.99L0.95,28L1,28L17.51,28L17.83,27.38L17.8,27.35L17.91,27.24L18.04,27L1.05,27L1.008,26.99L1,26.95L1,4.183L1.02,4.084L1.046,4.046L1.084,4.02L1.183,4L28.82,4L28.92,4.02L28.95,4.046L28.98,4.084L29,4.184L29,16.17L29.25,15.96L29.58,15.79L29.88,15.71L30,15.7L30,4.133L30,4.083L29.99,4.034L29.94,3.788L29.92,3.69L29.86,3.607L29.73,3.406L29.67,3.326L29.59,3.271L29.39,3.135L29.31,3.079L29.21,3.06L28.97,3.01L28.92,3L28.87,3L1.133,3L1.083,3zz" fill="#6D6E71"/>
      <path d="M7,8L8,8L8,4L7,4zM15,8L16,8L16,4L15,4zM22,9L17,9L17,10L22,10L22,15L17,15L17,16L22,16L22,21L16,21L16,17L15,17L15,21L8,21L8,17L7,17L7,21L1,21L1,22L7,22L7,27L8,27L8,22L15,22L15,27L16,27L16,22L22,22L22,23.15L23,22.15L23,22L23.15,22L24.15,21L23,21L23,16L29,16L29,15L23,15L23,10L29,10L29,9L23,9L23,4L22,4zM1,10L6,10L6,9L1,9zM1,16L6,16L6,15L1,15zz" fill="#B4B4B5"/>
      <path d="M7,9L6,9L6,10L7,10L7,15L6,15L6,16L7,16L7,17L8,17L8,16L15,16L15,17L16,17L16,16L17,16L17,15L16,15L16,10L17,10L17,9L16,9L16,8L15,8L15,9L8,9L8,8L7,8zM15,10L15,15L8,15L8,10zz" fill="#B4B4B5" opacity="0.4"/>
      <path d="M7.5,15.5L15.5,15.5L15.5,9.5L7.5,9.5zz" fill="#C2D3E6"/>
      <path d="M7,9.5L7,15.5L7,16L7.5,16L15.5,16L16,16L16,15.5L16,9.5L16,9L15.5,9L7.5,9L7,9zM15,10L15,15L8,15L8,10zz" fill="#3891AD"/>
    </g>
    <g id="overlay">
      <path d="M19.2158,27.348l9.0199,-9.0199l2.1233,2.1233l-9.0199,9.0199L19.2158,27.348zM29.6123,16.9515c0.3525,-0.3525,0.7113,-0.3525,1.0638,0l1.0596,1.0596c0.3525,0.3525,0.3525,0.7113,0,1.0638l-0.8743,0.8743l-2.1388,-2.1202L29.6123,16.9515zM16.7052,31.677l2.0176,-3.8361l2.1233,2.1233l-3.8361,2.0176c-0.061,0.0321,-0.1358,0.0207,-0.1846,-0.028l-0.0923,-0.0923C16.6845,31.8128,16.6732,31.738,16.7052,31.677z" fill-rule="evenodd" fill="#3E79B4"/>
    </g>
  </g>
</svg>