<svg version="1.1" id="Layer_1" xmlns="http://www.w3.org/2000/svg" xmlns:xlink="http://www.w3.org/1999/xlink" x="0px" y="0px" width="32px" height="32px" viewBox="0 0 32 32" enable-background="new 0 0 32 32" xml:space="preserve">
  <g id="icon">
    <g>
      <path d="M28.9667,12.5H17v18h12c0.2761,0,0.5,-0.2239,0.5,-0.5V13.0333C29.5,12.7388,29.2612,12.5,28.9667,12.5z" fill="#FFFFFF"/>
      <path d="M7,12.5H2.0333c-0.2945,0,-0.5333,0.2388,-0.5333,0.5333V30c0,0.2761,0.2239,0.5,0.5,0.5h5V12.5z" fill="#FFFFFF"/>
    </g>
    <path d="M30,13.0333V30c0,0.5514,-0.4486,1,-1,1H17v-1h12.0007L29,13.0333c0,-0.0184,-0.0149,-0.0333,-0.0333,-0.0333H17v-1h11.9667C29.5364,12,30,12.4636,30,13.0333zM7,30H2V13.0333c0,-0.0184,0.0149,-0.0333,0.0333,-0.0333H7v-1H2.0333C1.4636,12,1,12.4636,1,13.0333V30c0,0.5514,0.4486,1,1,1h5V30z" fill="#6D6E71"/>
    <rect x="8.5" y="1.5" width="7" height="18" fill="#C2D3E6"/>
    <path d="M16,20H8V1h8V20zM9,19h6V2H9V19z" fill="#529FBF"/>
    <g>
      <rect x="2" y="24" width="5" height="1" fill="#B4B4B5"/>
      <polygon points="23,13 22,13 22,18 17,18 17,19 22,19 22,24 17,24 17,25 22,25 22,30 23,30 23,25 29,25 29,24 23,24 23,19 29,19 29,18 23,18" fill="#B4B4B5" stroke-linejoin="miter"/>
      <rect x="2" y="18" width="5" height="1" fill="#B4B4B5"/>
    </g>
    <path d="M15,25.6705c0,0.1432,-0.0565,0.2807,-0.1572,0.3825l-2.4774,2.5047c-0.1944,0.1936,-0.5022,0.1891,-0.7016,-0.0094l-2.5041,-2.495c-0.1023,-0.1019,-0.1598,-0.2404,-0.1598,-0.3848V24.064c0,-0.1831,0.2212,-0.2749,0.3509,-0.1456L11,25.6625v-4.4977c0,-0.0912,0.0741,-0.165,0.1653,-0.1648l1.6704,0.004c0.0908,0.0002,0.1644,0.074,0.1644,0.1648v4.4895l1.6387,-1.7304c0.1336,-0.133,0.3613,-0.0383,0.3613,0.1502V25.6705z" fill="#3e79b4"/>
  </g>
</svg>