<svg version="1.1" id="Layer_1" xmlns="http://www.w3.org/2000/svg" xmlns:xlink="http://www.w3.org/1999/xlink" x="0px" y="0px" width="16px" height="16px" viewBox="0 0 16 16" enable-background="new 0 0 16 16" xml:space="preserve">
  <g id="icon">
    <path d="M15,13.5H1c-0.276,0,-0.5,-0.224,-0.5,-0.5V2c0,-0.276,0.224,-0.5,0.5,-0.5h14c0.276,0,0.5,0.224,0.5,0.5v11C15.5,13.276,15.276,13.5,15,13.5z" fill="#FFFFFF" stroke="#6D6E71" stroke-width="1" stroke-miterlimit="10"/>
    <path d="M12,6h1h2V5h-2h-1h-1V4v-0.6V2h-1v1.4v0.6v1H6V4v-0.6V2H5v1.4v0.6v1H4H2.9H1v1h1.9h1.1h1v3H4H2.9H1v1h1.9h1.1h1v1v1.2v0.8h1v-0.8v-1.2v-1h4v1v1.2v0.8h1v-0.8v-1.2v-1h1h1h2V9h-2h-1h-1V6H12zM10,9H6V6h4V9z" fill="#B4B4B5"/>
  </g>
</svg>
