<svg version="1.1" id="Layer_1" xmlns="http://www.w3.org/2000/svg" xmlns:xlink="http://www.w3.org/1999/xlink" x="0px" y="0px" width="16px" height="16px" viewBox="0 0 16 16" enable-background="new 0 0 16 16" xml:space="preserve">
  <g id="icon">
    <path d="M15,14.5H1c-0.276,0,-0.5,-0.224,-0.5,-0.5V2c0,-0.276,0.224,-0.5,0.5,-0.5h14c0.276,0,0.5,0.224,0.5,0.5v12C15.5,14.276,15.276,14.5,15,14.5z" fill="#FFFFFF" stroke="#6D6E71" stroke-width="1" stroke-miterlimit="10"/>
    <path d="M12,6V5h-1V4h-1v1H6V4H5v1H4v1h1v4H4v1h1v1h1v-1h4v1h1v-1h1v-1h-1V6H12zM10,10H6V6h4V10z" fill="#B4B4B5" opacity="0.4"/>
    <g>
      <rect x="1" y="5" width="3" height="1" fill="#B4B4B5"/>
      <rect x="5" y="2" width="1" height="2" fill="#B4B4B5"/>
      <rect x="10" y="2" width="1" height="2" fill="#B4B4B5"/>
      <rect x="1" y="10" width="3" height="1" fill="#B4B4B5"/>
      <rect x="12" y="10" width="3" height="1" fill="#B4B4B5"/>
      <rect x="5" y="12" width="1" height="2" fill="#B4B4B5"/>
      <rect x="12" y="5" width="3" height="1" fill="#B4B4B5"/>
      <rect x="10" y="12" width="1" height="2" fill="#B4B4B5"/>
    </g>
    <rect x="5.5" y="5.5" width="5" height="5" fill="#C2D3E6" stroke="#3891AD" stroke-width="1" stroke-miterlimit="10"/>
    <rect x="10.5" y="5.5" width="5" height="5" fill="#C2D3E6" stroke="#3891AD" stroke-width="1" stroke-miterlimit="10"/>
    <rect x="5.5" y="1.5" width="5" height="4" fill="#C2D3E6" stroke="#3891AD" stroke-width="1" stroke-miterlimit="10"/>
    <path d="M5.5,14.5H1.017C0.731,14.5,0.5,14.269,0.5,13.983V10.5h5V14.5z" fill="#C2D3E6" stroke="#3891AD" stroke-width="1" stroke-miterlimit="10"/>
  </g>
</svg>