<svg version="1.1" id="Layer_1" xmlns="http://www.w3.org/2000/svg" xmlns:xlink="http://www.w3.org/1999/xlink" x="0px" y="0px" width="32px" height="32px" viewBox="0 0 32 32" enable-background="new 0 0 32 32" xml:space="preserve">
  <g id="main">
    <g id="icon">
      <path d="M0.8055,3.539L0.6465,3.646L0.5393,3.805L0.5,4L0.5,27L0.5393,27.19L0.6465,27.35L0.8055,27.46L1,27.5L17.39,27.5L17.26,27.34L17.12,27.08L17.03,26.8L17,26.5L17,23.5L17.03,23.2L17.12,22.92L17.26,22.66L17.44,22.44L17.66,22.26L17.92,22.12L18.2,22.03L18.5,22L22,22L22,18.5L22.03,18.2L22.12,17.92L22.26,17.66L22.44,17.44L22.66,17.26L22.92,17.12L23.2,17.03L23.5,17L26.5,17L26.8,17.03L27.08,17.12L27.34,17.26L27.56,17.44L27.74,17.66L27.88,17.92L27.97,18.2L28,18.5L28,22L28.5,22L28.5,4.033L28.46,3.826L28.34,3.656L28.17,3.542L27.97,3.5L1,3.5zz" fill="#FFFFFF"/>
      <path d="M0.5,15.5L28.5,15.5L28.5,9.5L0.5,9.5zz" fill="#C2D3E6"/>
      <path d="M0,16L29,16L29,9L0,9zM28,10L28,15L1,15L1,10zz" fill="#529FBF"/>
      <path d="M7,9L8,9L8,8L7,8zM14,9L15,9L15,8L14,8zM21,9L22,9L22,8L21,8zM7,17L8,17L8,16L7,16zM14,17L15,17L15,16L14,16zM21,17L22,17L22,16L21,16zz" fill="#B4B4B5" opacity="0.4"/>
      <path d="M0,9L1,9L1,8L0,8zM28,9L29,9L29,8L28,8zM0,17L1,17L1,16L0,16zM28,17L29,17L29,16L28,16zz" fill="#B4B4B5"/>
      <path d="M7,8L8,8L8,4L7,4zM14,8L15,8L15,4L14,4zM21,8L22,8L22,4L21,4zM7,21L1,21L1,22L7,22L7,27L8,27L8,22L14,22L14,27L15,27L15,22L18.5,22L21,22L22,22L22,21L22,18.5L22,17L21,17L21,21L15,21L15,17L14,17L14,21L8,21L8,17L7,17zz" fill="#B4B4B5"/>
      <path d="M0.6113,3.079L0.2934,3.293L0.07871,3.611L0,4L0,8L1,8L1,4L27.97,4L28,4.033L28,8L29,8L29,4.033L28.92,3.631L28.7,3.303L28.37,3.081L27.97,3L1,3zM0,27L0.07871,27.39L0.2934,27.71L0.6113,27.92L1,28L18.5,28L18.2,27.97L17.92,27.88L17.66,27.74L17.44,27.56L17.26,27.34L17.12,27.08L17.09,27L1,27L1,17L0,17zM28,18.5L28,22L29,22L29,17L28,17zz" fill="#6D6E71"/>
    </g>
    <g id="overlay">
      <path d="M31.5,23h-4.5v-4.5c0,-0.276,-0.224,-0.5,-0.5,-0.5h-3c-0.276,0,-0.5,0.224,-0.5,0.5v4.5h-4.5c-0.276,0,-0.5,0.224,-0.5,0.5v3c0,0.276,0.224,0.5,0.5,0.5h4.5v4.5c0,0.276,0.224,0.5,0.5,0.5h3c0.276,0,0.5,-0.224,0.5,-0.5v-4.5h4.5c0.276,0,0.5,-0.224,0.5,-0.5v-3C32,23.224,31.776,23,31.5,23z" fill-rule="evenodd" fill="#4EA17E"/>
    </g>
  </g>
</svg>