<svg version="1.1" id="Layer_1" xmlns="http://www.w3.org/2000/svg" xmlns:xlink="http://www.w3.org/1999/xlink" x="0px" y="0px" width="16px" height="16px" viewBox="0 0 16 16" enable-background="new 0 0 16 16" xml:space="preserve">
  <g id="icon">
    <path d="M15,14.5H1c-0.276,0,-0.5,-0.224,-0.5,-0.5V2c0,-0.276,0.224,-0.5,0.5,-0.5h14c0.276,0,0.5,0.224,0.5,0.5v12C15.5,14.276,15.276,14.5,15,14.5z" fill="#FFFFFF" stroke="#6D6E71" stroke-width="1" stroke-miterlimit="10"/>
    <path d="M4,6H1V5h3V6zM6,4V2H5v2H6zM11,4V2h-1v2H11zM4,10H1v1h3V10z" fill="#B4B4B5"/>
    <rect x="5.5" y="5.5" width="9.5" height="8.5" fill="#C2D3E6"/>
    <path d="M5,5V4h1v1H5zM11,5V4h-1v1H11zM5,10H4v1h1V10zM5,5H4v1h1V5z" fill="#B4B4B5" opacity="0.4"/>
    <path d="M15,6V5H5v9h1v-3h4v3h1v-3h4v-1h-4V6H15zM10,10H6V6h4V10z" fill="#3891AD"/>
  </g>
</svg>
