<svg version="1.1" id="Layer_1" xmlns="http://www.w3.org/2000/svg" xmlns:xlink="http://www.w3.org/1999/xlink" x="0px" y="0px" width="32px" height="32px" viewBox="0 0 32 32" enable-background="new 0 0 32 32" xml:space="preserve">
  <g id="icon">
    <path d="M30.9958,6.092c0,1.994,-0.0061,16.5182,-0.0061,16.7071c0,3.8793,-4.9369,6.0625,-11.0165,6.0625c-0.1556,0,-2.4733,-0.0017,-4.9733,-0.0049V10.3333C15,9.6154,14.4513,9,13.7333,9H8.9766c0.0045,-1.6,0.0129,-2.7981,0.0272,-2.8359c0.8739,1.6573,5.2748,2.6879,10.9901,2.6879C25.5183,8.8519,30.2917,7.8911,30.9958,6.092zM19.9343,7.7252c6.0797,0,11.0638,-1.3958,11.0638,-3.492C30.9981,2.137,26.0696,1,19.9899,1C13.9103,1,9.0474,2.137,9.0474,4.2332C9.0474,6.3294,13.8547,7.7252,19.9343,7.7252z" fill="#EAB765"/>
    <path d="M13.0875,10H1.9125c-0.504,0,-0.9125,0.4085,-0.9125,0.9125V13h13v-2.0875C14,10.4085,13.5915,10,13.0875,10zM12,12h-2v-1h2V12zM1,17h13v-3H1V17zM10,15h2v1h-2V15zM1,30.0875c0,0.504,0.4085,0.9125,0.9125,0.9125h11.175c0.504,0,0.9125,-0.4085,0.9125,-0.9125V18H1V30.0875zM7.5,25c0.8284,0,1.5,0.6716,1.5,1.5c0,0.8284,-0.6716,1.5,-1.5,1.5s-1.5,-0.6716,-1.5,-1.5C6,25.6716,6.6716,25,7.5,25z" fill="#797979"/>
    <path d="M12,12h-2v-1h2V12zM12,15h-2v1h2V15zM7.5,25c-0.8284,0,-1.5,0.6716,-1.5,1.5s0.6716,1.5,1.5,1.5s1.5,-0.6716,1.5,-1.5S8.3284,25,7.5,25z" fill="#FFFFFF"/>
  </g>
</svg>
