<svg version="1.1" id="Layer_1" xmlns="http://www.w3.org/2000/svg" xmlns:xlink="http://www.w3.org/1999/xlink" x="0px" y="0px" width="16px" height="16px" viewBox="0 0 16 16" enable-background="new 0 0 16 16" xml:space="preserve">
  <g id="icon">
    <path d="M15,15.5H4c-0.276,0,-0.5,-0.224,-0.5,-0.5V6.5h12v8.5C15.5,15.276,15.276,15.5,15,15.5z" fill="#FFFFFF"/>
    <path d="M15,0H1C0.449,0,0,0.449,0,1v3h3v11c0,0.551,0.449,1,1,1h11c0.551,0,1,-0.449,1,-1V4V3V1C16,0.449,15.551,0,15,0zM10.376,1h3.306c0.137,0,0.211,0.154,0.124,0.256l-1.653,1.688c-0.064,0.075,-0.183,0.075,-0.247,0l-1.653,-1.688C10.165,1.154,10.24,1,10.376,1zM3,3H1V1h7.001L8,3H3zM4,15V4h11l0.001,11H4z" fill="#6D6E71"/>
    <path d="M11.905,2.944l-1.653,-1.688c-0.087,-0.101,-0.013,-0.256,0.124,-0.256h3.306c0.137,0,0.211,0.154,0.124,0.256l-1.653,1.688C12.088,3.019,11.97,3.019,11.905,2.944z" fill="#FFFFFF"/>
    <path d="M7,15h1v-2h3v2h1v-2h3v-1h-3v-2h3V9h-3V7h-1v2H8V7H7v2H4v1h3v2H4v1h3V15zM8,10h3v2H8V10z" fill="#B4B4B5"/>
    <rect x="4" y="4" width="11" height="3" fill="#3E79B4"/>
    <rect x="1" y="1" width="7" height="2" fill="#FFFFFF"/>
    <path d="M11,12H8v-2h3V12z" fill="#EC5664" opacity="0.5"/>
    <path d="M7,9v4h5V9H7zM11,12H8v-2h3V12z" fill="#CD4C32"/>
  </g>
</svg>