<svg version="1.1" id="Layer_1" xmlns="http://www.w3.org/2000/svg" xmlns:xlink="http://www.w3.org/1999/xlink" x="0px" y="0px" width="16px" height="16px" viewBox="0 0 16 16" enable-background="new 0 0 16 16" xml:space="preserve">
  <g id="icon">
    <path d="M11.927,14.2c-1.704,0,-2.596,-1.318,-2.596,-2.621c0,-2.125,1.679,-3.307,4.733,-3.337c-0.006,-1.145,-0.533,-1.726,-1.568,-1.726l-0.031,0c-0.716,0,-1.447,0.222,-1.959,0.593l-0.209,0.152L9.849,5.84l0.121,-0.081c0.714,-0.479,1.725,-0.765,2.705,-0.765c2.081,0,3.181,1.257,3.181,3.634v3.161c0,0.788,0.039,1.479,0.112,1.998l0.031,0.221h-1.672l-0.088,-0.824C13.67,13.826,12.832,14.2,11.927,14.2zM14.027,9.72c-1.89,0,-2.849,0.564,-2.849,1.677c0,0.78,0.417,1.246,1.117,1.246c0.972,0,1.531,-0.676,1.715,-1.255c0.045,-0.161,0.054,-0.318,0.054,-0.42V9.72C14.052,9.72,14.04,9.72,14.027,9.72zM7.701,14.008l-1.161,-3.68H2.964l-1.128,3.68H0.017L3.822,2h1.939l3.805,12.008H7.701zM6.119,8.779l-0.983,-3.065c-0.158,-0.498,-0.281,-0.965,-0.391,-1.416c-0.11,0.461,-0.23,0.931,-0.378,1.399l-0.969,3.082H6.119z" fill="#6D6E71"/>
  </g>
</svg>