<svg version="1.1" id="Layer_1" xmlns="http://www.w3.org/2000/svg" xmlns:xlink="http://www.w3.org/1999/xlink" x="0px" y="0px" width="16px" height="16px" viewBox="0 0 16 16" enable-background="new 0 0 16 16" xml:space="preserve">
  <g id="icon">
    <path d="M6.5,11c-0.828,0,-1.5,-0.672,-1.5,-1.5V4.8H2.274C1.46,4.8,0.8,5.467,0.8,6.291v7.419C0.8,14.533,1.46,15.2,2.274,15.2h9.451c0.814,0,1.474,-0.667,1.474,-1.491V11H6.5z" fill="#F1F2F2"/>
    <path d="M12.4,11v2.709c0,0.381,-0.302,0.691,-0.674,0.691H2.274c-0.372,0,-0.674,-0.31,-0.674,-0.691V6.291C1.6,5.91,1.902,5.6,2.274,5.6H5V4H2.274C1.02,4,0,5.028,0,6.291v7.419C0,14.972,1.02,16,2.274,16h9.451c1.254,0,2.274,-1.028,2.274,-2.291V11H12.4z" fill="#6D6E71"/>
    <path d="M15.251,9.5H6.749C6.611,9.5,6.5,9.389,6.5,9.251V0.749C6.5,0.611,6.611,0.5,6.749,0.5h8.503c0.137,0,0.249,0.111,0.249,0.249v8.503C15.5,9.389,15.389,9.5,15.251,9.5z" fill="#FFFFFF" stroke="#6D6E71" stroke-width="1" stroke-miterlimit="10"/>
    <path d="M7.5,7.205l2.087,-2.413c0.067,-0.084,0.205,-0.084,0.272,0l0.786,0.984l-0.948,1.14l0.32,0.358l2.426,-2.928c0.067,-0.084,0.202,-0.084,0.269,0l1.754,2.234c0.022,0.027,0.033,0.06,0.033,0.093V8.5H7.5V7.205z" fill="#3E79B4"/>
    <path d="M11.423,3.222c0,-0.471,-0.364,-0.852,-0.813,-0.852c-0.119,0,-0.231,0.027,-0.333,0.075c-0.142,-0.35,-0.462,-0.595,-0.835,-0.595c-0.461,0,-0.842,0.374,-0.904,0.859c-0.282,0.09,-0.486,0.354,-0.486,0.667c0,0.624,0.58,0.685,0.965,0.686c0.008,0.004,0.016,0.005,0.025,0.005h1.646c0.009,0,0.028,-0.001,0.051,-0.005C11.171,4.045,11.423,3.681,11.423,3.222z" fill-rule="evenodd" fill="#BCBEC0"/>
  </g>
</svg>