<svg version="1.1" id="Layer_1" xmlns="http://www.w3.org/2000/svg" xmlns:xlink="http://www.w3.org/1999/xlink" x="0px" y="0px" width="16px" height="16px" viewBox="0 0 16 16" enable-background="new 0 0 16 16" xml:space="preserve">
  <g id="icon">
    <g>
      <polygon points="16,15 14,15 14,13.9 15,13.9 15,12.9 16,12.9" fill="#6D6E71" stroke-linejoin="miter"/>
      <path d="M12,15H9v-1.1h3V15zM7,15H4v-1.1h3V15z" fill="#6D6E71"/>
      <polygon points="2,15 0,15 0,12.9 1,12.9 1,13.9 2,13.9" fill="#6D6E71" stroke-linejoin="miter"/>
      <path d="M1.1,11.3H0V8.8h1.1V11.3zM1.1,7.2H0V4.7h1.1V7.2z" fill="#6D6E71"/>
      <polygon points="1.1,3.1 0,3.1 0,1 2.1,1 2.1,2.1 1.1,2.1" fill="#6D6E71" stroke-linejoin="miter"/>
      <path d="M12,2.1H9V1h3V2.1zM7,2.1H4V1h3V2.1z" fill="#6D6E71"/>
      <polygon points="16,3.1 14.9,3.1 14.9,2.1 13.9,2.1 13.9,1 16,1" fill="#6D6E71" stroke-linejoin="miter"/>
      <path d="M16,11.3h-1.1V8.8h1.1V11.3zM16,7.2h-1.1V4.7h1.1V7.2z" fill="#6D6E71"/>
    </g>
  </g>
</svg>