<svg version="1.1" id="Layer_1" xmlns="http://www.w3.org/2000/svg" xmlns:xlink="http://www.w3.org/1999/xlink" x="0px" y="0px" width="16px" height="16px" viewBox="0 0 16 16" enable-background="new 0 0 16 16" xml:space="preserve">
  <g id="icon">
    <rect y="1" width="6" height="5" fill="#3E79B4"/>
    <line x1="7.5" y1="1.5" x2="15.5" y2="1.5" fill="none" stroke="#6D6E71" stroke-width="1" stroke-linecap="round" stroke-miterlimit="10" stroke-linejoin="round"/>
    <line x1="7.5" y1="3.5" x2="15.5" y2="3.5" fill="none" stroke="#6D6E71" stroke-width="1" stroke-linecap="round" stroke-miterlimit="10" stroke-linejoin="round"/>
    <line x1="7.5" y1="5.5" x2="12.3" y2="5.5" fill="none" stroke="#6D6E71" stroke-width="1" stroke-linecap="round" stroke-miterlimit="10" stroke-linejoin="round"/>
    <line x1="0.5" y1="7.5" x2="10.7" y2="7.5" fill="none" stroke="#6D6E71" stroke-width="1" stroke-linecap="round" stroke-miterlimit="10" stroke-linejoin="round"/>
    <line x1="0.5" y1="9.5" x2="9.1" y2="9.5" fill="none" stroke="#6D6E71" stroke-width="1" stroke-linecap="round" stroke-miterlimit="10" stroke-linejoin="round"/>
    <line x1="0.5" y1="11.5" x2="7.6" y2="11.5" fill="none" stroke="#6D6E71" stroke-width="1" stroke-linecap="round" stroke-miterlimit="10" stroke-linejoin="round"/>
    <line x1="0.5" y1="13.5" x2="6.1" y2="13.5" fill="none" stroke="#6D6E71" stroke-width="1" stroke-linecap="round" stroke-miterlimit="10" stroke-linejoin="round"/>
    <line x1="0.5" y1="15.5" x2="4.7" y2="15.5" fill="none" stroke="#6D6E71" stroke-width="1" stroke-linecap="round" stroke-miterlimit="10" stroke-linejoin="round"/>
    <path d="M16,15.826c0,0.096,-0.078,0.174,-0.174,0.174h-1.214c-0.144,0,-0.248,-0.036,-0.311,-0.108c-0.063,-0.072,-0.093,-0.164,-0.088,-0.278l0.05,-2.509H9.516l-2.041,2.509c-0.076,0.098,-0.178,0.186,-0.308,0.266c-0.13,0.08,-0.264,0.12,-0.403,0.12h-0.875c-0.146,0,-0.227,-0.169,-0.135,-0.282l8.547,-10.653c0.033,-0.041,0.083,-0.065,0.135,-0.065h1.39c0.096,0,0.174,0.078,0.174,0.174V15.826zM14.321,11.947c0,0,-0.02,-4.694,0.042,-5.137c-0.145,0.219,0.003,0.044,-0.131,0.233c-0.135,0.189,-0.36,0.457,-0.476,0.604l-3.392,4.3H14.321z" fill="#3E79B4"/>
  </g>
</svg>