<?xml version="1.0" encoding="UTF-8"?>
<!DOCTYPE svg PUBLIC "-//W3C//DTD SVG 1.1//EN" "http://www.w3.org/Graphics/SVG/1.1/DTD/svg11.dtd">
<svg version="1.1" id="Layer_1" xmlns="http://www.w3.org/2000/svg" xmlns:xlink="http://www.w3.org/1999/xlink" x="0px" y="0px" width="16px" height="16px" viewBox="0 0 16 16" enable-background="new 0 0 16 16" xml:space="preserve">
  <g id="icon">
    <path d="M15,15.5H1c-0.276,0,-0.5,-0.258,-0.5,-0.576V1.6h15v13.324C15.5,15.242,15.276,15.5,15,15.5z" fill="#FFFFFF"/>
    <path d="M9,1H4H1H0.917C0.41,1,0,1.41,0,1.917V2v13c0,0.552,0.448,1,1,1h14c0.552,0,1,-0.448,1,-1V2v-0.083c0,-0.506,-0.41,-0.917,-0.917,-0.917H9zM9,15H1V2h8V15zM15.001,15H10V2h5L15.001,15z" fill="#6D6E71"/>
    <path d="M12.513,13.963l-1.269,-1.792c-0.067,-0.068,-0.01,-0.17,0.095,-0.17h2.537c0.105,0,0.162,0.103,0.095,0.17l-1.269,1.792C12.653,14.012,12.562,14.012,12.513,13.963z" fill="#6D6E71"/>
    <path d="M12.421,3.037L11.046,4.83c-0.073,0.068,-0.011,0.17,0.103,0.17h2.75c0.114,0,0.176,-0.103,0.103,-0.17l-1.375,-1.792C12.573,2.988,12.475,2.988,12.421,3.037z" fill="#6D6E71"/>
    <path d="M7.5,6H2.5c-0.276,0,-0.5,-0.224,-0.5,-0.5v0c0,-0.276,0.224,-0.5,0.5,-0.5h5c0.276,0,0.5,0.224,0.5,0.5v0C8,5.776,7.776,6,7.5,6zM7.5,4H2.5c-0.276,0,-0.5,-0.224,-0.5,-0.5v0c0,-0.276,0.224,-0.5,0.5,-0.5h5c0.276,0,0.5,0.224,0.5,0.5v0C8,3.776,7.776,4,7.5,4zM8,7.5L8,7.5c0,-0.276,-0.224,-0.5,-0.5,-0.5H2.5c-0.276,0,-0.5,0.224,-0.5,0.5v0c0,0.276,0.224,0.5,0.5,0.5h5C7.776,8,8,7.776,8,7.5zM8,9.5L8,9.5c0,-0.276,-0.224,-0.5,-0.5,-0.5H2.5c-0.276,0,-0.5,0.224,-0.5,0.5v0c0,0.276,0.224,0.5,0.5,0.5h5C7.776,10,8,9.776,8,9.5zM8,11.5L8,11.5c0,-0.276,-0.224,-0.5,-0.5,-0.5H2.5c-0.276,0,-0.5,0.224,-0.5,0.5v0c0,0.276,0.224,0.5,0.5,0.5h5C7.776,12,8,11.776,8,11.5zM8,13.5L8,13.5c0,-0.276,-0.224,-0.5,-0.5,-0.5H2.5c-0.276,0,-0.5,0.224,-0.5,0.5l0,0c0,0.276,0.224,0.5,0.5,0.5h5C7.776,14,8,13.776,8,13.5z" fill="#3E79B4"/>
  </g>
</svg>