<svg version="1.1" id="Layer_1" xmlns="http://www.w3.org/2000/svg" xmlns:xlink="http://www.w3.org/1999/xlink" x="0px" y="0px" width="16px" height="16px" viewBox="0 0 16 16" enable-background="new 0 0 16 16" xml:space="preserve">
  <g id="icon">
    <path d="M10.259,11c0.228,0,0.352,0.228,0.207,0.378l-2.259,2.539c-0.107,0.111,-0.306,0.111,-0.413,0l-2.259,-2.539c-0.146,-0.15,-0.021,-0.378,0.207,-0.378H10.259z" fill="#FFFFFF"/>
    <path d="M3,10.278v4.444c0,0.153,0.149,0.278,0.333,0.278h9.333c0.184,0,0.333,-0.124,0.333,-0.278v-4.444c0,-0.153,-0.149,-0.278,-0.333,-0.278H3.333C3.149,10,3,10.124,3,10.278zM5.741,11h4.519c0.228,0,0.352,0.228,0.207,0.378l-2.259,2.539c-0.107,0.111,-0.306,0.111,-0.413,0l-2.259,-2.539C5.388,11.228,5.513,11,5.741,11z" fill="#3E79B4"/>
    <path d="M10.259,5c0.228,0,0.352,-0.228,0.207,-0.378L8.207,2.083c-0.107,-0.111,-0.306,-0.111,-0.413,0L5.534,4.622c-0.146,0.15,-0.021,0.378,0.207,0.378H10.259z" fill="#FFFFFF"/>
    <path d="M3.333,6h9.333c0.184,0,0.333,-0.124,0.333,-0.278V1.278c0,-0.153,-0.149,-0.278,-0.333,-0.278H3.333C3.149,1,3,1.124,3,1.278v4.444C3,5.876,3.149,6,3.333,6zM5.534,4.622l2.259,-2.539c0.107,-0.111,0.306,-0.111,0.413,0l2.259,2.539c0.146,0.15,0.021,0.378,-0.207,0.378H5.741C5.513,5,5.388,4.772,5.534,4.622z" fill="#3E79B4"/>
    <rect x="3" y="7" width="10" height="2" fill="#6D6E71"/>
  </g>
</svg>