<svg version="1.1" id="Layer_1" xmlns="http://www.w3.org/2000/svg" xmlns:xlink="http://www.w3.org/1999/xlink" x="0px" y="0px" width="16px" height="16px" viewBox="0 0 16 16" enable-background="new 0 0 16 16" xml:space="preserve">
  <g id="icon">
    <rect x="9" y="2.5" width="6.5" height="3" fill="#F1F2F2"/>
    <path d="M9,3h6v2.5h1V2.5c0,-0.276,-0.224,-0.5,-0.5,-0.5H9V3z" fill="#797979"/>
    <path d="M15,15.5H1c-0.276,0,-0.5,-0.224,-0.5,-0.5V4.5h8l0,1h7v9.5C15.5,15.276,15.276,15.5,15,15.5z" fill="#FFFFFF" stroke="#6D6E71" stroke-width="1" stroke-miterlimit="10" stroke-linejoin="round"/>
    <path d="M9,5V2.2c0,-0.663,-0.537,-1.2,-1.2,-1.2H1.2C0.537,1,0,1.537,0,2.2v2.8H9L9,5z" fill="#3E79B4"/>
  </g>
</svg>