<?xml version="1.0" encoding="utf-8"?>
<!-- Svg Vector Icons : http://www.onlinewebfonts.com/icon -->
<!DOCTYPE svg PUBLIC "-//W3C//DTD SVG 1.1//EN" "http://www.w3.org/Graphics/SVG/1.1/DTD/svg11.dtd">
<svg version="1.1" xmlns="http://www.w3.org/2000/svg" xmlns:xlink="http://www.w3.org/1999/xlink" x="0px" y="0px" viewBox="0 0 1000 1000" enable-background="new 0 0 1000 1000" xml:space="preserve">
<metadata> Svg Vector Icons : http://www.onlinewebfonts.com/icon </metadata>
<g><path d="M500,990C229.4,990,10,770.6,10,500C10,229.4,229.4,10,500,10c270.6,0,490,219.4,490,490C990,770.6,770.6,990,500,990z M892.1,620.8c11.8-38.2,18.5-78.7,18.5-120.8c0-33.7-4.4-66.3-12.1-97.6c-4.2,2.9-9,4.9-14.4,4.9H765.5c5.9,30.3,9.6,61.2,9.6,93c0,41.2-4.8,80.7-13.7,118.9h122.6C886.9,619.2,889.5,620,892.1,620.8z M300.8,500.3c0,41,5.1,80.7,13.9,118.9h145.6V407.3H309.6C304.1,437.5,300.8,468.5,300.8,500.3z M689.2,407.3H539.7v211.9h144.5c8.6-38.2,13.5-77.9,13.5-118.9C697.7,468.5,694.4,437.5,689.2,407.3z M872.8,672.2H745.9c-30,84.2-82.9,160.6-159.1,229C714,873.7,819.4,787.5,872.8,672.2z M669.4,672.2H539.7v198.6c0,4.4-1.2,8.5-2.5,12.5C596.5,825.5,642.1,753.2,669.4,672.2z M500,910.5c2.6,0,5.1-0.3,7.7-0.4c0.6-0.5,1.2-1,1.8-1.5C506.4,909.4,503.4,910.5,500,910.5L500,910.5z M496,910.4c1.4,0,2.7,0.2,4,0.2c-1.8,0-3.3-0.8-5.1-1C495.3,909.8,495.6,910,496,910.4z M460.3,870.8V672.2H330c27.5,79.5,73,150.6,132.2,207.9C461.4,877,460.3,874.1,460.3,870.8z M415.2,901.7c-78.5-68.4-133-145.1-163.9-229.5H127.3C180.9,788.1,287,874.8,415.2,901.7z M107.9,620.8c2.6-0.8,5.2-1.6,8.1-1.6h119.4c-9.2-38.2-14.1-77.8-14.1-118.9c0-31.8,3.9-62.7,9.9-93H115.9c-5.5,0-10.2-2-14.4-4.9c-7.7,31.3-12.1,63.9-12.1,97.6C89.5,542.1,96.1,582.6,107.9,620.8z M116.2,354.3H245c31.4-96.8,93.3-184.5,183-258.2C284.6,121.5,166.8,221.3,116.2,354.3z M321.9,354.3h138.4V122.9C395.8,186,347.6,265.4,321.9,354.3z M539.7,354.3h137.4c-25.4-90.2-73.3-170.7-137.4-234.3V354.3z M574,96.4c87.2,73.7,147.6,161.3,178.1,257.9h131.8C833.4,221.9,716.6,122.4,574,96.4z"/></g>
</svg>