<svg version="1.1" id="Layer_1" xmlns="http://www.w3.org/2000/svg" xmlns:xlink="http://www.w3.org/1999/xlink" x="0px" y="0px" width="16px" height="16px" viewBox="0 0 16 16" enable-background="new 0 0 16 16" xml:space="preserve">
  <g id="icon">
    <path d="M15.93,8.843c0,0,-3.18,-3.138,-4.201,-4.161c0.136,-0.37,0.21,-0.77,0.21,-1.186c0,-1.673,-1.193,-3.067,-2.775,-3.378c-0.247,-0.068,-0.504,-0.108,-0.77,-0.116C6.619,-0.05,5.149,1.303,5.011,3.031c1.774,0.119,2.74,1.029,2.874,2.711c0.158,-0.013,0.323,-0.02,0.494,-0.02c0,0,0.002,0,0.003,0c2.193,0,3.304,1.065,3.304,3.167c0,0.205,-0.016,0.419,-0.046,0.636l1.365,0v1.233c0,0.134,0.072,0.243,0.206,0.243h2.545c0.134,0,0.243,-0.109,0.243,-0.243V9.014C16,8.95,15.975,8.889,15.93,8.843zM7.519,3.495c-0.511,0,-0.925,-0.414,-0.925,-0.925s0.414,-0.925,0.925,-0.925s0.925,0.414,0.925,0.925S8.03,3.495,7.519,3.495z" fill="#EAB765"/>
    <path d="M12.849,15.444c-0.208,0.584,-3.181,0.508,-4.467,0.508c-0.009,0,0.005,0,0,0c-1.286,0,-4.225,0.076,-4.433,-0.508c-0.185,-0.519,-0.173,-0.716,-0.104,-1.184c0.231,-1.166,0.641,-1.186,2.886,-1.979c0.328,-0.123,0.421,-0.302,0.396,-0.555c-0.633,-0.757,-1.013,-1.98,-1.013,-2.837c0,-1.326,0.415,-2.167,2.267,-2.167c0.002,0,-0.008,0,0,0c1.852,0,2.305,0.84,2.305,2.167c0,0.857,-0.381,2.082,-1.014,2.839c-0.025,0.253,0.068,0.43,0.396,0.553c2.244,0.793,2.654,0.813,2.885,1.978C13.023,14.728,13.034,14.924,12.849,15.444zM5.806,11.643c0.047,-0.016,0.094,-0.033,0.143,-0.05c-0.452,-0.817,-0.74,-1.833,-0.74,-2.704c0,-1.513,0.556,-2.457,1.691,-2.855c-0.034,-1.24,-0.521,-2.017,-2.302,-2.017c-1.852,0,-2.267,0.84,-2.267,2.167c0,0.857,0.38,2.079,1.013,2.837c0.025,0.253,-0.069,0.431,-0.396,0.555c-2.244,0.793,-2.655,0.813,-2.886,1.979c-0.069,0.468,-0.081,0.665,0.104,1.184c0.15,0.421,1.715,0.499,3.06,0.51C3.647,12.393,4.433,12.12,5.806,11.643z" fill-rule="evenodd" fill="#fff"/>
  </g>
</svg>
