<svg version="1.1" id="Layer_1" xmlns="http://www.w3.org/2000/svg" xmlns:xlink="http://www.w3.org/1999/xlink" x="0px" y="0px" width="32px" height="32px" viewBox="0 0 32 32" enable-background="new 0 0 32 32" xml:space="preserve">
  <g id="main">
    <g id="icon">
      <path d="M13.9,0.03262L12.93,0.1264L12.06,0.2811L11.28,0.4945L10.59,0.7652L9.994,1.092L9.473,1.472L9.029,1.904L8.654,2.387L8.346,2.919L8.098,3.498L7.906,4.123L7.765,4.791L7.671,5.501L7.601,7.041L7.658,8.136L7.826,9.31L8.101,10.53L8.476,11.77L8.948,13L9.512,14.17L10.16,15.27L10.89,16.26L10.88,16.83L10.8,17.09L10.68,17.32L10.5,17.53L10.27,17.73L9.606,18.06L5.166,19.62L3.627,20.23L2.458,20.82L1.992,21.14L1.596,21.47L1.26,21.84L0.9773,22.25L0.74,22.71L0.5402,23.23L0.2211,24.49L0.09395,25.5L0.07988,26.36L0.2209,27.24L0.559,28.34L0.7863,28.67L1.201,28.96L1.782,29.2L2.508,29.4L3.36,29.57L4.314,29.7L6.452,29.88L8.754,29.97L11.05,30L14.98,29.99L18.63,30L18.59,29.96L18.01,29.1L17.54,28.16L17.19,27.16L16.97,26.1L16.9,25L16.94,24.17L17.06,23.37L17.26,22.59L17.54,21.85L17.88,21.14L18.28,20.47L18.75,19.85L19.27,19.27L19.85,18.75L20.47,18.28L20.69,18.15L20.46,18.07L19.79,17.73L19.56,17.54L19.38,17.33L19.26,17.09L19.19,16.84L19.17,16.27L19.9,15.28L20.55,14.18L21.12,13L21.59,11.78L21.97,10.54L22.24,9.312L22.41,8.137L22.47,7.042L22.39,5.502L22.29,4.791L22.15,4.123L21.94,3.499L21.69,2.92L21.37,2.388L20.98,1.905L20.52,1.472L19.99,1.092L19.38,0.7658L18.69,0.4949L17.9,0.2814L17.03,0.1268L16.05,0.03262L14.97,0.0009766zz" fill-rule="evenodd" fill="#d3d3d3"/>
    </g>
    <g id="overlay">
      <path d="M25,18c-3.866,0,-7,3.134,-7,7c0,3.866,3.134,7,7,7s7,-3.134,7,-7C32,21.134,28.866,18,25,18zM26,29.7c0,0.1657,-0.1343,0.3,-0.3,0.3h-1.3c-0.1657,0,-0.3,-0.1343,-0.3,-0.3v-1.4c0,-0.1657,0.1343,-0.3,0.3,-0.3h1.3c0.1657,0,0.3,0.1343,0.3,0.3V29.7zM28.4283,23.4183c-0.0494,0.2139,-0.1361,0.4268,-0.2577,0.6329c-0.1182,0.2,-0.2789,0.4054,-0.478,0.6105c-0.1901,0.1956,-0.4281,0.4128,-0.7076,0.6456c-0.2736,0.2204,-0.4873,0.4029,-0.6389,0.5454c-0.1323,0.1242,-0.2312,0.2491,-0.294,0.3703c-0.0406,0.0782,-0.079,0.1266,-0.1128,0.1635c-0.0006,0.005,-0.0013,0.0129,-0.0021,0.0199c-0.006,0.0608,-0.0129,0.1119,-0.0265,0.1541c-0.0004,0.0209,-0.0008,0.0642,-0.0008,0.124c0,0.1657,-0.1343,0.3156,-0.3,0.3156h-1.164c-0.1657,0,-0.3,-0.15,-0.3,-0.3156c0,-0.2571,0.0076,-0.336,0.0354,-0.4346c0.0073,-0.0258,0.0148,-0.0525,0.0256,-0.1229c0.0416,-0.2726,0.1146,-0.426,0.1992,-0.6037l0.0244,-0.0513c0.0875,-0.1856,0.199,-0.2876,0.3068,-0.3862c0.0453,-0.0414,0.092,-0.0842,0.1406,-0.1368c0.1735,-0.1879,0.4003,-0.4133,0.674,-0.6697c0.1928,-0.1793,0.3677,-0.3331,0.5208,-0.4579c0.1279,-0.1075,0.2385,-0.2153,0.3254,-0.3177c0.0746,-0.0879,0.131,-0.1834,0.1678,-0.2836c0.0366,-0.1001,0.0552,-0.2314,0.0552,-0.3898c0,-0.1953,-0.0373,-0.377,-0.1109,-0.5401c-0.0754,-0.1668,-0.1768,-0.3072,-0.3096,-0.4288c-0.0777,-0.071,-0.1792,-0.1056,-0.3198,-0.153c-0.0512,-0.0173,-0.1042,-0.0358,-0.1588,-0.0563c-0.1869,-0.0701,-0.3968,-0.1068,-0.6236,-0.1068c-0.939,0,-1.4109,0.4198,-1.5781,1.4094c-0.0244,0.1444,-0.1494,0.2453,-0.2958,0.2453h-1.2791c-0.0834,0,-0.1631,-0.03,-0.2198,-0.0911c-0.0568,-0.0611,-0.0855,-0.1384,-0.0793,-0.2216c0.0325,-0.439,0.1408,-0.8453,0.3218,-1.2076c0.1813,-0.3633,0.4279,-0.6788,0.733,-0.9377c0.3024,-0.2565,0.6608,-0.4573,1.0653,-0.5967c0.4007,-0.1381,0.8425,-0.2081,1.3129,-0.2081c0.5076,0,0.9741,0.0697,1.3867,0.2071c0.4167,0.1388,0.7792,0.3338,1.0776,0.5795c0.3034,0.2502,0.541,0.5517,0.7063,0.8961c0.1661,0.3458,0.2503,0.7264,0.2503,1.1312C28.5,22.9877,28.4759,23.2122,28.4283,23.4183z" fill-rule="evenodd" fill="#838383"/>
      <path d="M26,28.3c0,-0.1657,-0.1343,-0.3,-0.3,-0.3h-1.3c-0.1657,0,-0.3,0.1343,-0.3,0.3v1.4c0,0.1657,0.1343,0.3,0.3,0.3h1.3c0.1657,0,0.3,-0.1343,0.3,-0.3V28.3z" fill="#FFFFFF"/>
      <path d="M28.2497,21.6201c-0.1653,-0.3444,-0.4029,-0.6459,-0.7063,-0.8961c-0.2984,-0.2458,-0.6609,-0.4407,-1.0776,-0.5795c-0.4126,-0.1375,-0.8792,-0.2071,-1.3867,-0.2071c-0.4704,0,-0.9122,0.07,-1.3129,0.2081c-0.4045,0.1394,-0.7629,0.3401,-1.0653,0.5967c-0.305,0.2589,-0.5517,0.5744,-0.733,0.9377c-0.181,0.3624,-0.2893,0.7686,-0.3218,1.2076c-0.0062,0.0832,0.0226,0.1604,0.0793,0.2216c0.0567,0.0611,0.1364,0.0911,0.2198,0.0911h1.2791c0.1464,0,0.2714,-0.1009,0.2958,-0.2453c0.1672,-0.9896,0.6391,-1.4094,1.5781,-1.4094c0.2268,0,0.4367,0.0367,0.6236,0.1068c0.0546,0.0205,0.1076,0.039,0.1588,0.0563c0.1405,0.0474,0.242,0.0819,0.3198,0.153c0.1329,0.1216,0.2342,0.262,0.3096,0.4288c0.0736,0.1631,0.1109,0.3449,0.1109,0.5401c0,0.1584,-0.0186,0.2897,-0.0552,0.3898c-0.0368,0.1001,-0.0932,0.1956,-0.1678,0.2836c-0.0869,0.1024,-0.1975,0.2102,-0.3254,0.3177c-0.153,0.1248,-0.328,0.2786,-0.5208,0.4579c-0.2736,0.2564,-0.5004,0.4818,-0.674,0.6697c-0.0486,0.0526,-0.0954,0.0954,-0.1406,0.1368c-0.1078,0.0986,-0.2193,0.2005,-0.3068,0.3862l-0.0244,0.0513c-0.0846,0.1777,-0.1576,0.3311,-0.1992,0.6037c-0.0107,0.0704,-0.0183,0.097,-0.0256,0.1229c-0.0278,0.0985,-0.0354,0.1774,-0.0354,0.4346c0,0.1657,0.1343,0.3156,0.3,0.3156h1.164c0.1657,0,0.3,-0.15,0.3,-0.3156c0,-0.0597,0.0004,-0.103,0.0008,-0.124c0.0136,-0.0422,0.0206,-0.0933,0.0265,-0.1541c0.0007,-0.007,0.0014,-0.0149,0.0021,-0.0199c0.0338,-0.0369,0.0723,-0.0853,0.1128,-0.1635c0.0628,-0.1212,0.1617,-0.2461,0.294,-0.3703c0.1517,-0.1424,0.3653,-0.325,0.6389,-0.5454c0.2795,-0.2328,0.5175,-0.45,0.7076,-0.6456c0.1991,-0.2051,0.3599,-0.4105,0.478,-0.6105c0.1216,-0.2061,0.2083,-0.419,0.2577,-0.6329c0.0476,-0.2061,0.0717,-0.4306,0.0717,-0.6671C28.5,22.3465,28.4158,21.9658,28.2497,21.6201z" fill="#FFFFFF"/>
    </g>
  </g>
</svg>
