<svg version="1.1" id="Layer_1" xmlns="http://www.w3.org/2000/svg" xmlns:xlink="http://www.w3.org/1999/xlink" x="0px" y="0px" width="16px" height="16px" viewBox="0 0 16 16" enable-background="new 0 0 16 16" xml:space="preserve">
  <g id="main">
    <g id="icon">
      <path d="M6.46,0.06289L5.634,0.2473L4.99,0.5463L4.506,0.9531L4.163,1.461L3.943,2.063L3.825,2.753L3.79,3.524L3.819,4.072L3.903,4.659L4.229,5.891L4.465,6.504L4.748,7.093L5.074,7.643L5.441,8.138L5.432,8.424L5.333,8.668L5.127,8.872L4.795,9.04L2.57,9.821L1.799,10.13L1.214,10.42L0.7816,10.75L0.4721,11.14L0.2529,11.63L0.09297,12.26L0.02949,12.76L0.02227,13.19L0.09277,13.63L0.2619,14.18L0.376,14.35L0.5838,14.49L1.239,14.71L2.144,14.86L3.215,14.95L5.52,15.02L7.281,15.01L6.98,14.63L6.641,14.07L6.368,13.48L6.167,12.85L6.043,12.19L6,11.5L6.029,10.94L6.112,10.39L6.248,9.866L6.433,9.361L6.665,8.88L6.941,8.427L7.257,8.004L7.613,7.613L8.004,7.257L8.427,6.941L8.88,6.665L9.361,6.433L9.866,6.248L10.39,6.112L10.74,6.059L10.8,5.893L11.13,4.66L11.21,4.072L11.24,3.524L11.2,2.753L11.08,2.063L10.85,1.461L10.49,0.9531L10,0.5463L9.346,0.2473L8.513,0.06289L7.485,0zz" fill-rule="evenodd" fill="#d3d3d3"/>
    </g>
    <g id="overlay">
      <path d="M11.5,7c-2.4853,0,-4.5,2.0147,-4.5,4.5c0,2.4853,2.0147,4.5,4.5,4.5s4.5,-2.0147,4.5,-4.5C16,9.0147,13.9853,7,11.5,7zM12,14.6427c0,0.0869,-0.0704,0.1573,-0.1573,0.1573h-0.7853c-0.0869,0,-0.1573,-0.0704,-0.1573,-0.1573v-0.7853c0,-0.0869,0.0704,-0.1573,0.1573,-0.1573h0.7853c0.0869,0,0.1573,0.0704,0.1573,0.1573V14.6427zM13.5629,10.7257c-0.0301,0.1302,-0.0831,0.2602,-0.1574,0.3863c-0.0724,0.1226,-0.1714,0.2488,-0.294,0.3751c-0.116,0.1194,-0.2638,0.254,-0.438,0.3991c-0.1785,0.1438,-0.3098,0.2555,-0.4012,0.3413c-0.0875,0.0822,-0.1494,0.1604,-0.1894,0.2374c-0.019,0.0367,-0.0377,0.0593,-0.0542,0.0788l-0.0186,0.0231l-0.003,0.0312c-0.0027,0.0261,-0.0057,0.0472,-0.0124,0.07l-0.0039,0.0836c0,0.0934,-0.0813,0.1484,-0.1573,0.1484h-0.7263c-0.076,0,-0.1573,-0.055,-0.1573,-0.1484c0,-0.1487,0.0033,-0.1819,0.021,-0.2444c0.0049,-0.0173,0.0096,-0.0337,0.0168,-0.0802c0.0253,-0.1658,0.0678,-0.2551,0.1217,-0.3683l0.0153,-0.0321c0.0521,-0.1105,0.1194,-0.172,0.1845,-0.2316c0.0304,-0.0278,0.0591,-0.0542,0.0895,-0.0871c0.1078,-0.1168,0.2488,-0.2569,0.4187,-0.4161c0.1203,-0.1119,0.2292,-0.2077,0.3247,-0.2856c0.0814,-0.0685,0.1507,-0.1362,0.2059,-0.2013c0.0495,-0.0585,0.0855,-0.1194,0.1098,-0.186c0.0241,-0.0658,0.0363,-0.1512,0.0363,-0.2536c0,-0.1281,-0.0235,-0.2426,-0.0719,-0.3497c-0.049,-0.1084,-0.1145,-0.1995,-0.2001,-0.2778c-0.0511,-0.0468,-0.1135,-0.0706,-0.2101,-0.1032c-0.0233,-0.0079,-0.0472,-0.0183,-0.0717,-0.0276l-0.0265,-0.0128c-0.1265,-0.0475,-0.261,-0.0768,-0.3995,-0.0768c-0.6045,0,-0.9077,0.258,-1.0141,0.8876c-0.0145,0.0858,-0.0926,0.0949,-0.1551,0.0949h-0.798c-0.0739,0,-0.1012,0.0012,-0.1153,-0.014c-0.0329,-0.0354,-0.0445,-0.0431,-0.0416,-0.0824c0.0201,-0.2701,0.0866,-0.5198,0.1977,-0.7424c0.1113,-0.223,0.2627,-0.4167,0.45,-0.5756c0.1857,-0.1576,0.4061,-0.281,0.655,-0.3668c0.247,-0.0851,0.5193,-0.1282,0.8094,-0.1282c0.3134,0,0.6013,0.043,0.8558,0.1277c0.2566,0.0855,0.4796,0.2053,0.6628,0.3563c0.186,0.1534,0.3316,0.3381,0.4329,0.549c0.1016,0.2118,0.1531,0.4449,0.1531,0.6928C13.6067,10.4615,13.592,10.5992,13.5629,10.7257z" fill-rule="evenodd" fill="#838383"/>
      <path d="M12,13.8574c0,-0.0869,-0.0704,-0.1574,-0.1573,-0.1574h-0.7853c-0.0869,0,-0.1573,0.0704,-0.1573,0.1574v0.7853c0,0.0869,0.0704,0.1574,0.1573,0.1574h0.7853c0.0869,0,0.1573,-0.0704,0.1573,-0.1574V13.8574z" fill="#FFFFFF"/>
      <path d="M12.2722,12.2275c0.0915,-0.0859,0.2227,-0.1975,0.4012,-0.3413c0.1742,-0.1451,0.322,-0.2797,0.438,-0.3991c0.1227,-0.1263,0.2216,-0.2525,0.294,-0.3751c0.0744,-0.1261,0.1273,-0.2561,0.1574,-0.3863c0.0291,-0.1264,0.0439,-0.2642,0.0439,-0.4093c0,-0.2479,-0.0515,-0.481,-0.1531,-0.6928c-0.1013,-0.2109,-0.2469,-0.3956,-0.4329,-0.549c-0.1831,-0.1509,-0.4061,-0.2708,-0.6627,-0.3563c-0.2545,-0.0848,-0.5424,-0.1278,-0.8558,-0.1278c-0.2901,0,-0.5625,0.0432,-0.8094,0.1282c-0.2489,0.0858,-0.4693,0.2092,-0.655,0.3668c-0.1873,0.1589,-0.3386,0.3526,-0.45,0.5756c-0.1112,0.2226,-0.1777,0.4723,-0.1977,0.7424c-0.0029,0.0394,0.0088,0.0471,0.0416,0.0824c0.0141,0.0152,0.0414,0.014,0.1153,0.014h0.798c0.0625,0,0.1406,-0.0091,0.1551,-0.0949c0.1063,-0.6297,0.4096,-0.8876,1.0141,-0.8876c0.1386,0,0.273,0.0294,0.3995,0.0768l0.0265,0.0128c0.0245,0.0093,0.0484,0.0197,0.0717,0.0276c0.0966,0.0326,0.159,0.0564,0.2101,0.1032c0.0857,0.0783,0.1511,0.1694,0.2001,0.2778c0.0484,0.1071,0.0719,0.2216,0.0719,0.3497c0,0.1024,-0.0122,0.1878,-0.0363,0.2536c-0.0244,0.0666,-0.0603,0.1275,-0.1098,0.186c-0.0552,0.0651,-0.1245,0.1328,-0.2059,0.2013c-0.0955,0.0779,-0.2044,0.1737,-0.3247,0.2856c-0.17,0.1592,-0.3109,0.2992,-0.4187,0.4161c-0.0305,0.0329,-0.0591,0.0593,-0.0895,0.0871c-0.0651,0.0596,-0.1325,0.1211,-0.1845,0.2316l-0.0153,0.0321c-0.0539,0.1132,-0.0965,0.2025,-0.1217,0.3683c-0.0071,0.0465,-0.0119,0.0629,-0.0168,0.0802c-0.0177,0.0625,-0.021,0.0957,-0.021,0.2444c0,0.0934,0.0813,0.1484,0.1573,0.1484h0.7263c0.0761,0,0.1573,-0.055,0.1573,-0.1484l0.0039,-0.0836c0.0066,-0.0228,0.0097,-0.0439,0.0124,-0.07l0.003,-0.0312l0.0186,-0.0231c0.0165,-0.0194,0.0352,-0.0421,0.0542,-0.0788C12.1227,12.3879,12.1847,12.3097,12.2722,12.2275z" fill="#FFFFFF"/>
    </g>
  </g>
</svg>
