<svg version="1.1" id="Layer_1" xmlns="http://www.w3.org/2000/svg" xmlns:xlink="http://www.w3.org/1999/xlink" x="0px" y="0px" width="16px" height="16px" viewBox="0 0 16 16" enable-background="new 0 0 16 16" xml:space="preserve">
  <g id="icon">
    <path d="M13.825,15.5H2.175C1.254,15.5,0.5,14.746,0.5,13.825v-8.65C0.5,4.254,1.254,3.5,2.175,3.5h11.65c0.921,0,1.675,0.754,1.675,1.675v8.65C15.5,14.746,14.746,15.5,13.825,15.5z" fill="#FFFFFF"/>
    <path d="M9.368,12.534c-0.186,-1.01,-0.516,-1.027,-2.324,-1.715c-0.264,-0.107,-0.338,-0.26,-0.319,-0.48c0.51,-0.657,0.817,-1.719,0.817,-2.461c0,-1.15,-0.364,-1.878,-1.856,-1.878c-0.006,0,0.002,0,0,0c-1.492,0,-1.826,0.728,-1.826,1.878c0,0.742,0.306,1.803,0.816,2.459c0.02,0.219,-0.055,0.374,-0.319,0.481c-1.807,0.688,-2.138,0.705,-2.324,1.715c-0.056,0.406,-0.065,0.576,0.084,1.026c0.167,0.507,2.534,0.44,3.57,0.44c0.004,0,-0.007,0,0,0c1.036,0,3.43,0.067,3.598,-0.44C9.433,13.11,9.424,12.94,9.368,12.534z" fill-rule="evenodd" fill="#217346"/>
    <path d="M10.5,10.5h3M10.5,8.5h3M10.5,12.5h3" fill="none" stroke="#B4B4B5" stroke-width="1" stroke-linecap="round" stroke-miterlimit="10"/>
    <path d="M9.5,0.017H6.5c-0.276,0,-0.5,0.224,-0.5,0.5V4.5c0,0.276,0.224,0.5,0.5,0.5h3c0.276,0,0.5,-0.224,0.5,-0.5V0.517C10,0.241,9.776,0.017,9.5,0.017zM8,3c-0.552,0,-1,-0.448,-1,-1c0,-0.552,0.448,-1,1,-1s1,0.448,1,1C9,2.552,8.552,3,8,3z" fill="#797979"/>
    <path d="M13.825,3H11c-0.276,0,-0.5,0.224,-0.5,0.5v0c0,0.276,0.224,0.5,0.5,0.5h2.825c0.649,0,1.175,0.526,1.175,1.175v8.65c0,0.649,-0.526,1.175,-1.175,1.175H2.175C1.526,15,1,14.474,1,13.825v-8.65C1,4.526,1.526,4,2.175,4H5c0.276,0,0.5,-0.224,0.5,-0.5v0c0,-0.276,-0.224,-0.5,-0.5,-0.5H2.175C0.974,3,0,3.974,0,5.175v8.65C0,15.026,0.974,16,2.175,16h11.65c1.201,0,2.175,-0.974,2.175,-2.175v-8.65C16,3.974,15.026,3,13.825,3z" fill="#797979"/>
  </g>
</svg>
