<svg version="1.1" id="Layer_1" xmlns="http://www.w3.org/2000/svg" xmlns:xlink="http://www.w3.org/1999/xlink" x="0px" y="0px" width="16px" height="16px" viewBox="0 0 16 16" enable-background="new 0 0 16 16" xml:space="preserve">
  <g id="icon">
    <path d="M10.976,11.776c-0.276,-1.53,-0.767,-1.555,-3.45,-2.596c-0.392,-0.162,-0.502,-0.394,-0.473,-0.726c0.757,-0.994,1.213,-2.602,1.213,-3.726c0,-1.741,-0.541,-2.844,-2.756,-2.844c-0.009,0,0.003,0,0,0c-2.215,0,-2.711,1.103,-2.711,2.844c0,1.124,0.454,2.729,1.211,3.723c0.029,0.332,-0.082,0.566,-0.474,0.728C0.853,10.22,0.362,10.246,0.086,11.776c-0.083,0.615,-0.097,0.873,0.124,1.554c0.249,0.767,3.762,0.667,5.3,0.667c0.006,0,-0.011,0,0,0c1.538,0,5.093,0.101,5.342,-0.666C11.073,12.649,11.059,12.391,10.976,11.776z" fill-rule="evenodd" fill="#217346"/>
    <path d="M16.015,7.506v-0.01c0,-0.273,-0.222,-0.495,-0.495,-0.495h-5.51c-0.273,0,-0.495,0.222,-0.495,0.495v0.01c0,0.273,0.222,0.495,0.495,0.495h5.51C15.794,8.001,16.015,7.779,16.015,7.506zM16.015,4.506v-0.01c0,-0.273,-0.222,-0.495,-0.495,-0.495h-5.51c-0.273,0,-0.495,0.222,-0.495,0.495v0.01c0,0.273,0.222,0.495,0.495,0.495h5.51C15.794,5.001,16.015,4.779,16.015,4.506zM16.015,10.506v-0.01c0,-0.273,-0.222,-0.495,-0.495,-0.495h-3.51c-0.273,0,-0.495,0.222,-0.495,0.495v0.01c0,0.273,0.222,0.495,0.495,0.495h3.51C15.794,11.001,16.015,10.779,16.015,10.506z" fill-rule="evenodd" fill="#797979"/>
  </g>
</svg>
