<svg version="1.1" id="Layer_1" xmlns="http://www.w3.org/2000/svg" xmlns:xlink="http://www.w3.org/1999/xlink" x="0px" y="0px" width="32px" height="32px" viewBox="0 0 32 32" enable-background="new 0 0 32 32" xml:space="preserve">
  <g id="icon">
    <path d="M20.158,19.966c1.836,-0.069,3.605,-0.328,5.136,-1.421c0.319,-0.228,0.321,-0.706,-0.001,-0.928c-1.041,-0.718,-1.404,-1.86,-1.601,-3.047c-0.209,-1.262,-0.274,-2.558,-0.293,-3.84c-0.027,-1.848,-0.119,-3.669,-0.715,-5.445c-1.1,-3.274,-4.239,-4.451,-6.712,-4.268c-0.862,0.064,-1.646,0.407,-2.33,0.963c-0.17,0.139,-0.418,0.269,-0.625,0.263c-2.075,-0.066,-3.316,1.16,-3.979,2.782c-0.441,1.077,-0.671,2.213,-0.695,3.365c-0.027,1.33,0.055,2.663,0.117,3.994c0.064,1.379,-0.033,2.724,-0.692,3.971c-0.308,0.582,-0.59,0.923,-1.09,1.28c-0.32,0.229,-0.323,0.7,-0.004,0.931c0.924,0.668,2.623,1.119,5.139,1.361c-1.436,4.226,-10.755,0.843,-10.755,9.634C1.058,30.95,5.675,31,8,31c0.759,0,5.162,0,7.558,0c0.033,0,0.068,0,0.1,0c0.238,0,0.453,0,0.642,0c0.034,0,0.068,0,0.1,0c2.396,0,6.8,0,7.558,0c2.325,0,6.942,-0.05,6.942,-1.439C30.9,20.797,21.637,24.134,20.158,19.966z" fill="#d3d3d3"/>
  </g>
</svg>