<svg version="1.1" id="Layer_1" xmlns="http://www.w3.org/2000/svg" xmlns:xlink="http://www.w3.org/1999/xlink" x="0px" y="0px" width="32px" height="32px" viewBox="0 0 32 32" enable-background="new 0 0 32 32" xml:space="preserve">
  <g id="main">
    <g id="icon">
      <path d="M14.97,0.01699L14.34,0.1162L13.74,0.3141L13.17,0.6039L12.64,0.9801L12.34,1.166L12.02,1.243L11.28,1.277L10.61,1.422L10.02,1.667L9.498,2.001L9.041,2.415L8.648,2.897L8.314,3.437L8.038,4.025L7.747,4.843L7.534,5.679L7.4,6.53L7.343,7.39L7.368,9.387L7.46,11.38L7.471,12.41L7.385,13.42L7.163,14.4L6.768,15.36L6.295,16.08L6.016,16.37L5.678,16.63L5.497,16.84L5.436,17.1L5.495,17.36L5.674,17.57L6.057,17.81L6.513,18.03L7.646,18.41L9.079,18.71L10.81,18.93L10.66,19.3L10.46,19.63L10.22,19.93L9.939,20.19L9.287,20.63L8.527,20.98L7.682,21.26L6.779,21.51L4.897,22.03L3.969,22.36L3.082,22.76L2.263,23.28L1.537,23.94L1.216,24.33L0.9275,24.77L0.675,25.26L0.4613,25.8L0.2895,26.39L0.1631,27.05L0.08477,27.77L0.05801,28.56L0.1104,28.81L0.2609,29.02L0.4994,29.21L0.8158,29.37L1.641,29.63L2.657,29.8L3.782,29.91L4.934,29.97L7,30L14.56,30L14.66,30L15.3,30L15.4,30L18.63,30L18.59,29.96L18.01,29.1L17.54,28.16L17.19,27.16L16.97,26.1L16.9,25L16.94,24.17L17.06,23.37L17.26,22.59L17.54,21.85L17.88,21.14L18.28,20.47L18.75,19.85L19.27,19.27L19.29,19.26L19.16,18.97L19.65,18.93L19.85,18.75L20.47,18.28L21.14,17.88L21.85,17.54L22.59,17.26L23.37,17.06L24.17,16.94L24.5,16.93L24.47,16.82L24.29,16.62L23.93,16.33L23.63,16L23.38,15.65L23.18,15.27L22.88,14.45L22.69,13.57L22.47,11.66L22.4,9.73L22.36,8.349L22.25,6.98L22.04,5.625L21.68,4.285L21.45,3.696L21.18,3.154L20.87,2.66L20.52,2.211L20.14,1.807L19.73,1.447L18.84,0.8547L17.89,0.4238L16.91,0.1463L15.93,0.01348zz" fill="#d3d3d3"/>
    </g>
    <g id="overlay">
      <path d="M25,18c-3.866,0,-7,3.134,-7,7c0,3.866,3.134,7,7,7s7,-3.134,7,-7C32,21.134,28.866,18,25,18zM26,29.7c0,0.1657,-0.1343,0.3,-0.3,0.3h-1.3c-0.1657,0,-0.3,-0.1343,-0.3,-0.3v-1.4c0,-0.1657,0.1343,-0.3,0.3,-0.3h1.3c0.1657,0,0.3,0.1343,0.3,0.3V29.7zM28.4283,23.4183c-0.0494,0.2139,-0.1361,0.4268,-0.2577,0.6329c-0.1182,0.2,-0.2789,0.4054,-0.478,0.6105c-0.1901,0.1956,-0.4281,0.4128,-0.7076,0.6456c-0.2736,0.2204,-0.4873,0.4029,-0.6389,0.5454c-0.1323,0.1242,-0.2312,0.2491,-0.294,0.3703c-0.0406,0.0782,-0.079,0.1266,-0.1128,0.1635c-0.0006,0.005,-0.0013,0.0129,-0.0021,0.0199c-0.006,0.0608,-0.0129,0.1119,-0.0265,0.1541c-0.0004,0.0209,-0.0008,0.0642,-0.0008,0.124c0,0.1657,-0.1343,0.3156,-0.3,0.3156h-1.164c-0.1657,0,-0.3,-0.15,-0.3,-0.3156c0,-0.2571,0.0076,-0.336,0.0354,-0.4346c0.0073,-0.0258,0.0148,-0.0525,0.0256,-0.1229c0.0416,-0.2726,0.1146,-0.426,0.1992,-0.6037l0.0244,-0.0513c0.0875,-0.1856,0.199,-0.2876,0.3068,-0.3862c0.0453,-0.0414,0.092,-0.0842,0.1406,-0.1368c0.1735,-0.1879,0.4003,-0.4133,0.674,-0.6697c0.1928,-0.1793,0.3677,-0.3331,0.5208,-0.4579c0.1279,-0.1075,0.2385,-0.2153,0.3254,-0.3177c0.0746,-0.0879,0.131,-0.1834,0.1678,-0.2836c0.0366,-0.1001,0.0552,-0.2314,0.0552,-0.3898c0,-0.1953,-0.0373,-0.377,-0.1109,-0.5401c-0.0754,-0.1668,-0.1768,-0.3072,-0.3096,-0.4288c-0.0777,-0.071,-0.1792,-0.1056,-0.3198,-0.153c-0.0512,-0.0173,-0.1042,-0.0358,-0.1588,-0.0563c-0.1869,-0.0701,-0.3968,-0.1068,-0.6236,-0.1068c-0.939,0,-1.4109,0.4198,-1.5781,1.4094c-0.0244,0.1444,-0.1494,0.2453,-0.2958,0.2453h-1.2791c-0.0834,0,-0.1631,-0.03,-0.2198,-0.0911c-0.0568,-0.0611,-0.0855,-0.1384,-0.0793,-0.2216c0.0325,-0.439,0.1408,-0.8453,0.3218,-1.2076c0.1813,-0.3633,0.4279,-0.6788,0.733,-0.9377c0.3024,-0.2565,0.6608,-0.4573,1.0653,-0.5967c0.4007,-0.1381,0.8425,-0.2081,1.3129,-0.2081c0.5076,0,0.9741,0.0697,1.3867,0.2071c0.4167,0.1388,0.7792,0.3338,1.0776,0.5795c0.3034,0.2502,0.541,0.5517,0.7063,0.8961c0.1661,0.3458,0.2503,0.7264,0.2503,1.1312C28.5,22.9877,28.4759,23.2122,28.4283,23.4183z" fill-rule="evenodd" fill="#838383"/>
      <path d="M26,28.3c0,-0.1657,-0.1343,-0.3,-0.3,-0.3h-1.3c-0.1657,0,-0.3,0.1343,-0.3,0.3v1.4c0,0.1657,0.1343,0.3,0.3,0.3h1.3c0.1657,0,0.3,-0.1343,0.3,-0.3V28.3z" fill="#FFFFFF"/>
      <path d="M28.2497,21.6201c-0.1653,-0.3444,-0.4029,-0.6459,-0.7063,-0.8961c-0.2984,-0.2458,-0.6609,-0.4407,-1.0776,-0.5795c-0.4126,-0.1375,-0.8792,-0.2071,-1.3867,-0.2071c-0.4704,0,-0.9122,0.07,-1.3129,0.2081c-0.4045,0.1394,-0.7629,0.3401,-1.0653,0.5967c-0.305,0.2589,-0.5517,0.5744,-0.733,0.9377c-0.181,0.3624,-0.2893,0.7686,-0.3218,1.2076c-0.0062,0.0832,0.0226,0.1604,0.0793,0.2216c0.0567,0.0611,0.1364,0.0911,0.2198,0.0911h1.2791c0.1464,0,0.2714,-0.1009,0.2958,-0.2453c0.1672,-0.9896,0.6391,-1.4094,1.5781,-1.4094c0.2268,0,0.4367,0.0367,0.6236,0.1068c0.0546,0.0205,0.1076,0.039,0.1588,0.0563c0.1405,0.0474,0.242,0.0819,0.3198,0.153c0.1329,0.1216,0.2342,0.262,0.3096,0.4288c0.0736,0.1631,0.1109,0.3449,0.1109,0.5401c0,0.1584,-0.0186,0.2897,-0.0552,0.3898c-0.0368,0.1001,-0.0932,0.1956,-0.1678,0.2836c-0.0869,0.1024,-0.1975,0.2102,-0.3254,0.3177c-0.153,0.1248,-0.328,0.2786,-0.5208,0.4579c-0.2736,0.2564,-0.5004,0.4818,-0.674,0.6697c-0.0486,0.0526,-0.0954,0.0954,-0.1406,0.1368c-0.1078,0.0986,-0.2193,0.2005,-0.3068,0.3862l-0.0244,0.0513c-0.0846,0.1777,-0.1576,0.3311,-0.1992,0.6037c-0.0107,0.0704,-0.0183,0.097,-0.0256,0.1229c-0.0278,0.0985,-0.0354,0.1774,-0.0354,0.4346c0,0.1657,0.1343,0.3156,0.3,0.3156h1.164c0.1657,0,0.3,-0.15,0.3,-0.3156c0,-0.0597,0.0004,-0.103,0.0008,-0.124c0.0136,-0.0422,0.0206,-0.0933,0.0265,-0.1541c0.0007,-0.007,0.0014,-0.0149,0.0021,-0.0199c0.0338,-0.0369,0.0723,-0.0853,0.1128,-0.1635c0.0628,-0.1212,0.1617,-0.2461,0.294,-0.3703c0.1517,-0.1424,0.3653,-0.325,0.6389,-0.5454c0.2795,-0.2328,0.5175,-0.45,0.7076,-0.6456c0.1991,-0.2051,0.3599,-0.4105,0.478,-0.6105c0.1216,-0.2061,0.2083,-0.419,0.2577,-0.6329c0.0476,-0.2061,0.0717,-0.4306,0.0717,-0.6671C28.5,22.3465,28.4158,21.9658,28.2497,21.6201z" fill="#FFFFFF"/>
    </g>
  </g>
</svg>