<svg version="1.1" id="Layer_1" xmlns="http://www.w3.org/2000/svg" xmlns:xlink="http://www.w3.org/1999/xlink" x="0px" y="0px" width="32px" height="32px" viewBox="0 0 32 32" enable-background="new 0 0 32 32" xml:space="preserve">
  <g id="icon">
    <path d="M20.932,22.962c-0.501,-2.777,-1.392,-2.823,-6.263,-4.713c-0.711,-0.294,-0.912,-0.716,-0.859,-1.319c1.374,-1.805,2.202,-4.724,2.202,-6.765c0,-3.16,-0.982,-5.162,-5.002,-5.162c-0.017,0,0.005,0,0,0c-4.021,0,-4.922,2.002,-4.922,5.162c0,2.041,0.825,4.954,2.199,6.759c0.053,0.603,-0.149,1.028,-0.86,1.321c-4.871,1.89,-5.763,1.938,-6.264,4.715c-0.151,1.116,-0.176,1.584,0.225,2.821c0.451,1.392,6.83,1.21,9.622,1.21c0.011,0,-0.019,0,0,0c2.792,0,9.245,0.183,9.697,-1.209C21.107,24.546,21.083,24.078,20.932,22.962z" fill-rule="evenodd" fill="#217346"/>
    <path d="M30.01,11H19.99c-0.547,0,-0.99,-0.443,-0.99,-0.99v-0.02c0,-0.547,0.443,-0.99,0.99,-0.99h10.02c0.547,0,0.99,0.443,0.99,0.99v0.02C31,10.557,30.557,11,30.01,11zM31,14.01v-0.02c0,-0.547,-0.443,-0.99,-0.99,-0.99H18.99c-0.547,0,-0.99,0.443,-0.99,0.99v0.02c0,0.547,0.443,0.99,0.99,0.99h11.02C30.557,15,31,14.557,31,14.01zM31,18.01v-0.02c0,-0.547,-0.443,-0.99,-0.99,-0.99h-9.02c-0.547,0,-0.99,0.443,-0.99,0.99v0.02c0,0.547,0.443,0.99,0.99,0.99h9.02C30.557,19,31,18.557,31,18.01z" fill-rule="evenodd" fill="#797979"/>
  </g>
</svg>
