<svg version="1.1" id="Layer_1" xmlns="http://www.w3.org/2000/svg" xmlns:xlink="http://www.w3.org/1999/xlink" x="0px" y="0px" width="32px" height="32px" viewBox="0 0 32 32" enable-background="new 0 0 32 32" xml:space="preserve">
  <g id="icon">
    <path d="M28.825,6.5H3.175C2.254,6.5,1.5,7.254,1.5,8.175v18.65c0,0.921,0.754,1.675,1.675,1.675h25.65c0.921,0,1.675,-0.754,1.675,-1.675V8.175C30.5,7.254,29.746,6.5,28.825,6.5zM19,11.5h-6c-0.828,0,-1.5,-0.672,-1.5,-1.5v0c0,-0.828,0.672,-1.5,1.5,-1.5h6c0.828,0,1.5,0.672,1.5,1.5v0C20.5,10.828,19.828,11.5,19,11.5z" fill="#FFFFFF" stroke="#797979" stroke-width="1" stroke-linecap="round" stroke-miterlimit="10"/>
    <path d="M15.939,23.616c-0.302,-1.64,-0.838,-1.667,-3.771,-2.783c-0.428,-0.173,-0.549,-0.423,-0.517,-0.779c0.827,-1.066,1.326,-2.789,1.326,-3.994c0,-1.866,-0.591,-3.048,-3.012,-3.048c-0.01,0,0.003,0,0,0c-2.421,0,-2.963,1.182,-2.963,3.048c0,1.205,0.497,2.925,1.324,3.991c0.032,0.356,-0.09,0.607,-0.518,0.78c-2.933,1.116,-3.47,1.144,-3.772,2.784c-0.091,0.659,-0.106,0.935,0.136,1.666c0.272,0.822,4.112,0.715,5.794,0.715c0.007,0,-0.012,0,0,0c1.681,0,5.567,0.108,5.839,-0.714C16.045,24.551,16.03,24.275,15.939,23.616z" fill-rule="evenodd" fill="#217346"/>
    <path d="M18.493,23.5H27.5M18.493,21.5H27.5M18.493,19.5H27.5M18.493,17.5H27.5M18.493,15.5H27.5" fill="none" stroke="#B4B4B5" stroke-width="1" stroke-linecap="round" stroke-miterlimit="10"/>
    <path d="M18.31,1h-4.62c-0.381,0,-0.69,0.299,-0.69,0.668v7.665c0,0.369,0.309,0.668,0.69,0.668h4.62c0.381,0,0.69,-0.299,0.69,-0.668V1.668C19,1.299,18.691,1,18.31,1zM16,5.355c-0.828,0,-1.5,-0.65,-1.5,-1.452c0,-0.802,0.672,-1.452,1.5,-1.452s1.5,0.65,1.5,1.452C17.5,4.705,16.828,5.355,16,5.355z" fill="#797979"/>
  </g>
</svg>
