<svg version="1.1" id="Layer_1" xmlns="http://www.w3.org/2000/svg" xmlns:xlink="http://www.w3.org/1999/xlink" x="0px" y="0px" width="32px" height="32px" viewBox="0 0 32 32" enable-background="new 0 0 32 32" xml:space="preserve">
  <g id="icon">
    <path d="M24.762,30.15c-0.384,1.08,-5.882,0.938,-8.261,0.938c-0.016,0,0.01,0,0,0c-2.379,0,-7.813,0.141,-8.197,-0.939c-0.342,-0.959,-0.32,-1.322,-0.192,-2.188c0.427,-2.154,1.186,-2.191,5.337,-3.657c0.606,-0.228,0.778,-0.557,0.733,-1.025c-1.171,-1.4,-1.873,-3.659,-1.873,-5.242c0,-2.451,0.767,-4.004,4.193,-4.004c0.005,0,-0.014,0,0,0c3.426,0,4.262,1.553,4.262,4.004c0,1.583,-0.705,3.847,-1.876,5.247c-0.045,0.467,0.126,0.795,0.732,1.023c4.15,1.466,4.909,1.502,5.336,3.656C25.082,28.828,25.103,29.19,24.762,30.15zM11.957,23.766c0.325,-0.113,0.677,-0.235,1.058,-0.369c-1.17,-1.688,-1.707,-3.896,-1.707,-5.359c0,-1.027,0.11,-2.517,1.066,-3.587c0.363,-0.407,0.818,-0.724,1.369,-0.954c0.012,-0.157,0.02,-0.312,0.02,-0.459c0,-2.451,-0.836,-4.004,-4.262,-4.004c-3.426,0,-4.193,1.553,-4.193,4.004c0,1.583,0.703,3.843,1.873,5.242c0.045,0.467,-0.127,0.797,-0.733,1.025c-4.15,1.466,-4.91,1.503,-5.337,3.657c-0.128,0.866,-0.15,1.229,0.192,2.188c0.306,0.859,3.807,0.945,6.424,0.945C8.413,24.996,9.632,24.573,11.957,23.766z" fill-rule="evenodd" fill="#fff"/>
    <path d="M30.867,17.889c0,0,-6.07,-5.981,-8.02,-7.932c0.259,-0.705,0.401,-1.467,0.401,-2.261c0,-3.189,-2.278,-5.846,-5.297,-6.439c-0.471,-0.129,-0.963,-0.206,-1.469,-0.22c-3.636,-0.105,-6.604,2.87,-6.477,6.505c0.002,0.069,0.009,0.137,0.013,0.205c3.324,0.153,4.978,1.821,5.043,5.086c0.44,-0.066,0.918,-0.099,1.435,-0.099c0,0,0.004,0,0.005,0c2.175,0,3.699,0.587,4.595,1.778l0.087,-0.09l0.817,0.729v1.816c0.033,0.268,0.052,0.55,0.059,0.844c0.069,0.113,0.193,0.189,0.335,0.189H24v1.537c0,0.256,0.207,0.463,0.463,0.463H26v1.537c0,0.255,0.207,0.463,0.463,0.463h4.075c0.255,0,0.463,-0.207,0.463,-0.463v-3.324C31,18.092,30.952,17.975,30.867,17.889zM14.834,7.662c-0.974,0,-1.764,-0.79,-1.764,-1.764c0,-0.974,0.79,-1.764,1.764,-1.764s1.764,0.79,1.764,1.764C16.598,6.873,15.808,7.662,14.834,7.662z" fill="#EAB765"/>
  </g>
</svg>
