<svg version="1.1" id="Layer_1" xmlns="http://www.w3.org/2000/svg" xmlns:xlink="http://www.w3.org/1999/xlink" x="0px" y="0px" width="16px" height="16px" viewBox="0 0 16 16" enable-background="new 0 0 16 16" xml:space="preserve">
  <g id="icon">
    <path d="M10.24,10.115c0.985,-0.037,1.933,-0.175,2.754,-0.758c0.171,-0.121,0.172,-0.376,-0.001,-0.495c-0.558,-0.383,-0.753,-0.992,-0.858,-1.625c-0.112,-0.673,-0.147,-1.364,-0.157,-2.048c-0.015,-0.986,-0.064,-1.957,-0.383,-2.904C11.005,0.54,9.322,-0.088,7.996,0.01c-0.462,0.034,-0.882,0.217,-1.249,0.514c-0.091,0.074,-0.224,0.144,-0.335,0.14c-1.113,-0.035,-1.778,0.619,-2.134,1.484c-0.236,0.575,-0.36,1.18,-0.372,1.795c-0.015,0.709,0.03,1.421,0.063,2.13c0.035,0.735,-0.018,1.453,-0.371,2.118c-0.165,0.311,-0.316,0.492,-0.584,0.682c-0.172,0.122,-0.173,0.373,-0.002,0.496c0.496,0.356,1.406,0.597,2.756,0.726C4.996,12.349,0,10.544,0,15.233c0,0.741,2.475,0.767,3.722,0.767c0.407,0,2.768,0,4.052,0c0.018,0,0.036,0,0.054,0c0.128,0,0.243,0,0.344,0c0.018,0,0.037,0,0.054,0c1.285,0,3.646,0,4.052,0c1.247,0,3.722,-0.027,3.722,-0.767C16,10.559,11.034,12.338,10.24,10.115z" fill="#d3d3d3"/>
  </g>
</svg>
