<svg version="1.1" id="Layer_1" xmlns="http://www.w3.org/2000/svg" xmlns:xlink="http://www.w3.org/1999/xlink" x="0px" y="0px" width="32px" height="32px" viewBox="0 0 32 32" enable-background="new 0 0 32 32" xml:space="preserve">
  <g id="icon">
    <path d="M28.983,13H20.2c-0.11,0,-0.2,-0.09,-0.2,-0.2v-0.963c0,-0.151,0.085,-0.289,0.22,-0.356c1.712,-0.85,2.869,-2.652,2.775,-4.714c-0.117,-2.575,-2.217,-4.661,-4.792,-4.763C15.349,1.891,13,4.171,13,7c0,1.964,1.132,3.662,2.779,4.48c0.135,0.067,0.221,0.206,0.221,0.357V12.8c0,0.11,-0.09,0.2,-0.2,0.2h-1.783c-1.114,0,-2.017,0.903,-2.017,2.017V17.8c0,0.11,-0.09,0.2,-0.2,0.2h-0.963c-0.151,0,-0.289,-0.085,-0.356,-0.22c-0.85,-1.712,-2.652,-2.869,-4.714,-2.775c-2.575,0.117,-4.661,2.217,-4.763,4.792C0.891,22.651,3.171,25,6,25c1.964,0,3.662,-1.132,4.48,-2.779c0.067,-0.135,0.206,-0.221,0.357,-0.221H11.8c0.11,0,0.2,0.09,0.2,0.2v5.783c0,1.114,0.903,2.017,2.017,2.017h14.967c1.114,0,2.017,-0.903,2.017,-2.017V15.017C31,13.903,30.097,13,28.983,13zM15.8,7c0,-1.215,0.985,-2.2,2.2,-2.2s2.2,0.985,2.2,2.2c0,1.215,-0.985,2.2,-2.2,2.2S15.8,8.215,15.8,7zM6,22.2c-1.215,0,-2.2,-0.985,-2.2,-2.2s0.985,-2.2,2.2,-2.2c1.215,0,2.2,0.985,2.2,2.2S7.215,22.2,6,22.2z" fill="#fff"/>
  </g>
</svg>
