<svg version="1.1" id="Layer_1" xmlns="http://www.w3.org/2000/svg" xmlns:xlink="http://www.w3.org/1999/xlink" x="0px" y="0px" width="16px" height="16px" viewBox="0 0 16 16" enable-background="new 0 0 16 16" xml:space="preserve">
  <g id="main">
    <g id="icon">
      <path d="M8.618,0.1037L8.099,0.2475L7.628,0.4877L7.217,0.8129L6.877,1.212L6.62,1.672L6.457,2.183L6.4,2.733L6.428,3.118L6.508,3.487L6.638,3.834L6.812,4.157L7.28,4.712L7.566,4.937L7.882,5.122L7.968,5.201L8,5.312L8.008,5.893L7.977,5.969L7.901,6L7.075,6.008L6.657,6.092L6.315,6.323L6.085,6.664L6,7.083L5.992,8.501L5.961,8.577L5.885,8.608L5.246,8.6L5.135,8.569L5.056,8.483L4.863,8.155L4.627,7.86L4.352,7.6L4.042,7.382L3.701,7.209L3.335,7.085L2.947,7.015L2.542,7.003L2.041,7.074L1.573,7.235L1.149,7.477L0.7773,7.789L0.4674,8.163L0.2285,8.589L0.07031,9.057L0.001953,9.559L0.0373,10.12L0.1809,10.63L0.4209,11.11L0.7461,11.52L1.145,11.86L1.605,12.11L2.117,12.28L2.667,12.33L3.052,12.31L3.421,12.23L3.768,12.1L4.091,11.92L4.646,11.45L4.871,11.17L5.056,10.85L5.135,10.77L5.246,10.73L5.885,10.74L5.961,10.77L5.992,10.85L5.992,13.93L6.077,14.35L6.307,14.69L6.649,14.92L7.068,15.01L7.279,15.01L6.98,14.63L6.641,14.07L6.368,13.48L6.167,12.85L6.043,12.19L6,11.5L6.029,10.94L6.112,10.39L6.248,9.866L6.433,9.361L6.665,8.88L6.941,8.427L7.257,8.004L7.613,7.613L8.004,7.257L8.427,6.941L8.88,6.665L9.361,6.433L9.866,6.248L10.39,6.112L10.94,6.029L11.5,6L10.25,6L10.17,5.969L10.14,5.893L10.13,5.312L10.16,5.201L10.25,5.122L10.58,4.929L10.87,4.693L11.13,4.418L11.35,4.108L11.52,3.767L11.65,3.401L11.72,3.013L11.73,2.608L11.66,2.107L11.5,1.639L11.26,1.215L10.94,0.8434L10.57,0.5334L10.14,0.2945L9.675,0.1363L9.174,0.06797zM11.5,6L12.19,6.043L12.85,6.167L13.48,6.368L14.07,6.641L14.63,6.98L15.01,7.279L15.01,7.076L14.92,6.657L14.69,6.315L14.35,6.085L13.93,6L11.5,6zM9.523,1.652L9.896,1.904L10.15,2.276L10.24,2.733L10.15,3.19L9.896,3.563L9.523,3.814L9.066,3.906L8.61,3.814L8.237,3.563L7.985,3.19L7.893,2.733L7.985,2.276L8.237,1.904L8.609,1.652L9.066,1.56zM3.124,8.586L3.496,8.838L3.748,9.21L3.84,9.667L3.748,10.12L3.496,10.5L3.124,10.75L2.667,10.84L2.21,10.75L1.838,10.5L1.586,10.12L1.494,9.667L1.586,9.21L1.838,8.838L2.21,8.586L2.667,8.494zz" fill="#797979"/>
    </g>
    <g id="overlay">
      <path d="M11.5,16c2.4853,0,4.5,-2.0147,4.5,-4.5c0,-2.4853,-2.0147,-4.5,-4.5,-4.5s-4.5,2.0147,-4.5,4.5C7,13.9853,9.0147,16,11.5,16zM11,9h1v1h-1V9zM11,11h1v3h-1V11z" fill-rule="evenodd" fill="#217346"/>
      <rect x="11" y="11" width="1" height="3" fill-rule="evenodd" fill="#FFFFFF"/>
      <rect x="11" y="9" width="1" height="1" fill-rule="evenodd" fill="#FFFFFF"/>
    </g>
  </g>
</svg>