<svg version="1.1" id="Layer_1" xmlns="http://www.w3.org/2000/svg" xmlns:xlink="http://www.w3.org/1999/xlink" x="0px" y="0px" width="32px" height="32px" viewBox="0 0 32 32" enable-background="new 0 0 32 32" xml:space="preserve">
  <g id="main" style="opacity: 0.1">
    <g id="icon">
      <path d="M16.67,1.01L16.16,1.07L15.66,1.181L15.19,1.339L14.3,1.789L13.53,2.399L12.89,3.146L12.41,4.01L12.24,4.479L12.11,4.969L12.03,5.476L12,6L12.05,6.723L12.2,7.413L12.45,8.065L12.77,8.67L13.18,9.221L13.65,9.711L14.19,10.13L14.78,10.48L14.94,10.63L15,10.84L15,11.8L14.94,11.94L14.8,12L13.02,12L12.61,12.04L12.23,12.16L11.89,12.34L11.59,12.59L11.34,12.89L11.16,13.23L11.04,13.61L11,14.02L11,16.8L10.94,16.94L10.8,17L9.837,17L9.628,16.94L9.481,16.78L9.119,16.17L8.676,15.61L8.16,15.12L7.579,14.72L6.941,14.39L6.254,14.16L5.527,14.03L4.767,14.01L3.827,14.14L2.951,14.44L2.155,14.89L1.458,15.48L0.877,16.18L0.4291,16.98L0.1324,17.86L0.003906,18.8L0.01035,19.33L0.07012,19.84L0.1807,20.34L0.3391,20.81L0.7893,21.7L1.399,22.47L2.146,23.11L3.01,23.59L3.479,23.76L3.969,23.89L4.476,23.97L5,24L5.723,23.95L6.413,23.8L7.065,23.55L7.67,23.23L8.221,22.82L8.711,22.35L9.133,21.81L9.48,21.22L9.627,21.06L9.837,21L10.8,21L10.94,21.06L11,21.2L11,26.98L11.04,27.39L11.16,27.77L11.34,28.11L11.59,28.41L11.89,28.66L12.23,28.84L12.61,28.96L13.02,29L17.96,29L17.54,28.16L17.19,27.16L16.97,26.1L16.9,25L16.94,24.17L17.06,23.37L17.26,22.59L17.54,21.85L17.88,21.14L18.28,20.47L18.75,19.85L19.27,19.27L19.85,18.75L20.47,18.28L21.14,17.88L21.85,17.54L22.59,17.26L23.37,17.06L24.17,16.94L25,16.9L26.1,16.97L27.16,17.19L28.16,17.54L29.1,18.01L29.96,18.59L30,18.63L30,14.02L29.96,13.61L29.84,13.23L29.66,12.89L29.41,12.59L29.11,12.34L28.77,12.16L28.39,12.04L27.98,12L19.2,12L19.06,11.94L19,11.8L19,10.84L19.06,10.63L19.22,10.48L19.83,10.12L20.39,9.676L20.88,9.16L21.28,8.579L21.61,7.941L21.84,7.254L21.97,6.527L21.99,5.767L21.86,4.827L21.56,3.951L21.11,3.155L20.52,2.458L19.82,1.877L19.02,1.429L18.14,1.132L17.2,1.004zM17.44,3.845L17.86,3.973L18.23,4.176L18.56,4.444L18.82,4.77L19.03,5.144L19.16,5.557L19.2,6L19.16,6.443L19.03,6.856L18.82,7.23L18.56,7.556L18.23,7.824L17.86,8.027L17.44,8.155L17,8.2L16.56,8.155L16.14,8.027L15.77,7.824L15.44,7.556L15.18,7.23L14.97,6.856L14.84,6.443L14.8,6L14.84,5.557L14.97,5.144L15.18,4.77L15.44,4.444L15.77,4.176L16.14,3.973L16.56,3.845L17,3.8zM5.443,16.84L5.856,16.97L6.23,17.18L6.556,17.44L6.824,17.77L7.027,18.14L7.155,18.56L7.2,19L7.155,19.44L7.027,19.86L6.824,20.23L6.556,20.56L6.23,20.82L5.856,21.03L5.443,21.16L5,21.2L4.557,21.16L4.144,21.03L3.77,20.82L3.444,20.56L3.176,20.23L2.973,19.86L2.845,19.44L2.8,19L2.845,18.56L2.973,18.14L3.176,17.77L3.444,17.44L3.77,17.18L4.144,16.97L4.557,16.84L5,16.8zz" fill="#797979"/>
    </g>
    <g id="overlay">
      <path d="M25,18c-3.866,0,-7,3.134,-7,7c0,3.866,3.134,7,7,7s7,-3.134,7,-7C32,21.134,28.866,18,25,18zM26,29.8c0,0.1105,-0.0895,0.2,-0.2,0.2h-1.6c-0.1105,0,-0.2,-0.0895,-0.2,-0.2v-6.6c0,-0.1105,0.0895,-0.2,0.2,-0.2h1.6c0.1105,0,0.2,0.0895,0.2,0.2V29.8zM26,21.5c0,0.1105,-0.0895,0.2,-0.2,0.2h-1.6c-0.1105,0,-0.2,-0.0895,-0.2,-0.2v-1.3c0,-0.1105,0.0895,-0.2,0.2,-0.2h1.6c0.1105,0,0.2,0.0895,0.2,0.2V21.5z" fill-rule="evenodd" fill="#217346"/>
      <path d="M26,20.2c0,-0.1105,-0.0895,-0.2,-0.2,-0.2h-1.6c-0.1105,0,-0.2,0.0895,-0.2,0.2v1.3c0,0.1105,0.0895,0.2,0.2,0.2h1.6c0.1105,0,0.2,-0.0895,0.2,-0.2V20.2z" fill="#FFFFFF"/>
      <path d="M26,23.2c0,-0.1105,-0.0895,-0.2,-0.2,-0.2h-1.6c-0.1105,0,-0.2,0.0895,-0.2,0.2v6.6c0,0.1105,0.0895,0.2,0.2,0.2h1.6c0.1105,0,0.2,-0.0895,0.2,-0.2V23.2z" fill="#FFFFFF"/>
    </g>
  </g>
</svg>