<svg version="1.1" id="Layer_1" xmlns="http://www.w3.org/2000/svg" xmlns:xlink="http://www.w3.org/1999/xlink" x="0px" y="0px" width="16px" height="16px" viewBox="0 0 16 16" enable-background="new 0 0 16 16" xml:space="preserve">
  <g id="icon">
    <path d="M14.932,6h-4.684c-0.059,0,-0.107,-0.048,-0.107,-0.107l-0.008,-0.581c0,-0.08,0.045,-0.154,0.117,-0.19c0.913,-0.453,1.53,-1.414,1.48,-2.514c-0.062,-1.373,-1.183,-2.486,-2.556,-2.54C7.653,0.009,6.4,1.225,6.4,2.733c0,1.047,0.604,1.953,1.482,2.389c0.072,0.036,0.118,0.11,0.118,0.19l0.008,0.581c0,0.059,-0.048,0.107,-0.107,0.107l-0.826,0.008C6.482,6.008,6,6.489,6,7.083l-0.008,1.418c0,0.059,-0.048,0.107,-0.107,0.107L5.246,8.6c-0.08,0,-0.154,-0.045,-0.19,-0.117c-0.453,-0.913,-1.414,-1.53,-2.514,-1.48C1.169,7.065,0.056,8.185,0.002,9.559c-0.06,1.522,1.156,2.775,2.665,2.775c1.047,0,1.953,-0.604,2.389,-1.482c0.036,-0.072,0.11,-0.118,0.19,-0.118l0.639,0.008c0.059,0,0.107,0.048,0.107,0.107v4.084c0,0.594,0.482,1.076,1.076,1.076l7.857,-0.008c0.594,0,1.076,-0.482,1.076,-1.076l0.008,-7.849C16.008,6.482,15.526,6,14.932,6zM7.893,2.733c0,-0.648,0.525,-1.173,1.173,-1.173c0.648,0,1.173,0.525,1.173,1.173c0,0.648,-0.525,1.173,-1.173,1.173C8.419,3.907,7.893,3.381,7.893,2.733zM2.667,10.84c-0.648,0,-1.173,-0.525,-1.173,-1.173c0,-0.648,0.525,-1.173,1.173,-1.173c0.648,0,1.173,0.525,1.173,1.173C3.84,10.315,3.315,10.84,2.667,10.84z" fill="#fff"/>
  </g>
</svg>