<svg version="1.1" id="Layer_1" xmlns="http://www.w3.org/2000/svg" xmlns:xlink="http://www.w3.org/1999/xlink" x="0px" y="0px" width="32px" height="32px" viewBox="0 0 32 32" enable-background="new 0 0 32 32" xml:space="preserve">
  <g id="main"  style="opacity: 0.1">
    <g id="icon">
      <path d="M17.8,1.436L17.55,1.535L6.604,7.79L6.394,7.95L6.235,8.156L6.135,8.396L6.1,8.658L6.1,11.74L6.351,11.6L6.693,11.46L7.06,11.41L7.427,11.46L7.769,11.6L14.29,15.36L14.58,15.59L14.81,15.88L14.95,16.22L15,16.59L15,24.16L14.95,24.53L14.81,24.87L14.58,25.16L14.29,25.39L13.37,25.92L17.54,28.3L17.63,28.34L17.54,28.16L17.19,27.16L16.97,26.1L16.9,25L16.94,24.17L17.06,23.37L17.26,22.59L17.54,21.85L17.88,21.14L18.28,20.47L18.75,19.85L19.27,19.27L19.85,18.75L20.47,18.28L21.14,17.88L21.85,17.54L22.59,17.26L23.37,17.06L24.17,16.94L25,16.9L26.1,16.97L27.16,17.19L28.16,17.54L29.1,18.01L29.96,18.59L30,18.63L30,8.658L29.96,8.396L29.86,8.156L29.71,7.95L29.5,7.79L18.55,1.535L18.3,1.436L18.05,1.403zz" fill="#797979"/>
      <path d="M6.75,12.44L0.25,16.19L0.0668,16.37L0,16.62L0,24.13L0.0668,24.38L0.25,24.57L6.75,28.32L7,28.39L7.25,28.32L13.75,24.57L13.93,24.38L14,24.13L14,16.62L13.93,16.37L13.75,16.19L7.25,12.44L7,12.37zz" fill="#797979"/>
    </g>
    <g id="overlay">
      <path d="M25,18c-3.866,0,-7,3.134,-7,7c0,3.866,3.134,7,7,7s7,-3.134,7,-7C32,21.134,28.866,18,25,18zM26,29.8c0,0.1105,-0.0895,0.2,-0.2,0.2h-1.6c-0.1105,0,-0.2,-0.0895,-0.2,-0.2v-6.6c0,-0.1105,0.0895,-0.2,0.2,-0.2h1.6c0.1105,0,0.2,0.0895,0.2,0.2V29.8zM26,21.5c0,0.1105,-0.0895,0.2,-0.2,0.2h-1.6c-0.1105,0,-0.2,-0.0895,-0.2,-0.2v-1.3c0,-0.1105,0.0895,-0.2,0.2,-0.2h1.6c0.1105,0,0.2,0.0895,0.2,0.2V21.5z" fill-rule="evenodd" fill="#217346"/>
      <path d="M26,20.2c0,-0.1105,-0.0895,-0.2,-0.2,-0.2h-1.6c-0.1105,0,-0.2,0.0895,-0.2,0.2v1.3c0,0.1105,0.0895,0.2,0.2,0.2h1.6c0.1105,0,0.2,-0.0895,0.2,-0.2V20.2z" fill="#FFFFFF"/>
      <path d="M26,23.2c0,-0.1105,-0.0895,-0.2,-0.2,-0.2h-1.6c-0.1105,0,-0.2,0.0895,-0.2,0.2v6.6c0,0.1105,0.0895,0.2,0.2,0.2h1.6c0.1105,0,0.2,-0.0895,0.2,-0.2V23.2z" fill="#FFFFFF"/>
    </g>
  </g>
</svg>