<svg version="1.1" id="Layer_1" xmlns="http://www.w3.org/2000/svg" xmlns:xlink="http://www.w3.org/1999/xlink" x="0px" y="0px" width="32px" height="32px" viewBox="0 0 32 32" enable-background="new 0 0 32 32" xml:space="preserve">
  <g id="icon">
    <path d="M30.496,8.79l-10.95,-6.255c-0.307,-0.176,-0.685,-0.176,-0.992,0L7.604,8.79C7.292,8.968,7.1,9.299,7.1,9.658v3.085l0.251,-0.145c0.215,-0.124,0.461,-0.19,0.709,-0.19c0.249,0,0.494,0.066,0.709,0.19l6.519,3.765c0.44,0.254,0.711,0.724,0.711,1.232v7.56c0,0.508,-0.271,0.978,-0.712,1.233l-0.917,0.529l4.169,2.382c0.307,0.176,0.685,0.176,0.992,0l10.963,-6.263c0.312,-0.178,0.504,-0.509,0.504,-0.868V9.658C31,9.299,30.808,8.968,30.496,8.79z" fill="#217346"/>
    <path d="M14.75,25.565l-6.5,3.754c-0.155,0.089,-0.345,0.089,-0.5,0l-6.5,-3.754c-0.155,-0.089,-0.25,-0.254,-0.25,-0.433v-7.508c0,-0.179,0.095,-0.344,0.25,-0.433l6.5,-3.754c0.155,-0.089,0.345,-0.089,0.5,0l6.5,3.754c0.155,0.089,0.25,0.254,0.25,0.433v7.508C15,25.311,14.905,25.476,14.75,25.565z" fill="#808080"/>
  </g>
</svg>
