<svg version="1.1" id="Layer_1" xmlns="http://www.w3.org/2000/svg" xmlns:xlink="http://www.w3.org/1999/xlink" x="0px" y="0px" width="16px" height="16px" viewBox="0 0 16 16" enable-background="new 0 0 16 16" xml:space="preserve">
  <g id="icon">
    <path d="M15.731,4.213L9.88,0.87c-0.164,-0.094,-0.365,-0.094,-0.529,0L3.499,4.213c-0.166,0.095,-0.269,0.272,-0.269,0.463v1.098c0.164,-0.06,0.338,-0.092,0.514,-0.092c0.263,0,0.522,0.07,0.75,0.201l3.244,1.873c0.462,0.267,0.75,0.765,0.75,1.299v3.747c0,0.534,-0.287,1.032,-0.75,1.299l-0.117,0.067l1.729,0.988c0.164,0.094,0.365,0.094,0.529,0l5.851,-3.342c0.166,-0.095,0.269,-0.272,0.269,-0.463V4.676C16,4.485,15.897,4.308,15.731,4.213z" fill="#217346"/>
    <path d="M7.238,13.236l-3.244,1.873c-0.155,0.089,-0.345,0.089,-0.5,0L0.251,13.236c-0.155,-0.089,-0.25,-0.254,-0.25,-0.433V9.056c0,-0.179,0.095,-0.344,0.25,-0.433l3.244,-1.873c0.155,-0.089,0.345,-0.089,0.5,0l3.244,1.873c0.155,0.089,0.25,0.254,0.25,0.433v3.747C7.488,12.982,7.393,13.147,7.238,13.236z" fill="#808080"/>
  </g>
</svg>
