<?xml version="1.0" encoding="UTF-8"?>
<!DOCTYPE svg PUBLIC "-//W3C//DTD SVG 1.1//EN" "http://www.w3.org/Graphics/SVG/1.1/DTD/svg11.dtd">
<svg version="1.1" id="Layer_1" xmlns="http://www.w3.org/2000/svg" xmlns:xlink="http://www.w3.org/1999/xlink" x="0px" y="0px" width="16px" height="16px" viewBox="0 0 16 16" enable-background="new 0 0 16 16" xml:space="preserve">
  <g id="main" style="opacity: 0.1">
    <g id="icon">
      <path d="M9.414,1.058L0.2039,6.146L0.05469,6.29L0,6.488L0,10.7L0.05098,10.9L0.192,11.04L5.041,13.94L5.25,14L5.459,13.94L6.345,13.4L6.167,12.85L6.043,12.19L6,11.5L6.029,10.94L6.112,10.39L6.248,9.866L6.433,9.361L6.665,8.88L6.941,8.427L6.978,8.378L5.35,9.353L0.85,6.652L9.6,1.642L14.2,4.049L10.88,6.037L10.94,6.029L11.5,6L12.19,6.043L12.85,6.167L13.48,6.368L14.07,6.641L14.63,6.98L15,7.272L15,3.896L14.94,3.691L14.78,3.546L9.791,1.05L9.601,1.007zz" fill="#797979"/>
      <path d="M0.85,6.652L5.35,9.353L6.978,8.378L7.257,8.004L7.613,7.613L8.004,7.257L8.427,6.941L8.88,6.665L9.361,6.433L9.866,6.248L10.39,6.112L10.88,6.037L14.2,4.049L9.6,1.642zz" fill="#FFFFFF"/>
      <path d="M9.555,3.132L9.087,3.303L8.772,3.556L8.686,3.706L8.656,3.867L8.686,4.028L8.772,4.178L9.087,4.431L9.555,4.602L10.13,4.665L10.7,4.602L11.17,4.431L11.48,4.178L11.57,4.028L11.6,3.867L11.57,3.706L11.48,3.556L11.17,3.303L10.7,3.132L10.13,3.069zM6.904,4.656L6.436,4.827L6.12,5.081L6.034,5.231L6.004,5.392L6.034,5.553L6.12,5.703L6.436,5.957L6.904,6.128L7.478,6.191L8.052,6.128L8.52,5.957L8.836,5.703L8.922,5.553L8.952,5.392L8.922,5.231L8.836,5.081L8.52,4.827L8.052,4.656L7.478,4.593zM4.251,6.178L3.783,6.349L3.468,6.603L3.382,6.753L3.352,6.914L3.382,7.075L3.468,7.225L3.783,7.479L4.251,7.65L4.824,7.713L5.397,7.65L5.865,7.479L6.18,7.225L6.266,7.075L6.296,6.914L6.266,6.753L6.18,6.603L5.865,6.349L5.397,6.178L4.824,6.115zz" fill-rule="evenodd" fill="#797979"/>
    </g>
    <g id="overlay">
      <path d="M11.5,16c2.4853,0,4.5,-2.0147,4.5,-4.5c0,-2.4853,-2.0147,-4.5,-4.5,-4.5s-4.5,2.0147,-4.5,4.5C7,13.9853,9.0147,16,11.5,16zM11,9h1v1h-1V9zM11,11h1v3h-1V11z" fill-rule="evenodd" fill="#217346"/>
      <rect x="11" y="11" width="1" height="3" fill-rule="evenodd" fill="#FFFFFF"/>
      <rect x="11" y="9" width="1" height="1" fill-rule="evenodd" fill="#FFFFFF"/>
    </g>
  </g>
</svg>