<?xml version="1.0" encoding="UTF-8"?>
<!DOCTYPE svg PUBLIC "-//W3C//DTD SVG 1.1//EN" "http://www.w3.org/Graphics/SVG/1.1/DTD/svg11.dtd">
<svg version="1.1" id="Layer_1" xmlns="http://www.w3.org/2000/svg" xmlns:xlink="http://www.w3.org/1999/xlink" x="0px" y="0px" width="32px" height="32px" viewBox="0 0 32 32" enable-background="new 0 0 32 32" xml:space="preserve">
  <g id="main" style="opacity: 0.1">
    <g id="icon">
      <path d="M18.83,2.21L0.408,12.57L0.2379,12.7L0.1096,12.86L0.02832,13.06L0,13.27L0,21.85L0.02637,22.06L0.1023,22.24L0.2232,22.41L0.384,22.53L10.08,28.44L10.28,28.53L10.5,28.56L10.72,28.53L10.92,28.44L16.91,24.75L16.94,24.17L17.06,23.37L17.26,22.59L17.54,21.85L17.88,21.14L18.28,20.47L18.75,19.85L19.27,19.27L19.85,18.75L20.47,18.28L21.14,17.88L21.85,17.54L22.59,17.26L23.37,17.06L24.17,16.94L25,16.9L26.1,16.97L27.16,17.19L28.16,17.54L28.42,17.67L29.62,16.93L29.78,16.8L29.9,16.64L29.97,16.46L30,16.25L30,7.99L29.97,7.771L29.88,7.572L29.74,7.404L29.56,7.277L19.58,2.194L19.2,2.107zM28.4,8.3L10.7,19.1L1.7,13.6L19.2,3.4zz" fill="#797979"/>
      <path d="M1.7,13.6L10.7,19.1L28.4,8.3L19.2,3.4zz" fill="#FFFFFF"/>
      <path d="M19.66,6.338L19.11,6.433L18.61,6.583L18.18,6.781L17.82,7.022L17.55,7.298L17.37,7.603L17.31,7.931L17.37,8.259L17.55,8.564L17.82,8.84L18.18,9.081L18.61,9.279L19.11,9.429L19.66,9.524L20.26,9.557L20.85,9.524L21.4,9.429L21.9,9.279L22.34,9.081L22.7,8.84L22.97,8.564L23.14,8.259L23.2,7.931L23.14,7.603L22.97,7.298L22.7,7.022L22.34,6.781L21.9,6.583L21.4,6.433L20.85,6.338L20.26,6.305zM14.36,9.441L13.81,9.536L13.31,9.686L12.87,9.885L12.51,10.13L12.24,10.4L12.07,10.71L12.01,11.04L12.07,11.36L12.24,11.67L12.51,11.95L12.87,12.19L13.31,12.39L13.81,12.54L14.36,12.63L14.96,12.66L15.55,12.63L16.1,12.54L16.6,12.39L17.04,12.19L17.4,11.95L17.67,11.67L17.84,11.36L17.9,11.04L17.84,10.71L17.67,10.4L17.4,10.13L17.04,9.885L16.6,9.686L16.1,9.536L15.55,9.441L14.96,9.408zM9.055,12.54L8.503,12.63L8.003,12.79L7.567,12.98L7.208,13.22L6.936,13.5L6.765,13.81L6.705,14.13L6.765,14.46L6.936,14.77L7.208,15.05L7.567,15.29L8.003,15.48L8.503,15.63L9.055,15.73L9.648,15.76L10.24,15.73L10.79,15.63L11.29,15.48L11.73,15.29L12.09,15.05L12.36,14.77L12.53,14.46L12.59,14.13L12.53,13.81L12.36,13.5L12.09,13.22L11.73,12.98L11.29,12.79L10.79,12.63L10.24,12.54L9.648,12.51zz" fill-rule="evenodd" fill="#797979"/>
    </g>
    <g id="overlay">
      <path d="M25,18c-3.866,0,-7,3.134,-7,7c0,3.866,3.134,7,7,7s7,-3.134,7,-7C32,21.134,28.866,18,25,18zM26,29.8c0,0.1105,-0.0895,0.2,-0.2,0.2h-1.6c-0.1105,0,-0.2,-0.0895,-0.2,-0.2v-6.6c0,-0.1105,0.0895,-0.2,0.2,-0.2h1.6c0.1105,0,0.2,0.0895,0.2,0.2V29.8zM26,21.5c0,0.1105,-0.0895,0.2,-0.2,0.2h-1.6c-0.1105,0,-0.2,-0.0895,-0.2,-0.2v-1.3c0,-0.1105,0.0895,-0.2,0.2,-0.2h1.6c0.1105,0,0.2,0.0895,0.2,0.2V21.5z" fill-rule="evenodd" fill="#217346"/>
      <path d="M26,20.2c0,-0.1105,-0.0895,-0.2,-0.2,-0.2h-1.6c-0.1105,0,-0.2,0.0895,-0.2,0.2v1.3c0,0.1105,0.0895,0.2,0.2,0.2h1.6c0.1105,0,0.2,-0.0895,0.2,-0.2V20.2z" fill="#FFFFFF"/>
      <path d="M26,23.2c0,-0.1105,-0.0895,-0.2,-0.2,-0.2h-1.6c-0.1105,0,-0.2,0.0895,-0.2,0.2v6.6c0,0.1105,0.0895,0.2,0.2,0.2h1.6c0.1105,0,0.2,-0.0895,0.2,-0.2V23.2z" fill="#FFFFFF"/>
    </g>
  </g>
</svg>