<?xml version="1.0" encoding="UTF-8"?>
<!DOCTYPE svg PUBLIC "-//W3C//DTD SVG 1.1//EN" "http://www.w3.org/Graphics/SVG/1.1/DTD/svg11.dtd">
<svg version="1.1" id="Layer_1" xmlns="http://www.w3.org/2000/svg" xmlns:xlink="http://www.w3.org/1999/xlink" x="0px" y="0px" width="16px" height="16px" viewBox="0 0 16 16" enable-background="new 0 0 16 16" xml:space="preserve">
  <g id="icon">
    <path d="M15.766,3.742l-5.323,-2.689c-0.127,-0.064,-0.278,-0.061,-0.403,0.008L0.218,6.542C0.083,6.617,0,6.758,0,6.91v4.54c0,0.148,0.077,0.285,0.205,0.361l5.172,3.127c0.137,0.083,0.309,0.083,0.446,-0.001l9.974,-6.088c0.126,-0.077,0.203,-0.214,0.203,-0.36V4.119C15.999,3.96,15.909,3.814,15.766,3.742zM5.706,9.995l-4.8,-2.909l9.333,-5.395l4.907,2.592L5.706,9.995z" fill="#fff"/>
    <polygon points="0.907,7.086 5.706,9.995 15.146,4.283 10.24,1.691" fill="#FFFFFF" stroke-linejoin="miter"/>
    <path d="M5.146,6.508c0.867,0,1.57,0.385,1.57,0.861s-0.703,0.861,-1.57,0.861s-1.57,-0.385,-1.57,-0.861S4.279,6.508,5.146,6.508zM7.976,4.869c0.868,0,1.572,0.385,1.572,0.861s-0.704,0.861,-1.572,0.861c-0.868,0,-1.572,-0.385,-1.572,-0.861S7.108,4.869,7.976,4.869zM10.803,3.228c0.867,0,1.57,0.385,1.57,0.86s-0.703,0.86,-1.57,0.86s-1.57,-0.385,-1.57,-0.86S9.936,3.228,10.803,3.228z" fill-rule="evenodd" fill="#fff"/>
  </g>
</svg>