<?xml version="1.0" encoding="UTF-8"?>
<!DOCTYPE svg PUBLIC "-//W3C//DTD SVG 1.1//EN" "http://www.w3.org/Graphics/SVG/1.1/DTD/svg11.dtd">
<svg version="1.1" id="Layer_1" xmlns="http://www.w3.org/2000/svg" xmlns:xlink="http://www.w3.org/1999/xlink" x="0px" y="0px" width="32px" height="32px" viewBox="0 0 32 32" enable-background="new 0 0 32 32" xml:space="preserve">
  <g id="icon">
    <path d="M30.563,8.277l-9.981,-5.083c-0.239,-0.121,-0.522,-0.116,-0.755,0.016L1.408,13.571c-0.252,0.142,-0.408,0.408,-0.408,0.697v8.583c0,0.279,0.145,0.538,0.384,0.683l9.698,5.911c0.257,0.156,0.58,0.156,0.836,-0.002L30.62,17.934c0.237,-0.146,0.381,-0.404,0.381,-0.681V8.99C31,8.689,30.831,8.414,30.563,8.277zM11.7,20.1l-9,-5.5L20.2,4.4l9.2,4.9L11.7,20.1z" fill="#fff"/>
    <polygon points="2.7,14.6 11.7,20.1 29.4,9.3 20.2,4.4" fill="#FFFFFF" stroke-linejoin="miter"/>
    <path d="M10.648,13.507c1.626,0,2.943,0.729,2.943,1.628s-1.318,1.628,-2.943,1.628s-2.943,-0.729,-2.943,-1.628S9.023,13.507,10.648,13.507zM15.956,10.408c1.628,0,2.947,0.729,2.947,1.628c0,0.899,-1.319,1.628,-2.947,1.628c-1.628,0,-2.947,-0.729,-2.947,-1.628C13.009,11.137,14.328,10.408,15.956,10.408zM21.257,7.305c1.626,0,2.943,0.728,2.943,1.626s-1.318,1.626,-2.943,1.626s-2.943,-0.728,-2.943,-1.626S19.631,7.305,21.257,7.305z" fill-rule="evenodd" fill="#fff"/>
  </g>
</svg>