<svg version="1.1" id="Layer_1" xmlns="http://www.w3.org/2000/svg" xmlns:xlink="http://www.w3.org/1999/xlink" x="0px" y="0px" width="16px" height="16px" viewBox="0 0 16 16" enable-background="new 0 0 16 16" xml:space="preserve">
  <g id="main">
    <g id="icon">
      <path d="M4.621,0.08691L4.039,0.3246L3.784,0.4984L3.562,0.7078L3.384,0.952L3.256,1.23L3.163,1.614L3.163,1.982L3.279,2.315L3.537,2.595L3.755,2.749L3.948,2.947L3.993,3.068L3.98,3.204L3.894,3.357L3.717,3.53L3.466,3.604L3.009,3.634L1.772,3.604L0.0748,3.481L0.01484,4.867L-0,5.73L0,6.096L0.03281,6.86L0.07793,7.022L0.1631,7.154L0.4201,7.312L0.5754,7.326L0.7369,7.289L0.8967,7.195L1.046,7.039L1.315,6.82L1.663,6.736L2.054,6.779L2.457,6.938L2.835,7.204L3.157,7.569L3.387,8.023L3.491,8.556L3.438,9.102L3.242,9.544L2.943,9.883L2.583,10.12L2.201,10.25L1.839,10.27L1.538,10.2L1.337,10.02L1.183,9.82L0.9885,9.669L0.7709,9.57L0.5492,9.528L0.3414,9.548L0.1658,9.635L0.04082,9.795L-0,9.967L0,10.43L0.03164,11.23L0.1986,12.76L0.4613,14.62L1.673,14.85L2.712,14.98L3.203,15L3.62,14.97L3.779,14.91L3.91,14.8L4.071,14.47L4.067,14.08L3.992,13.9L3.863,13.74L3.739,13.55L3.671,13.24L3.679,12.87L3.778,12.47L3.989,12.1L4.329,11.79L4.816,11.59L5.47,11.54L6.008,11.63L6,11.5L6.029,10.94L6.112,10.39L6.248,9.866L6.433,9.361L6.665,8.88L6.941,8.427L7.257,8.004L7.613,7.613L8.004,7.257L8.427,6.941L8.88,6.665L9.361,6.433L9.866,6.248L10.39,6.112L10.86,6.041L10.89,5.183L11.05,3.578L6.971,3.772L6.738,3.757L6.542,3.692L6.388,3.586L6.286,3.445L6.242,3.274L6.263,3.082L6.358,2.874L6.534,2.658L6.817,2.368L6.997,2.102L7.079,1.763L7.068,1.255L6.996,0.9271L6.855,0.6559L6.658,0.4373L6.415,0.2676L5.844,0.05957L5.24,0.001367zM6.524,14.03L6.535,14.25L6.602,14.47L6.73,14.68L6.924,14.84L7.19,14.95L7.241,14.96L6.98,14.63L6.641,14.07L6.552,13.88zz" fill-rule="evenodd" fill="#797979"/>
    </g>
    <g id="overlay">
      <path d="M11.5,16c2.4853,0,4.5,-2.0147,4.5,-4.5c0,-2.4853,-2.0147,-4.5,-4.5,-4.5s-4.5,2.0147,-4.5,4.5C7,13.9853,9.0147,16,11.5,16zM11,9h1v1h-1V9zM11,11h1v3h-1V11z" fill-rule="evenodd" fill="#217346"/>
      <rect x="11" y="11" width="1" height="3" fill-rule="evenodd" fill="#FFFFFF"/>
      <rect x="11" y="9" width="1" height="1" fill-rule="evenodd" fill="#FFFFFF"/>
    </g>
  </g>
</svg>