<svg version="1.1" id="Layer_1" xmlns="http://www.w3.org/2000/svg" xmlns:xlink="http://www.w3.org/1999/xlink" x="0px" y="0px" width="32px" height="32px" viewBox="0 0 32 32" enable-background="new 0 0 32 32" xml:space="preserve">
  <g id="main" style="opacity: 0.1">
    <g id="icon">
      <path d="M9.94,0.04824L9.325,0.1727L8.729,0.373L8.167,0.6479L7.658,0.9953L7.217,1.414L6.861,1.902L6.607,2.457L6.422,3.225L6.395,3.599L6.421,3.96L6.504,4.304L6.652,4.626L6.871,4.922L7.167,5.187L7.6,5.494L7.815,5.68L7.984,5.891L8.074,6.131L8.05,6.403L7.878,6.71L7.524,7.056L7.335,7.141L7.024,7.203L6.114,7.262L3.651,7.204L1.311,7.047L0.2699,6.957L0.1504,9.729L0.1119,11.98L0.1303,12.96L0.1861,13.71L0.276,14.04L0.4457,14.3L0.6785,14.5L0.9578,14.62L1.267,14.64L1.589,14.57L1.907,14.38L2.205,14.07L2.449,13.82L2.741,13.63L3.071,13.52L3.433,13.46L3.816,13.48L4.213,13.55L4.615,13.68L5.014,13.87L5.402,14.11L5.769,14.4L6.107,14.74L6.409,15.13L6.665,15.56L6.867,16.04L7.006,16.55L7.075,17.1L7.063,17.67L6.969,18.19L6.805,18.66L6.579,19.08L6.302,19.44L5.984,19.75L5.635,20.02L5.266,20.22L4.886,20.38L4.506,20.48L4.135,20.54L3.785,20.54L3.464,20.49L3.184,20.38L2.954,20.23L2.785,20.02L2.478,19.63L2.09,19.33L1.657,19.13L1.215,19.05L0.801,19.09L0.4514,19.26L0.2021,19.58L0.09023,20.05L0.09375,21.11L0.1838,22.46L0.5164,25.5L1.04,29.22L1.748,29.37L3.453,29.69L5.524,29.95L6.5,29.99L7.332,29.93L7.648,29.81L7.909,29.58L8.106,29.28L8.23,28.92L8.272,28.53L8.223,28.15L8.074,27.78L7.815,27.47L7.68,27.31L7.569,27.08L7.434,26.47L7.448,25.72L7.522,25.33L7.647,24.93L7.827,24.55L8.066,24.18L8.371,23.85L8.744,23.56L9.19,23.33L9.715,23.16L10.32,23.07L11.02,23.06L11.7,23.14L12.29,23.28L12.79,23.47L13.2,23.71L13.53,23.98L13.78,24.28L13.97,24.61L14.1,24.94L14.17,25.28L14.19,25.62L14.11,26.24L13.9,26.73L13.62,27.04L13.37,27.28L13.2,27.63L13.12,28.04L13.14,28.49L13.27,28.93L13.53,29.33L13.91,29.67L14.44,29.89L14.89,29.98L15.41,30.01L16.58,29.96L17.85,29.79L18.41,29.68L18.01,29.1L17.54,28.16L17.19,27.16L16.97,26.1L16.9,25L16.94,24.17L17.06,23.37L17.26,22.59L17.54,21.85L17.88,21.14L18.28,20.47L18.75,19.85L19.27,19.27L19.85,18.75L20.47,18.28L21.14,17.88L21.85,17.54L22.59,17.26L23.37,17.06L24.17,16.94L25,16.9L26.1,16.97L27.16,17.19L28.16,17.54L29.1,18.01L29.96,18.59L29.98,18.62L30,18.34L29.94,17.35L29.78,16.51L29.52,15.81L29.19,15.23L28.79,14.77L28.34,14.43L27.86,14.18L27.36,14.02L26.85,13.95L26.36,13.95L25.88,14.02L25.44,14.14L25.06,14.31L24.74,14.51L24.5,14.74L24.36,14.99L24.1,15.47L23.77,15.78L23.38,15.96L22.98,16L22.59,15.92L22.25,15.75L21.99,15.5L21.85,15.18L21.73,14.22L21.71,13.02L21.82,10.36L22.02,8.104L22.13,7.152L14.01,7.539L13.54,7.508L13.15,7.38L12.85,7.168L12.64,6.884L12.55,6.544L12.6,6.16L12.79,5.745L13.14,5.313L13.7,4.733L13.9,4.472L14.06,4.2L14.16,3.891L14.22,3.522L14.2,2.508L14.06,1.852L13.78,1.31L13.38,0.873L12.9,0.5338L12.35,0.2846L11.76,0.1178L11.16,0.02617L10.56,0.001562zz" fill-rule="evenodd" fill="#797979"/>
    </g>
    <g id="overlay">
      <path d="M25,18c-3.866,0,-7,3.134,-7,7c0,3.866,3.134,7,7,7s7,-3.134,7,-7C32,21.134,28.866,18,25,18zM26,29.8c0,0.1105,-0.0895,0.2,-0.2,0.2h-1.6c-0.1105,0,-0.2,-0.0895,-0.2,-0.2v-6.6c0,-0.1105,0.0895,-0.2,0.2,-0.2h1.6c0.1105,0,0.2,0.0895,0.2,0.2V29.8zM26,21.5c0,0.1105,-0.0895,0.2,-0.2,0.2h-1.6c-0.1105,0,-0.2,-0.0895,-0.2,-0.2v-1.3c0,-0.1105,0.0895,-0.2,0.2,-0.2h1.6c0.1105,0,0.2,0.0895,0.2,0.2V21.5z" fill-rule="evenodd" fill="#217346"/>
      <path d="M26,20.2c0,-0.1105,-0.0895,-0.2,-0.2,-0.2h-1.6c-0.1105,0,-0.2,0.0895,-0.2,0.2v1.3c0,0.1105,0.0895,0.2,0.2,0.2h1.6c0.1105,0,0.2,-0.0895,0.2,-0.2V20.2z" fill="#FFFFFF"/>
      <path d="M26,23.2c0,-0.1105,-0.0895,-0.2,-0.2,-0.2h-1.6c-0.1105,0,-0.2,0.0895,-0.2,0.2v6.6c0,0.1105,0.0895,0.2,0.2,0.2h1.6c0.1105,0,0.2,-0.0895,0.2,-0.2V23.2z" fill="#FFFFFF"/>
    </g>
  </g>
</svg>