<svg version="1.1" id="Layer_1" xmlns="http://www.w3.org/2000/svg" xmlns:xlink="http://www.w3.org/1999/xlink" x="0px" y="0px" width="16px" height="16px" viewBox="0 0 16 16" enable-background="new 0 0 16 16" xml:space="preserve">
  <g id="icon">
    <path d="M11.787,3.8164c0,0,-3.2113,0.1551,-4.351,0.2065c-0.7044,0.0323,-1.0875,-0.5677,-0.4661,-1.1876c0.4775,-0.4752,0.6513,-0.6094,0.5698,-1.4968C7.4463,0.3223,6.4267,-0.008,5.5899,0.0014c-0.8753,0.0104,-1.8334,0.4723,-2.1156,1.3101c-0.1856,0.5495,-0.1802,1.1034,0.2999,1.4562c0.2619,0.1928,0.8416,0.4771,0.1914,0.9972c-0.3509,0.2809,-3.8843,-0.0523,-3.8843,-0.0523s-0.1556,2.742,-0.0449,3.6039c0.0633,0.4953,0.6782,0.727,1.081,0.1913c0.6214,-0.8256,2.5207,-0.003,2.6076,1.6178c0.0914,1.7004,-1.9089,2.2205,-2.2972,1.5573c-0.3624,-0.6198,-1.3978,-0.774,-1.4427,0.0165c-0.0694,1.2309,0.5084,4.8894,0.5084,4.8894s2.3225,0.5472,3.3692,0.3789c0.4862,-0.079,0.7094,-0.916,0.2588,-1.309c-0.4146,-0.3611,-0.3976,-2.4715,1.7139,-2.3538c2.1115,0.1177,1.8244,1.8531,1.3936,2.1221c-0.4144,0.2579,-0.4205,1.2941,0.4406,1.5226c1.1783,0.3134,4.1312,-0.6143,4.1312,-0.6143s-0.291,-2.8897,-0.133,-3.8261c0.1688,-1.0026,1.3219,-0.3977,1.466,-0.2062C14.0662,12.5422,16,11.8649,16,9.785c0,-3.0291,-2.7614,-2.5141,-3.0213,-1.7865c-0.2872,0.8013,-1.2377,0.5959,-1.341,0.1035C11.3949,6.9521,11.787,3.8164,11.787,3.8164z" fill-rule="evenodd" fill="#fff"/>
  </g>
</svg>