<svg version="1.1" id="Layer_1" xmlns="http://www.w3.org/2000/svg" xmlns:xlink="http://www.w3.org/1999/xlink" x="0px" y="0px" width="16px" height="16px" viewBox="0 0 16 16" enable-background="new 0 0 16 16" xml:space="preserve">
  <g id="main">
    <g id="icon">
      <path d="M8.303,4.506L8.309,4.508L8.799,4.685L9.241,4.933L9.629,5.245L9.96,5.611L12.85,3.259L12.13,2.48L11.28,1.818L10.33,1.289L9.273,0.9119L9.259,0.908zM7.039,5.338L6.622,5.467L6.246,5.672L5.917,5.943L5.646,6.271L5.441,6.648L5.312,7.065L5.267,7.512L5.312,7.959L5.441,8.376L5.646,8.753L5.917,9.081L6.246,9.352L6.405,9.438L6.433,9.361L6.665,8.88L6.787,8.68L6.723,8.645L6.52,8.478L6.354,8.276L6.227,8.044L6.148,7.787L6.12,7.512L6.148,7.237L6.227,6.98L6.354,6.748L6.52,6.545L6.723,6.379L6.955,6.252L7.212,6.173L7.487,6.145L7.763,6.173L8.019,6.252L8.251,6.379L8.454,6.545L8.621,6.748L8.651,6.804L8.88,6.665L9.361,6.433L9.405,6.417L9.326,6.271L9.055,5.943L8.727,5.672L8.35,5.467L7.933,5.338L7.486,5.293zM7.145,6.647L6.85,6.845L6.652,7.139L6.579,7.5L6.652,7.86L6.85,8.155L7.046,8.287L7.257,8.004L7.613,7.613L8.004,7.257L8.292,7.041L8.16,6.845L7.866,6.647L7.505,6.574zM2.209,11.78L2.911,12.53L3.725,13.17L4.643,13.68L5.655,14.06L6.099,12.49L6.043,12.19L6,11.5L6.029,10.94L6.112,10.39L6.144,10.27L5.791,10.07L5.422,9.78L5.104,9.441zz" fill="#FFFFFF"/>
      <path d="M6.733,0.03867L5.988,0.1523L5.27,0.3371L4.581,0.5895L3.925,0.9053L3.307,1.281L2.729,1.713L2.197,2.197L1.713,2.729L1.281,3.307L0.9053,3.925L0.5895,4.581L0.3371,5.27L0.1523,5.988L0.03867,6.733L0,7.5L0.03867,8.267L0.1523,9.012L0.3371,9.73L0.5895,10.42L0.9053,11.07L1.281,11.69L1.713,12.27L2.197,12.8L2.729,13.29L3.307,13.72L3.925,14.09L4.581,14.41L5.27,14.66L5.988,14.85L6.733,14.96L7.262,14.99L6.98,14.63L6.641,14.07L6.368,13.48L6.167,12.85L6.099,12.48L5.655,14.05L4.643,13.68L3.724,13.17L2.91,12.53L2.208,11.78L5.103,9.441L5.422,9.78L5.791,10.07L6.144,10.27L6.248,9.866L6.405,9.438L6.246,9.351L5.918,9.08L5.647,8.752L5.442,8.375L5.313,7.959L5.268,7.512L5.313,7.065L5.442,6.648L5.647,6.271L5.918,5.943L6.246,5.672L6.623,5.467L7.04,5.338L7.487,5.293L7.934,5.338L8.351,5.467L8.727,5.672L9.056,5.943L9.327,6.271L9.406,6.416L9.866,6.248L10.39,6.112L10.94,6.029L11.5,6L12.19,6.043L12.85,6.167L13.48,6.368L14.07,6.641L14.63,6.98L14.99,7.262L14.96,6.733L14.85,5.988L14.66,5.27L14.41,4.581L14.09,3.925L13.72,3.307L13.29,2.729L12.8,2.197L12.27,1.713L11.69,1.281L11.07,0.9053L10.42,0.5895L9.73,0.3371L9.012,0.1523L8.267,0.03867L7.5,0zM9.273,0.9119L10.33,1.289L11.28,1.818L12.13,2.48L12.85,3.259L9.96,5.611L9.629,5.245L9.241,4.933L8.799,4.685L8.309,4.508L8.303,4.506L9.259,0.908zM7.211,6.172L6.954,6.252L6.722,6.378L6.52,6.545L6.353,6.747L6.227,6.98L6.148,7.237L6.12,7.512L6.148,7.787L6.227,8.044L6.353,8.276L6.52,8.478L6.722,8.645L6.787,8.679L6.941,8.427L7.046,8.287L6.85,8.155L6.652,7.86L6.579,7.5L6.651,7.139L6.85,6.845L7.144,6.647L7.505,6.574L7.866,6.647L8.16,6.845L8.292,7.041L8.427,6.941L8.651,6.804L8.62,6.747L8.453,6.544L8.25,6.378L8.018,6.251L7.762,6.172L7.486,6.144zz" fill="#797979"/>
    </g>
    <g id="overlay">
      <path d="M11.5,16c2.4853,0,4.5,-2.0147,4.5,-4.5c0,-2.4853,-2.0147,-4.5,-4.5,-4.5s-4.5,2.0147,-4.5,4.5C7,13.9853,9.0147,16,11.5,16zM11,9h1v1h-1V9zM11,11h1v3h-1V11z" fill-rule="evenodd" fill="#629c7c"/>
      <rect x="11" y="11" width="1" height="3" fill-rule="evenodd" fill="#FFFFFF"/>
      <rect x="11" y="9" width="1" height="1" fill-rule="evenodd" fill="#FFFFFF"/>
    </g>
  </g>
</svg>