<svg version="1.1" id="Layer_1" xmlns="http://www.w3.org/2000/svg" xmlns:xlink="http://www.w3.org/1999/xlink" x="0px" y="0px" width="16px" height="16px" viewBox="0 0 16 16" enable-background="new 0 0 16 16" xml:space="preserve">
  <g id="icon">
    <path d="M12.131,2.391c-0.562,0,-1.096,0.12,-1.577,0.335c-0.671,-1.57,-2.191,-2.667,-3.96,-2.667c-2.187,0,-3.995,1.676,-4.286,3.852C0.971,4.313,0.002,5.5,0.002,6.903C0.002,8.959,1.488,9.65,3,9.875v-0.108c0,-0.63,0.513,-1.142,1.142,-1.142c0.303,0,0.588,0.118,0.804,0.332L5.9,10h0.1V7.052C6,6.362,6.562,5.8,7.252,5.8h1.452C9.418,5.8,10,6.382,10,7.096V10h0.036l1.023,-1.004c0.215,-0.211,0.499,-0.327,0.799,-0.327c0.63,0,1.142,0.512,1.142,1.142v0.147c1.887,-0.193,2.985,-1.771,2.985,-3.747C15.985,4.101,14.259,2.391,12.131,2.391z" fill-rule="evenodd" fill="#217346"/>
    <path d="M11.759,9.71L9,12.418V7.096c0,-0.163,-0.133,-0.296,-0.296,-0.296h-0.465h-0.493h-0.493C7.113,6.8,7,6.913,7,7.052v5.358L4.241,9.667c-0.089,-0.089,-0.241,-0.025,-0.241,0.1v1.977c0,0.222,0.088,0.434,0.246,0.59c0.879,0.869,3.047,3.012,3.652,3.609c0.077,0.076,0.201,0.076,0.277,-0.001c0.577,-0.581,2.658,-2.634,3.578,-3.542c0.158,-0.156,0.247,-0.368,0.247,-0.59V9.811C12,9.685,11.849,9.622,11.759,9.71z" fill-rule="evenodd" fill="#797979"/>
  </g>
</svg>
