<svg version="1.1" id="Layer_1" xmlns="http://www.w3.org/2000/svg" xmlns:xlink="http://www.w3.org/1999/xlink" x="0px" y="0px" width="16px" height="16px" viewBox="0 0 16 16" enable-background="new 0 0 16 16" xml:space="preserve">
  <g id="main">
    <g id="icon">
      <path d="M0.5,15L0.5393,15.19L0.6465,15.35L0.8055,15.46L1,15.5L14,15.5L14.19,15.46L14.35,15.35L14.46,15.19L14.5,15L14.5,6.03L13.92,6.627L13.89,6.649L13.49,6.91L13.02,7L11.1,7L10.77,6.951L10.48,6.813L10.24,6.596L10.07,6.313L9.988,5.997L10,5.68L10.11,5.381L10.3,5.116L10.42,5L8.256,5L8.004,4.974L7.768,4.898L7.368,4.623L7.154,4.3L0.5,4.3zz" fill="#FFFFFF"/>
      <path d="M0,4.3L0,15L0,15.05L0.009961,15.1L0.04922,15.29L0.06895,15.39L0.1248,15.47L0.232,15.63L0.2863,15.71L0.367,15.77L0.5258,15.88L0.6086,15.93L0.7064,15.95L0.901,15.99L0.95,16L1,16L14,16L14.05,16L14.1,15.99L14.29,15.95L14.39,15.93L14.47,15.88L14.63,15.77L14.71,15.71L14.77,15.63L14.88,15.47L14.93,15.39L14.95,15.29L14.99,15.1L15,15.05L15,15L15,5.52L14,6.541L14,14.95L13.99,14.99L13.95,15L1.05,15L1.008,14.99L1,14.95L1,4.8L7.625,4.8L7.368,4.623L7.099,4.217L7.026,3.98L7.007,3.8L0.5,3.8L0,3.8zz" fill="#6D6E71"/>
      <path d="M0.4885,1.063L0.2342,1.234L0.06289,1.488L0,1.8L0,5L8.256,5L8.004,4.974L7.768,4.898L7.368,4.623L7.099,4.217L7.026,3.98L7,3.726L7,2.225L7.025,1.975L7.098,1.744L7.367,1.355L7.662,1.164L7.512,1.063L7.2,1L0.8,1zz" fill="#217346"/>
    </g>
    <g id="overlay">
      <path d="M13.2288,0.0699c-0.0478,-0.0451,-0.111,-0.0701,-0.1767,-0.0699l-1.9354,0.0006c-0.1039,0.0003,-0.1557,0.1259,-0.0823,0.1994l1.7219,1.8H8.265C8.1234,2,8,2.0833,8,2.2249v0.5601v0.502v0.4391c0,0.1416,0.1148,0.2563,0.2563,0.2563h4.4912l-1.7304,1.8185c-0.0732,0.0737,-0.0209,0.1991,0.0829,0.1991h1.9222c0.0662,0,0.1299,-0.0256,0.1776,-0.0715c0,0,1.9735,-2.0193,2.7414,-2.7965c0.0786,-0.0795,0.078,-0.204,-0.0013,-0.2828C15.1735,2.0873,13.2288,0.0699,13.2288,0.0699z" fill-rule="evenodd" fill="#6D6E71"/>
    </g>
  </g>
</svg>
