<svg version="1.1" id="Layer_1" xmlns="http://www.w3.org/2000/svg" xmlns:xlink="http://www.w3.org/1999/xlink" x="0px" y="0px" width="16px" height="16px" viewBox="0 0 16 16" enable-background="new 0 0 16 16" xml:space="preserve">
  <g id="main">
    <g id="icon">
      <path d="M0.5,14L0.5393,14.19L0.6465,14.35L0.8055,14.46L1,14.5L6.049,14.5L6.001,14.25L6.097,13.75L6.218,13.53L6.387,13.32L8.237,11.47L6.387,9.618L6.221,9.416L6.1,9.19L6.025,8.944L6,8.684L6.025,8.424L6.1,8.178L6.221,7.951L6.387,7.75L7.749,6.388L7.951,6.222L8.177,6.101L8.423,6.026L8.683,6.001L8.943,6.026L9.189,6.101L9.416,6.222L9.617,6.388L11.47,8.238L13.32,6.388L13.52,6.222L13.75,6.101L13.99,6.026L14.25,6.001L14.5,6.025L14.5,3.3L0.5,3.3zz" fill="#FFFFFF"/>
      <path d="M0,3.3L0,14L0,14.05L0.009961,14.1L0.04922,14.29L0.06895,14.39L0.1248,14.47L0.232,14.63L0.2863,14.71L0.367,14.77L0.5258,14.88L0.6086,14.93L0.7064,14.95L0.901,14.99L0.95,15L1,15L6.235,15L6.218,14.98L6.097,14.75L6.001,14.25L6.05,14L1.05,14L1.008,13.99L1,13.95L1,3.8L14,3.8L14,6.026L14.25,6.001L14.51,6.026L14.76,6.101L14.98,6.222L15,6.236L15,3.3L15,2.8L14.5,2.8L0.5,2.8L0,2.8zM14.7,11.47L15,11.77L15,11.17zM11.17,15L11.77,15L11.47,14.7zz" fill="#6D6E71"/>
      <path d="M0.4885,0.06289L0.2342,0.2342L0.06289,0.4885L0,0.8L0,4L15,4L15,2.768L14.94,2.477L14.78,2.24L14.54,2.08L14.25,2.021L8,2.021L8,0.8L7.937,0.4885L7.766,0.2342L7.512,0.06289L7.2,0L0.8,0zz" fill="#217346"/>
    </g>
    <g id="overlay">
      <path d="M15.906,14.544l-1.362,1.362c-0.125,0.125,-0.329,0.125,-0.454,0l-2.622,-2.622l-2.557,2.557c-0.125,0.125,-0.329,0.125,-0.454,0l-1.362,-1.362c-0.125,-0.125,-0.125,-0.329,0,-0.454l2.557,-2.557L7.094,8.911c-0.125,-0.125,-0.125,-0.329,0,-0.454l1.362,-1.362c0.125,-0.125,0.329,-0.125,0.454,0l2.557,2.557l2.557,-2.557c0.125,-0.125,0.329,-0.125,0.454,0l1.362,1.362c0.125,0.125,0.125,0.329,0,0.454l-2.557,2.557l2.622,2.622C16.031,14.215,16.031,14.418,15.906,14.544z" fill-rule="evenodd" fill="#797979"/>
    </g>
  </g>
</svg>