<svg version="1.1" id="Layer_1" xmlns="http://www.w3.org/2000/svg" xmlns:xlink="http://www.w3.org/1999/xlink" x="0px" y="0px" width="16px" height="16px" viewBox="0 0 16 16" enable-background="new 0 0 16 16" xml:space="preserve">
  <g id="main">
    <g id="icon">
      <path d="M0.5,15L0.5393,15.19L0.6465,15.35L0.8055,15.46L1,15.5L14,15.5L14.19,15.46L14.35,15.35L14.46,15.19L14.5,15L14.5,5L13.58,5L13.68,5.105L13.88,5.37L13.98,5.672L13.99,5.992L13.92,6.309L13.75,6.593L13.51,6.811L13.21,6.95L12.89,6.999L10.95,7L10.48,6.912L10.08,6.657L10.07,6.641L10.05,6.624L7.784,4.3L0.5,4.3zz" fill="#FFFFFF"/>
      <path d="M0,4.3L0,15L0,15.05L0.009961,15.1L0.04922,15.29L0.06895,15.39L0.1248,15.47L0.232,15.63L0.2863,15.71L0.367,15.77L0.5258,15.88L0.6086,15.93L0.7064,15.95L0.901,15.99L0.95,16L1,16L14,16L14.05,16L14.1,15.99L14.29,15.95L14.39,15.93L14.47,15.88L14.63,15.77L14.71,15.71L14.77,15.63L14.88,15.47L14.93,15.39L14.95,15.29L14.99,15.1L15,15.05L15,15L15,5L14,5L14,14.95L13.99,14.99L13.95,15L1.05,15L1.008,14.99L1,14.95L1,4.8L8.272,4.8L7.355,3.86L7.315,3.8L0.5,3.8L0,3.8zz" fill="#6D6E71"/>
      <path d="M0.4885,1.063L0.2342,1.234L0.06289,1.488L0,1.8L0,5L8.467,5L7.355,3.86L7.091,3.465L7.002,3.014L7.087,2.563L7.347,2.165L7.95,1.551L7.937,1.488L7.766,1.234L7.512,1.063L7.2,1L0.8,1zz" fill="#217346"/>
    </g>
    <g id="overlay">
      <path d="M10.7712,5.9301c0.0478,0.0451,0.111,0.0701,0.1767,0.0699l1.9354,-0.0006c0.1039,-0.0003,0.1557,-0.1259,0.0823,-0.1994l-1.7219,-1.8h4.4913c0.1416,0,0.265,-0.0833,0.265,-0.2249V3.215v-0.502v-0.4391c0,-0.1416,-0.1148,-0.2563,-0.2563,-0.2563h-4.4913l1.7304,-1.8185C13.0559,0.1254,13.0037,0,12.8999,0l-1.9222,0c-0.0662,0,-0.1299,0.0256,-0.1776,0.0715c0,0,-1.9735,2.0193,-2.7414,2.7965c-0.0786,0.0795,-0.078,0.204,0.0013,0.2828C8.8265,3.9127,10.7712,5.9301,10.7712,5.9301z" fill-rule="evenodd" fill="#6D6E71"/>
    </g>
  </g>
</svg>